<svg width="76" height="79" viewBox="0 0 76 79" fill="none" xmlns="http://www.w3.org/2000/svg">
<g clip-path="url(#clip0)">
<path d="M19.5485 23.4746C20.1965 23.4746 20.7219 22.929 20.7219 22.2559C20.7219 21.5828 20.1965 21.0371 19.5485 21.0371C18.9004 21.0371 18.375 21.5828 18.375 22.2559C18.375 22.929 18.9004 23.4746 19.5485 23.4746Z" fill="white"/>
<path d="M26.5895 23.4746C27.2375 23.4746 27.7629 22.929 27.7629 22.2559C27.7629 21.5828 27.2375 21.0371 26.5895 21.0371C25.9414 21.0371 25.416 21.5828 25.416 22.2559C25.416 22.929 25.9414 23.4746 26.5895 23.4746Z" fill="white"/>
<path d="M27.5156 26.7132L27.6388 26.456L25.5395 25.3652L25.4163 25.6236C24.9692 26.5523 24.0704 27.13 23.0694 27.13C22.0685 27.13 21.1696 26.5523 20.7225 25.6236L20.5993 25.3665L18.5 26.4572L18.6232 26.7144C19.4704 28.4743 21.1743 29.5675 23.0694 29.5675C24.9645 29.5675 26.6684 28.4743 27.5156 26.7132V26.7132Z" fill="white"/>
<path d="M54.7523 24.6934C46.9876 24.6934 40.6709 31.2539 40.6709 39.3184C40.6709 47.3828 46.9876 53.9434 54.7523 53.9434C62.517 53.9434 68.8337 47.3828 68.8337 39.3184C68.8337 31.2539 62.517 24.6934 54.7523 24.6934ZM44.1913 44.1934C44.1913 43.8631 44.3109 43.5645 44.5351 43.3317L46.882 40.8942C47.1073 40.6614 47.3936 40.5371 47.7116 40.5371C48.0296 40.5371 48.3159 40.6614 48.5412 40.8942C48.7654 41.127 48.8851 41.4256 48.8851 41.7559C48.8851 42.0861 48.7654 42.3847 48.5412 42.6175L46.1943 45.055C45.7437 45.5218 44.9857 45.5218 44.5351 45.055C44.3109 44.8222 44.1913 44.5236 44.1913 44.1934ZM54.7758 48.0897C54.6491 47.4316 55.0621 46.7881 55.704 46.654C56.2907 46.5297 56.9537 46.9636 57.0781 47.612L57.747 51.0878C56.9995 51.2938 56.225 51.4218 55.427 51.4693L54.7758 48.0897ZM59.9718 50.2176L59.3781 47.1354C59.0507 45.4304 57.6015 44.1934 55.9305 44.1934C55.6923 44.1934 55.4552 44.219 55.2334 44.2665C53.3313 44.6626 52.0921 46.5931 52.4735 48.5687L53.0109 51.3572C50.3753 50.9477 48.0249 49.6302 46.2671 47.7143C46.8597 47.551 47.4089 47.2415 47.8536 46.7796L50.2005 44.3421C50.8658 43.651 51.232 42.7321 51.232 41.7559C51.232 40.7796 50.8658 39.8607 50.2005 39.1709C48.871 37.79 46.5522 37.79 45.2227 39.1709L43.1856 41.2866C43.0835 40.6444 43.0178 39.9899 43.0178 39.3184C43.0178 32.5982 48.2819 27.1309 54.7523 27.1309C61.2227 27.1309 66.4868 32.5982 66.4868 39.3184C66.4868 39.6267 66.4645 39.929 66.4422 40.2312C65.8238 39.6706 65.0235 39.3184 64.1399 39.3184C62.199 39.3184 60.6196 40.9588 60.6196 42.9746C60.6196 44.9831 62.1873 46.6162 64.1188 46.6284C63.0263 48.1348 61.6088 49.3682 59.9718 50.2176V50.2176ZM64.1399 44.1934C63.4934 44.1934 62.9665 43.6474 62.9665 42.9746C62.9665 42.3019 63.4934 41.7559 64.1399 41.7559C64.7865 41.7559 65.3134 42.3019 65.3134 42.9746C65.3134 43.6474 64.7865 44.1934 64.1399 44.1934Z" fill="white"/>
<path d="M73.5274 39.3184C73.5274 28.5665 65.1044 19.8184 54.7522 19.8184C45.0325 19.8184 37.0155 27.5306 36.072 37.372C36.0392 37.3647 36.0075 37.3513 35.9746 37.344L28.7215 35.8376L28.028 32.9577C29.6967 31.873 31.0168 30.2655 31.7655 28.3508H32.4566C35.0453 28.3508 37.1504 26.1644 37.1504 23.4758C37.1504 22.3485 36.7644 21.3223 36.1436 20.4948L36.7726 17.8842C37.0237 16.841 37.1504 15.7672 37.1504 14.6923C37.1504 8.11105 31.9943 2.75586 25.6576 2.75586H22.3614C18.7636 2.75586 15.3266 4.54133 13.1674 7.53092L12.8635 7.95139L12.6851 8.0757C10.3699 9.67836 8.9876 12.3608 8.9876 15.2505C8.9876 15.9549 9.07091 16.6594 9.2352 17.3419L9.99325 20.4948C9.37366 21.3211 8.9876 22.3473 8.9876 23.4746C8.9876 26.1632 11.0928 28.3496 13.6814 28.3496H14.3726C15.1212 30.2643 16.4414 31.8718 18.11 32.9565L17.4165 35.8364L10.1634 37.344C7.47384 37.9022 5.04715 39.4366 3.33273 41.6608C1.68286 43.8046 0.773438 46.4956 0.773438 49.2414V58.8184H3.12034V78.3184H43.0177V58.8184H45.3646V56.1798C46.8185 57.056 48.3933 57.7288 50.0584 58.1761V73.4434C50.0584 76.1319 52.1636 78.3184 54.7522 78.3184C57.3408 78.3184 59.446 76.1319 59.446 73.4434V58.1761C67.5299 56.0031 73.5274 48.3846 73.5274 39.3184ZM29.6145 38.5091L28.2275 43.5499L24.9606 41.5145L28.1477 38.2044L29.6145 38.5091ZM32.4566 25.9121H32.3757C32.4238 25.5124 32.4566 25.1065 32.4566 24.6934V21.0371C33.7509 21.0371 34.8035 22.1303 34.8035 23.4746C34.8035 24.8189 33.7509 25.9121 32.4566 25.9121ZM13.6814 25.9121C12.3871 25.9121 11.3345 24.8189 11.3345 23.4746C11.3345 22.1303 12.3871 21.0371 13.6814 21.0371V24.6934C13.6814 25.1065 13.7143 25.5124 13.7624 25.9121H13.6814ZM13.8105 18.5996H13.6814C13.1005 18.5996 12.5502 18.7239 12.0362 18.925L11.5129 16.7495C11.3943 16.2608 11.3345 15.7563 11.3345 15.2505C11.3345 13.1774 12.3261 11.253 13.9865 10.1025L14.4993 9.74783L15.0438 8.9922C16.7629 6.6132 19.4982 5.19336 22.3614 5.19336H25.6576C30.7 5.19336 34.8035 9.45411 34.8035 14.6923C34.8035 15.5686 34.7003 16.4436 34.4949 17.2931L34.1018 18.925C33.5878 18.7239 33.0375 18.5996 32.4566 18.5996V18.2596C32.4566 16.4315 31.0238 14.9434 29.2637 14.9434C28.9234 14.9434 28.5866 14.9994 28.2533 15.114L27.1714 15.4894C25.8794 15.9354 24.5347 16.1621 23.1746 16.1621C21.8228 16.1621 20.7221 15.0201 20.7221 13.6149C20.7221 12.6436 21.2419 11.7697 22.0763 11.3371L22.4189 11.1591L21.3722 8.97636L21.0284 9.1543C19.5862 9.90383 18.6252 11.32 18.4175 12.9483L17.5749 13.3858C15.5636 14.4315 14.2036 16.3632 13.8105 18.5996ZM16.0283 24.6934V19.928C16.0283 18.0695 17.0222 16.3985 18.6228 15.5686L18.7355 15.5101C19.4548 17.3211 21.1739 18.5996 23.1746 18.5996C24.7869 18.5996 26.3805 18.3303 27.9142 17.8013L28.9902 17.4272C29.5465 17.2334 30.1097 17.6807 30.1097 18.2596V24.6934C30.1097 28.7262 26.952 32.0059 23.069 32.0059C19.1861 32.0059 16.0283 28.7262 16.0283 24.6934ZM23.069 34.4434C24.0406 34.4434 24.9782 34.2886 25.8607 34.0034L26.4638 36.5079L23.069 40.0326L19.6754 36.5079L20.2785 34.0034C21.1598 34.2886 22.0974 34.4434 23.069 34.4434ZM17.9891 38.2044L21.1762 41.5145L17.9093 43.5499L16.5223 38.5091L17.9891 38.2044ZM5.46724 58.8184H10.161V75.8809H5.46724V58.8184ZM40.6708 75.8809H35.977V58.8184H40.6708V75.8809ZM43.0177 56.3809H35.977V54.231C35.977 52.6356 36.3396 51.0391 37.0272 49.6131L34.9279 48.5224C34.0783 50.2859 33.6301 52.2603 33.6301 54.231V75.8809H12.508V54.231C12.508 52.2603 12.0597 50.2859 11.2113 48.5224L9.11198 49.6131C9.79845 51.0391 10.161 52.6369 10.161 54.231V56.3809H3.12034V49.2414C3.12034 47.0477 3.84671 44.8966 5.16567 43.1842C6.53508 41.4061 8.47363 40.18 10.6246 39.734L14.2141 38.9881L16.493 47.2744L21.8956 43.9082V51.5059H24.2425V43.9082L29.645 47.2744L31.9239 38.9881L35.5135 39.734C35.6789 39.7681 35.8397 39.829 36.004 39.8741C36.1659 45.7887 38.8625 51.0488 43.0177 54.5174V56.3809ZM57.0991 73.4434C57.0991 74.7876 56.0465 75.8809 54.7522 75.8809C53.4579 75.8809 52.4053 74.7876 52.4053 73.4434V58.649C53.1763 58.7501 53.9554 58.8184 54.7522 58.8184C55.549 58.8184 56.3281 58.7501 57.0991 58.649V73.4434ZM54.7522 56.3809C45.6932 56.3809 38.3239 48.7271 38.3239 39.3184C38.3239 29.9096 45.6932 22.2559 54.7522 22.2559C63.8112 22.2559 71.1805 29.9096 71.1805 39.3184C71.1805 48.7271 63.8112 56.3809 54.7522 56.3809Z" fill="white"/>
<path d="M62.9667 35.6616C62.9667 34.6854 62.6006 33.7665 61.9352 33.0767L59.5883 30.6391C58.2588 29.2583 55.9401 29.2583 54.6106 30.6391C53.9452 31.329 53.5791 32.2479 53.5791 33.2241C53.5791 34.2003 53.9452 35.1193 54.6106 35.8091L56.9575 38.2466C57.6216 38.9376 58.5064 39.3179 59.4464 39.3179C60.3863 39.3179 61.2711 38.9364 61.9352 38.2466C62.6006 37.5568 62.9667 36.6378 62.9667 35.6616V35.6616ZM60.276 36.5233C59.8254 36.9901 59.0673 36.9901 58.6167 36.5233L56.2698 34.0858C56.0457 33.853 55.926 33.5544 55.926 33.2241C55.926 32.8938 56.0457 32.5952 56.2698 32.3625C56.4951 32.1297 56.7815 32.0054 57.0995 32.0054C57.4175 32.0054 57.7038 32.1297 57.9291 32.3625L60.276 34.8C60.5001 35.0327 60.6198 35.3313 60.6198 35.6616C60.6198 35.9919 60.5001 36.2905 60.276 36.5233Z" fill="white"/>
<path d="M47.7119 33.2246H50.0588V35.6621H47.7119V33.2246Z" fill="white"/>
<path d="M53.5791 39.3184H55.926V41.7559H53.5791V39.3184Z" fill="white"/>
</g>
<defs>
<clipPath id="clip0">
<rect width="75.1009" height="78" fill="white" transform="translate(0.773438 0.619141)"/>
</clipPath>
</defs>
</svg>
