<svg width="71" height="71" viewBox="0 0 71 71" fill="none" xmlns="http://www.w3.org/2000/svg">
<g clip-path="url(#clip0)">
<path d="M59.2123 0.279297H11.7871C7.35232 0.279297 3.74414 3.8519 3.74414 8.24298V59.0452C3.74414 61.3167 5.61025 63.1644 7.9043 63.1644H26.1164C26.8823 63.1644 27.5031 62.5497 27.5031 61.7913C27.5031 61.0329 26.8823 60.4183 26.1164 60.4183H7.9043C7.13943 60.4183 6.51758 59.8026 6.51758 59.0452V8.24298C6.51758 5.36601 8.8815 3.02539 11.7871 3.02539H53.1438C51.9158 4.42419 51.1694 6.2483 51.1694 8.24298V52.4916C51.1694 53.7585 50.1288 54.7888 48.8493 54.7888C47.8494 54.7888 46.9648 54.1575 46.6479 53.2184L44.5581 47.0096C43.9682 45.2568 42.3177 44.0795 40.4521 44.0795C38.0654 44.0795 36.124 46.0018 36.124 48.3644V49.4339H28.9364C28.1704 49.4339 27.5497 50.0491 27.5497 50.8069C27.5497 51.5653 28.1704 52.18 28.9364 52.18H36.124V59.0109C36.124 61.0383 36.5232 63.0153 37.3109 64.8861L39.3509 69.7341C39.5729 70.2613 40.0881 70.5794 40.6314 70.5794C40.8091 70.5794 40.99 70.5456 41.1639 70.4737C41.8713 70.1819 42.2055 69.378 41.9109 68.678L39.8709 63.83C39.2252 62.2955 38.8975 60.6741 38.8975 59.0114V48.365C38.8975 47.5159 39.5946 46.8256 40.4521 46.8256C41.1222 46.8256 41.7153 47.2483 41.9271 47.878L44.0169 54.0867C44.7114 56.149 46.6533 57.5349 48.8493 57.5349C51.658 57.5349 53.9428 55.2726 53.9428 52.4916V28.9508L55.7959 30.7819C59.1024 34.0493 60.923 38.3964 60.923 43.0213V57.6169C60.923 61.3977 60.0579 65.2014 58.422 68.6174C58.0938 69.3023 58.389 70.1213 59.0807 70.4464C59.7725 70.7714 60.5996 70.4796 60.9279 69.7942C62.7387 66.0129 63.6964 61.8021 63.6964 57.6169V43.0213C63.6964 37.6616 61.5866 32.6248 57.7552 28.8382L53.9428 25.0703V23.7584H63.0952C65.3892 23.7584 67.2553 21.9107 67.2553 19.6393V8.24298C67.2553 3.8519 63.6477 0.279297 59.2123 0.279297V0.279297ZM64.4819 19.6393C64.4819 20.3961 63.86 21.0123 63.0952 21.0123H53.9428V8.24298C53.9428 5.36601 56.3067 3.02539 59.2123 3.02539C62.118 3.02539 64.4819 5.36601 64.4819 8.24298V19.6393Z" fill="white"/>
<path d="M32.1719 60.418C31.8068 60.418 31.4493 60.5649 31.1914 60.8202C30.9336 61.0761 30.7852 61.4301 30.7852 61.791C30.7852 62.1525 30.9336 62.5065 31.1914 62.7618C31.4493 63.0171 31.8068 63.1641 32.1719 63.1641C32.5364 63.1641 32.8939 63.0171 33.1523 62.7618C33.4102 62.5065 33.5586 62.1525 33.5586 61.791C33.5586 61.4301 33.4102 61.0761 33.1523 60.8202C32.8939 60.5649 32.5364 60.418 32.1719 60.418Z" fill="white"/>
<path d="M22.835 10.4395C22.835 8.92535 21.5907 7.69336 20.0615 7.69336H13.96C12.4302 7.69336 11.1865 8.92535 11.1865 10.4395V16.4809C11.1865 17.995 12.4302 19.227 13.96 19.227H20.0615C21.5907 19.227 22.835 17.995 22.835 16.4809V10.4395ZM20.0615 16.4809H13.96V10.4395H20.0615L20.0631 16.4809C20.0631 16.4809 20.0626 16.4809 20.0615 16.4809Z" fill="white"/>
<path d="M22.835 26.916C22.835 25.4019 21.5907 24.1699 20.0615 24.1699H13.96C12.4302 24.1699 11.1865 25.4019 11.1865 26.916V32.9574C11.1865 34.4715 12.4302 35.7035 13.96 35.7035H20.0615C21.5907 35.7035 22.835 34.4715 22.835 32.9574V26.916ZM20.0615 32.9574H13.96V26.916H20.0615L20.0631 32.9574C20.0631 32.9574 20.0626 32.9574 20.0615 32.9574Z" fill="white"/>
<path d="M20.0615 40.6465H13.96C12.4302 40.6465 11.1865 41.8779 11.1865 43.3926V49.4335C11.1865 50.9481 12.4302 52.1796 13.96 52.1796H20.0615C21.5907 52.1796 22.835 50.9481 22.835 49.4335V43.3926C22.835 41.8779 21.5907 40.6465 20.0615 40.6465ZM20.0615 49.4335H13.96V43.3926H20.0615L20.0631 49.4335C20.0631 49.4335 20.0626 49.4335 20.0615 49.4335Z" fill="white"/>
<path d="M44.837 19.2266C45.603 19.2266 46.2238 18.6119 46.2238 17.8535C46.2238 17.0951 45.603 16.4805 44.837 16.4805H35.2773C34.5114 16.4805 33.8906 17.0951 33.8906 17.8535C33.8906 18.6119 34.5114 19.2266 35.2773 19.2266H44.837Z" fill="white"/>
<path d="M28.9365 19.2266C29.3016 19.2266 29.6591 19.0796 29.917 18.8243C30.1748 18.569 30.3232 18.2145 30.3232 17.8535C30.3232 17.4926 30.1748 17.138 29.917 16.8827C29.6591 16.6274 29.3016 16.4805 28.9365 16.4805C28.5703 16.4805 28.2139 16.6274 27.9561 16.8827C27.6971 17.138 27.5498 17.4926 27.5498 17.8535C27.5498 18.2145 27.6971 18.569 27.9561 18.8243C28.2139 19.0796 28.5703 19.2266 28.9365 19.2266Z" fill="white"/>
<path d="M28.9355 35.7031H44.8368C45.6027 35.7031 46.2235 35.0885 46.2235 34.3301C46.2235 33.5717 45.6027 32.957 44.8368 32.957H28.9355C28.1701 32.957 27.5488 33.5717 27.5488 34.3301C27.5488 35.0885 28.1701 35.7031 28.9355 35.7031Z" fill="white"/>
</g>
<defs>
<clipPath id="clip0">
<rect width="71" height="70.3001" fill="white" transform="translate(0 0.279297)"/>
</clipPath>
</defs>
</svg>
