<svg width="73" height="73" viewBox="0 0 73 73" fill="none" xmlns="http://www.w3.org/2000/svg">
<g clip-path="url(#clip0)">
<path d="M68.7324 0H7.13867C4.62245 0 2.57617 2.04362 2.57617 4.55656V50.1222C2.57617 51.8012 3.50008 53.2548 4.85742 54.0453V67.2092C4.85742 69.0934 6.3927 70.6267 8.2793 70.6267H67.5918C69.4784 70.6267 71.0137 69.0934 71.0137 67.2092V54.0453C72.371 53.2548 73.2949 51.8012 73.2949 50.1222V4.55656C73.2949 2.04362 71.2486 0 68.7324 0ZM68.7324 67.2092C68.7324 67.8381 68.2214 68.3484 67.5918 68.3484H8.2793C7.64967 68.3484 7.13867 67.8381 7.13867 67.2092V54.6787H68.7324V67.2092ZM71.0137 50.1222C71.0137 51.3786 69.9905 52.4004 68.7324 52.4004H7.13867C5.88056 52.4004 4.85742 51.3786 4.85742 50.1222V4.55656C4.85742 3.30009 5.88056 2.27828 7.13867 2.27828H68.7324C69.9905 2.27828 71.0137 3.30009 71.0137 4.55656V50.1222Z" fill="white"/>
<path d="M16.2637 66.0701C18.7799 66.0701 20.8262 64.0265 20.8262 61.5136C20.8262 59.0006 18.7799 56.957 16.2637 56.957C13.7475 56.957 11.7012 59.0006 11.7012 61.5136C11.7012 64.0265 13.7475 66.0701 16.2637 66.0701ZM16.2637 59.2353C17.5218 59.2353 18.5449 60.2571 18.5449 61.5136C18.5449 62.7701 17.5218 63.7919 16.2637 63.7919C15.0056 63.7919 13.9824 62.7701 13.9824 61.5136C13.9824 60.2571 15.0056 59.2353 16.2637 59.2353Z" fill="white"/>
<path d="M9.41992 47.843H66.4512V6.83398H9.41992V47.843ZM11.7012 9.11226H64.1699V45.5647H11.7012V9.11226Z" fill="white"/>
<path d="M36.7949 59.2344H25.3887V66.0692H36.7949V59.2344ZM34.5137 63.7909H27.6699V61.5127H34.5137V63.7909Z" fill="white"/>
<path d="M50.4824 59.2344H39.0762V66.0692H50.4824V59.2344ZM48.2012 63.7909H41.3574V61.5127H48.2012V63.7909Z" fill="white"/>
<path d="M64.1699 59.2344H52.7637V66.0692H64.1699V59.2344ZM61.8887 63.7909H55.0449V61.5127H61.8887V63.7909Z" fill="white"/>
<path d="M47.9491 19.3041L43.7265 35.1176L38.1089 10.4336L31.3941 31.8961H29.6329L24.1648 15.5119L18.8255 34.1744H13.9824V36.4527H20.5456L24.3313 23.2193L27.9882 34.1744H33.0708L37.7622 19.1845L43.5508 44.6226L48.4533 26.2619L50.8714 31.8961H61.8887V29.6178H52.3747L47.9491 19.3041Z" fill="white"/>
<path d="M20.8262 38.7305H23.1074V41.0088H20.8262V38.7305Z" fill="white"/>
<path d="M25.3887 38.7305H27.6699V41.0088H25.3887V38.7305Z" fill="white"/>
<path d="M29.9512 38.7305H32.2324V41.0088H29.9512V38.7305Z" fill="white"/>
</g>
<defs>
<clipPath id="clip0">
<rect width="73" height="72.9049" fill="white"/>
</clipPath>
</defs>
</svg>
