<svg width="86" height="86" viewBox="0 0 86 86" fill="none" xmlns="http://www.w3.org/2000/svg">
<path d="M84.5667 83.1333H75.9667V35.8333C75.9667 35.0418 75.3249 34.4 74.5333 34.4H54.4667V1.43333C54.4667 0.641775 53.8249 0 53.0333 0H15.7667C14.9751 0 14.3333 0.641775 14.3333 1.43333V83.1333H1.43333C0.641775 83.1333 0 83.7751 0 84.5667C0 85.3582 0.641775 86 1.43333 86H84.5667C85.3582 86 86 85.3582 86 84.5667C86 83.7751 85.3582 83.1333 84.5667 83.1333ZM30.1 83.1333H24.3667V70.2333C24.3667 69.4418 25.0084 68.8 25.8 68.8H28.6667C29.4582 68.8 30.1 69.4418 30.1 70.2333V83.1333ZM35.8333 35.8333V83.1333H32.9667V70.2333C32.9667 67.8585 31.0415 65.9333 28.6667 65.9333H25.8C23.4251 65.9333 21.5 67.8585 21.5 70.2333V83.1333H17.2V2.86667H51.6V34.4H37.2667C36.4751 34.4 35.8333 35.0418 35.8333 35.8333ZM73.1 83.1333H38.7V37.2667H73.1V83.1333Z" fill="white"/>
<path d="M45.8668 20.0664H37.2668C36.4753 20.0664 35.8335 20.7082 35.8335 21.4997V30.0997C35.8335 30.8913 36.4753 31.5331 37.2668 31.5331H45.8668C46.6584 31.5331 47.3002 30.8913 47.3002 30.0997V21.4997C47.3002 20.7082 46.6584 20.0664 45.8668 20.0664ZM44.4335 28.6664H38.7002V22.9331H44.4335V28.6664Z" fill="white"/>
<path d="M45.8668 5.73242H37.2668C36.4753 5.73242 35.8335 6.3742 35.8335 7.16576V15.7658C35.8335 16.5573 36.4753 17.1991 37.2668 17.1991H45.8668C46.6584 17.1991 47.3002 16.5573 47.3002 15.7658V7.16576C47.3002 6.3742 46.6584 5.73242 45.8668 5.73242ZM44.4335 14.3324H38.7002V8.59909H44.4335V14.3324Z" fill="white"/>
<path d="M31.5333 20.0664H22.9333C22.1418 20.0664 21.5 20.7082 21.5 21.4997V30.0997C21.5 30.8913 22.1418 31.5331 22.9333 31.5331H31.5333C32.3249 31.5331 32.9667 30.8913 32.9667 30.0997V21.4997C32.9667 20.7082 32.3249 20.0664 31.5333 20.0664ZM30.1 28.6664H24.3667V22.9331H30.1V28.6664Z" fill="white"/>
<path d="M31.5333 5.73242H22.9333C22.1418 5.73242 21.5 6.3742 21.5 7.16576V15.7658C21.5 16.5573 22.1418 17.1991 22.9333 17.1991H31.5333C32.3249 17.1991 32.9667 16.5573 32.9667 15.7658V7.16576C32.9667 6.3742 32.3249 5.73242 31.5333 5.73242ZM30.1 14.3324H24.3667V8.59909H30.1V14.3324Z" fill="white"/>
<path d="M31.5333 34.4004H22.9333C22.1418 34.4004 21.5 35.0422 21.5 35.8337V44.4337C21.5 45.2253 22.1418 45.8671 22.9333 45.8671H31.5333C32.3249 45.8671 32.9667 45.2253 32.9667 44.4337V35.8337C32.9667 35.0422 32.3249 34.4004 31.5333 34.4004ZM30.1 43.0004H24.3667V37.2671H30.1V43.0004Z" fill="white"/>
<path d="M31.5333 48.7324H22.9333C22.1418 48.7324 21.5 49.3742 21.5 50.1658V58.7658C21.5 59.5573 22.1418 60.1991 22.9333 60.1991H31.5333C32.3249 60.1991 32.9667 59.5573 32.9667 58.7658V50.1658C32.9667 49.3742 32.3249 48.7324 31.5333 48.7324ZM30.1 57.3324H24.3667V51.5991H30.1V57.3324Z" fill="white"/>
<path d="M58.7668 65.9335H67.3668C68.1584 65.9335 68.8002 65.2917 68.8002 64.5001V55.9001C68.8002 55.1086 68.1584 54.4668 67.3668 54.4668H58.7668C57.9753 54.4668 57.3335 55.1086 57.3335 55.9001V64.5001C57.3335 65.2917 57.9753 65.9335 58.7668 65.9335ZM60.2002 57.3335H65.9335V63.0668H60.2002V57.3335Z" fill="white"/>
<path d="M58.7668 51.5995H67.3668C68.1584 51.5995 68.8002 50.9577 68.8002 50.1661V41.5661C68.8002 40.7746 68.1584 40.1328 67.3668 40.1328H58.7668C57.9753 40.1328 57.3335 40.7746 57.3335 41.5661V50.1661C57.3335 50.9577 57.9753 51.5995 58.7668 51.5995ZM60.2002 42.9995H65.9335V48.7328H60.2002V42.9995Z" fill="white"/>
<path d="M58.7668 80.2674H67.3668C68.1584 80.2674 68.8002 79.6257 68.8002 78.8341V70.2341C68.8002 69.4426 68.1584 68.8008 67.3668 68.8008H58.7668C57.9753 68.8008 57.3335 69.4426 57.3335 70.2341V78.8341C57.3335 79.6257 57.9753 80.2674 58.7668 80.2674ZM60.2002 71.6674H65.9335V77.4008H60.2002V71.6674Z" fill="white"/>
<path d="M44.4333 65.9335H53.0333C53.8249 65.9335 54.4667 65.2917 54.4667 64.5001V55.9001C54.4667 55.1086 53.8249 54.4668 53.0333 54.4668H44.4333C43.6418 54.4668 43 55.1086 43 55.9001V64.5001C43 65.2917 43.6418 65.9335 44.4333 65.9335ZM45.8667 57.3335H51.6V63.0668H45.8667V57.3335Z" fill="white"/>
<path d="M44.4333 51.5995H53.0333C53.8249 51.5995 54.4667 50.9577 54.4667 50.1661V41.5661C54.4667 40.7746 53.8249 40.1328 53.0333 40.1328H44.4333C43.6418 40.1328 43 40.7746 43 41.5661V50.1661C43 50.9577 43.6418 51.5995 44.4333 51.5995ZM45.8667 42.9995H51.6V48.7328H45.8667V42.9995Z" fill="white"/>
<path d="M44.4333 80.2674H53.0333C53.8249 80.2674 54.4667 79.6257 54.4667 78.8341V70.2341C54.4667 69.4426 53.8249 68.8008 53.0333 68.8008H44.4333C43.6418 68.8008 43 69.4426 43 70.2341V78.8341C43 79.6257 43.6418 80.2674 44.4333 80.2674ZM45.8667 71.6674H51.6V77.4008H45.8667V71.6674Z" fill="white"/>
</svg>
