<svg width="102" height="102" viewBox="0 0 102 102" fill="none" xmlns="http://www.w3.org/2000/svg">
<circle cx="51" cy="51" r="51" fill="#F0C53F"/>
<path d="M16.928 60.288C19.904 60.288 22.52 58.344 22.52 54.96C22.52 51.72 20.288 50.232 17.672 50.232C17.048 50.232 16.544 50.328 15.968 50.592L16.232 47.736H21.824V44.76H13.184L12.752 52.464L14.336 53.472C15.248 52.896 15.704 52.704 16.592 52.704C18.008 52.704 18.992 53.52 18.992 55.056C18.992 56.616 17.984 57.432 16.424 57.432C15.128 57.432 14.048 56.76 13.136 55.92L11.552 58.152C12.752 59.352 14.432 60.288 16.928 60.288ZM30.0157 60.288C33.2797 60.288 35.4637 57.504 35.4637 52.32C35.4637 47.136 33.2797 44.472 30.0157 44.472C26.7517 44.472 24.5677 47.136 24.5677 52.32C24.5677 57.504 26.7517 60.288 30.0157 60.288ZM30.0157 57.552C28.8397 57.552 27.9037 56.472 27.9037 52.32C27.9037 48.144 28.8397 47.208 30.0157 47.208C31.2157 47.208 32.1277 48.144 32.1277 52.32C32.1277 56.472 31.2157 57.552 30.0157 57.552ZM42.6954 60.288C45.9594 60.288 48.1434 57.504 48.1434 52.32C48.1434 47.136 45.9594 44.472 42.6954 44.472C39.4314 44.472 37.2474 47.136 37.2474 52.32C37.2474 57.504 39.4314 60.288 42.6954 60.288ZM42.6954 57.552C41.5194 57.552 40.5834 56.472 40.5834 52.32C40.5834 48.144 41.5194 47.208 42.6954 47.208C43.8954 47.208 44.8074 48.144 44.8074 52.32C44.8074 56.472 43.8954 57.552 42.6954 57.552ZM55.4038 60H58.9318V50.856H63.5878V48.096H55.4038V60ZM65.7631 64.416H69.2911V60.936L69.1711 59.04C70.0111 59.832 70.9711 60.288 72.0031 60.288C74.5711 60.288 77.0191 57.936 77.0191 53.856C77.0191 50.184 75.2431 47.808 72.3631 47.808C71.1151 47.808 69.9151 48.432 68.9791 49.272H68.8831L68.6431 48.096H65.7631V64.416ZM71.1871 57.408C70.5871 57.408 69.9151 57.216 69.2911 56.64V51.768C69.9871 51.024 70.6111 50.688 71.3311 50.688C72.7471 50.688 73.3951 51.768 73.3951 53.904C73.3951 56.352 72.4111 57.408 71.1871 57.408ZM79.5209 60H83.0489V55.464H86.8649V60H90.3929V48.096H86.8649V52.392H83.0489V48.096H79.5209V60Z" fill="white"/>
</svg>
