<svg width="107" height="107" viewBox="0 0 107 107" fill="none" xmlns="http://www.w3.org/2000/svg">
<g clip-path="url(#clip0)">
<path d="M58.3151 15.6537C57.8674 15.1901 57.2043 15.0042 56.5808 15.1674C55.9573 15.3306 55.4704 15.8175 55.3072 16.441C55.144 17.0645 55.3299 17.7276 55.7935 18.1753L63.7097 26.0915C63.3688 27.3161 63.7167 28.6293 64.6192 29.5244C67.7597 32.6649 70.1137 35.4808 75.51 36.1228C79.4993 36.4907 83.2472 38.1956 86.1458 40.961L94.8842 49.6993C96.7242 51.4632 99.3654 52.1114 101.813 51.3999C104.261 50.6883 106.143 48.725 106.75 46.2496C107.358 43.7742 106.598 41.1626 104.758 39.3988L96.2324 30.8726C93.4679 27.9736 91.7637 24.2258 91.396 20.2368C90.7326 14.7085 87.6367 12.1887 84.7976 9.34602C83.8963 8.45548 82.5902 8.10995 81.3665 8.4383L73.4503 0.522087C72.7505 -0.153746 71.6383 -0.144081 70.9504 0.543811C70.2625 1.2317 70.2528 2.34398 70.9286 3.04372L78.4953 10.6104L75.9701 13.132L68.407 5.56714C67.7073 4.8913 66.595 4.90097 65.9071 5.58886C65.2192 6.27675 65.2095 7.38903 65.8854 8.08877L73.4503 15.6537L70.9286 18.1753L63.362 10.6104C62.6622 9.93457 61.5499 9.94424 60.8621 10.6321C60.1742 11.32 60.1645 12.4323 60.8403 13.132L68.407 20.6969L65.8836 23.2204L58.3151 15.6537ZM87.8543 20.6631C88.3142 25.4465 90.3781 29.9339 93.7107 33.3961L102.237 41.9222C103.644 43.2603 103.814 45.4452 102.631 46.9851C101.966 47.7082 101.04 48.1355 100.059 48.1721C99.0775 48.2086 98.1222 47.8512 97.4058 47.1794L88.6675 38.4411C85.2057 35.1076 80.7182 33.043 75.9345 32.5829C71.7294 32.0817 69.8711 29.7295 67.1408 27.0028L82.2778 11.8748C85.099 14.6907 87.3549 16.4669 87.8578 20.6631H87.8543Z" fill="#87AD3B"/>
<path d="M80.6248 73.2026C78.4687 66.9466 81.24 58.5133 81.9961 44.6461C82.0312 44.0089 81.7237 43.4015 81.1894 43.0526C80.6552 42.7037 79.9754 42.6663 79.4061 42.9545C78.8368 43.2427 78.4645 43.8128 78.4295 44.4499C77.6947 57.9693 74.9823 66.2672 76.9654 73.4576C69.6269 74.1299 60.6336 75.9596 60.6336 80.2503C60.7807 81.7312 61.7046 83.0219 63.0589 83.6386L63.931 87.9989C61.8088 88.2967 59.4976 88.5339 57.0259 88.7122V76.3769C60.7766 72.3852 63.4905 67.5342 64.9296 62.2493C67.783 61.495 73.1169 58.8788 73.1169 49.8623C73.1169 45.6911 72.1539 43.1766 70.1709 42.1744C69.1839 41.6982 68.0524 41.6166 67.0072 41.9461C67.0072 40.8101 66.968 39.6848 66.8877 38.6184C66.8559 38.1955 66.6745 37.7978 66.3759 37.4967C59.4958 30.5595 56.5319 30.317 43.6919 30.317C35.1533 30.317 31.9487 25.4378 30.7984 22.5274C30.5923 22.0068 30.1536 21.6133 29.6138 21.4646C29.0739 21.316 28.4957 21.4296 28.0521 21.7712C22.9589 25.6946 20.4533 32.2929 20.3838 41.9479C19.3393 41.6188 18.2088 41.6998 17.2219 42.1744C15.2299 43.1766 14.2669 45.6911 14.2669 49.8623C14.2669 58.8503 19.5652 61.4772 22.4239 62.2387C23.852 67.5652 26.5878 72.4507 30.3829 76.4518V88.7104C12.1269 87.3837 7.47778 83.3622 5.03996 80.607C16.81 74.9788 7.11933 52.2823 8.83846 34.3598C10.5915 16.1627 25.8586 15.3263 30.5042 15.4921C30.8874 15.5343 31.2745 15.4604 31.6152 15.2799C39.092 11.5474 47.4837 10.0414 55.7918 10.9411C56.4255 11.0095 57.0475 10.7348 57.4236 10.2203C57.7997 9.70583 57.8728 9.02977 57.6153 8.44679C57.3578 7.86381 56.8089 7.46249 56.1753 7.394C47.3098 6.45481 38.3588 8.02235 30.3401 11.9183C19.2977 11.6348 6.90532 17.2398 5.28606 34.0174C3.49202 52.7424 13.2112 75.3408 1.73722 77.9837C0.964311 78.0322 0.308944 78.5694 0.109627 79.3178C-0.0896896 80.0661 0.211666 80.8581 0.858041 81.2847C3.76487 83.9596 5.92093 90.5865 30.5773 92.3092C31.1985 94.6648 33.3271 96.3074 35.7632 96.311H51.7062C54.136 96.3204 56.2564 94.6651 56.8369 92.3056C59.6367 92.1113 62.2457 91.842 64.6318 91.5014C66.2547 99.612 65.9836 97.3864 65.9836 101.65C65.9836 104.605 68.3789 107 71.3336 107H96.3003C99.255 107 101.65 104.605 101.65 101.65C101.65 97.1278 101.174 100.637 104.575 83.6386C105.929 83.0219 106.853 81.7312 107 80.2503C107 73.8107 87.1714 72.8923 80.6248 73.2026ZM68.5605 45.3576C68.6015 45.3772 69.5503 45.8926 69.5503 49.8623C69.5503 54.6327 67.7669 56.935 65.898 58.0425C66.5962 54.0007 66.9612 49.9085 66.9894 45.807C67.8097 45.338 68.3643 45.256 68.5605 45.3576ZM17.8336 49.8623C17.8336 45.9015 18.7823 45.3772 18.8233 45.3576C19.0195 45.2595 19.5741 45.3398 20.3927 45.8088C20.4192 49.9053 20.777 53.993 21.4627 58.0318C19.5991 56.9207 17.8336 54.6185 17.8336 49.8623ZM27.765 66.3778C24.5692 59.5547 23.9272 52.1432 23.9272 42.3991C23.9272 34.8841 25.4573 29.5198 28.596 26.094C30.5898 29.4342 34.8983 33.8836 43.6919 33.8836C56.0326 33.8836 57.873 34.0709 63.3746 39.5386C63.4299 40.4624 63.4566 41.4218 63.4566 42.3919C63.4566 52.1147 62.8075 59.5119 59.5743 66.3688C55.8293 74.3421 50.49 78.3849 43.6919 78.3849C36.8404 78.3921 31.4832 74.3511 27.765 66.3778ZM51.7062 92.7444H35.7632C35.2464 92.7516 34.7519 92.5344 34.4077 92.1488C34.0635 91.7632 33.9035 91.2472 33.9692 90.7345C33.9692 90.6436 33.9496 92.0096 33.9496 79.2588C39.9515 82.8853 47.4733 82.8688 53.4592 79.216V90.9503C53.4693 91.422 53.2892 91.878 52.9594 92.2154C52.6297 92.5529 52.178 92.7435 51.7062 92.7444ZM83.8169 76.6836C94.6774 76.6836 102.062 78.9378 103.328 80.2503C102.062 81.5629 94.6774 83.817 83.8169 83.817C72.9564 83.817 65.5716 81.5629 64.3055 80.2503C65.5716 78.9378 72.9564 76.6836 83.8169 76.6836ZM98.0836 101.65C98.0836 102.635 97.2852 103.434 96.3003 103.434H71.3336C70.3487 103.434 69.5503 102.635 69.5503 101.65V99.867H87.3836C88.3685 99.867 89.1669 99.0686 89.1669 98.0836C89.1669 97.0987 88.3685 96.3003 87.3836 96.3003H69.2293C68.0701 90.5045 71.0732 105.522 67.0286 85.3025C78.0535 88.0396 89.5804 88.0396 100.605 85.3025C97.5985 100.334 98.0836 96.657 98.0836 101.65Z" fill="#87AD3B"/>
</g>
<defs>
<clipPath id="clip0">
<rect width="107" height="107" fill="white"/>
</clipPath>
</defs>
</svg>
