<svg width="124" height="101" viewBox="0 0 124 101" fill="none" xmlns="http://www.w3.org/2000/svg">
<path d="M92.9734 3.26254C104.907 3.26254 106.051 15.5949 106.157 16.5737V24.0449C104.779 24.3162 103.497 24.9465 102.442 25.8719C101.387 26.7973 100.596 27.9848 100.15 29.3139L96.3654 40.3086C95.9495 41.5225 95.8296 42.8179 96.0159 44.0873C96.2021 45.3566 96.6891 46.5634 97.4363 47.6073C98.1835 48.6512 99.1695 49.5023 100.312 50.0898C101.455 50.6773 102.722 50.9843 104.008 50.9853H111.568C112.854 50.9843 114.121 50.6773 115.263 50.0898C116.406 49.5023 117.392 48.6512 118.139 47.6073C118.887 46.5634 119.374 45.3566 119.56 44.0873C119.746 42.8179 119.626 41.5225 119.21 40.3086L115.426 29.3139C114.98 27.9859 114.19 26.799 113.137 25.8737C112.083 24.9484 110.803 24.3175 109.427 24.0449V16.4187C109.075 10.7093 105.185 0 92.9816 0C80.7786 0 77.2313 10.9132 77.1005 16.7205V40.9204C77.1005 44.9985 75.9808 48.098 73.7576 50.1126C71.6863 51.8336 69.0956 52.8103 66.4014 52.8857V35.4801C66.4014 34.409 66.19 33.3484 65.7793 32.3588C65.3685 31.3692 64.7664 30.4701 64.0075 29.7127C63.2485 28.9553 62.3474 28.3545 61.3558 27.9446C60.3641 27.5347 59.3013 27.3237 58.2279 27.3237H8.17349C6.00574 27.3237 3.92679 28.1831 2.39396 29.7127C0.861133 31.2423 0 33.3169 0 35.4801L0 85.3969C0 87.5601 0.861133 89.6347 2.39396 91.1643C3.92679 92.6939 6.00574 93.5533 8.17349 93.5533H31.5497V97.7375H3.62903C3.19548 97.7375 2.77969 97.9093 2.47312 98.2152C2.16656 98.5212 1.99433 98.9361 1.99433 99.3687C1.99433 99.8014 2.16656 100.216 2.47312 100.522C2.77969 100.828 3.19548 101 3.62903 101H62.7479C63.1814 101 63.5972 100.828 63.9038 100.522C64.2103 100.216 64.3826 99.8014 64.3826 99.3687C64.3826 98.9361 64.2103 98.5212 63.9038 98.2152C63.5972 97.9093 63.1814 97.7375 62.7479 97.7375H34.8191V93.5533H58.1952C60.363 93.5533 62.4419 92.6939 63.9748 91.1643C65.5076 89.6347 66.3687 87.5601 66.3687 85.3969V56.1564C69.88 56.0832 73.2593 54.8075 75.9399 52.5432C78.8823 49.8842 80.3699 45.9691 80.3699 40.9204V16.7531C80.3863 16.2067 80.8195 3.26254 92.9734 3.26254ZM112.336 30.3742L116.113 41.3608C116.363 42.0834 116.436 42.8552 116.327 43.6119C116.217 44.3685 115.928 45.0881 115.484 45.7106C115.039 46.3331 114.451 46.8406 113.77 47.1906C113.089 47.5406 112.334 47.7231 111.568 47.7228H104.008C103.243 47.7226 102.488 47.5402 101.808 47.1906C101.128 46.841 100.541 46.3345 100.097 45.713C99.6523 45.0915 99.3629 44.3731 99.2527 43.6176C99.1425 42.862 99.2147 42.0911 99.4632 41.369L103.239 30.3742C103.567 29.4309 104.181 28.6129 104.996 28.0339C105.812 27.455 106.787 27.1439 107.788 27.1439C108.788 27.1439 109.764 27.455 110.579 28.0339C111.395 28.6129 112.009 29.4309 112.336 30.3742ZM63.0993 85.3969C63.0993 86.6948 62.5827 87.9396 61.663 88.8574C60.7433 89.7751 59.4959 90.2907 58.1952 90.2907H8.17349C6.87284 90.2907 5.62547 89.7751 4.70577 88.8574C3.78608 87.9396 3.2694 86.6948 3.2694 85.3969V35.4801C3.2694 34.1822 3.78608 32.9374 4.70577 32.0196C5.62547 31.1019 6.87284 30.5863 8.17349 30.5863H58.1952C59.4959 30.5863 60.7433 31.1019 61.663 32.0196C62.5827 32.9374 63.0993 34.1822 63.0993 35.4801V85.3969Z" fill="#87AD3B"/>
<path d="M117.567 56.7111C117.719 56.559 117.84 56.3785 117.922 56.18C118.004 55.9815 118.046 55.7688 118.045 55.5541C118.045 55.3393 118.002 55.1268 117.919 54.9286C117.837 54.7303 117.716 54.5503 117.563 54.3987C117.411 54.2472 117.23 54.1271 117.031 54.0452C116.832 53.9634 116.619 53.9215 116.404 53.9219C116.189 53.9223 115.976 53.9649 115.777 54.0474C115.578 54.13 115.398 54.2507 115.246 54.4028C113.265 56.3767 110.579 57.4853 107.78 57.4853C104.98 57.4853 102.295 56.3767 100.313 54.4028C100.161 54.2513 99.981 54.131 99.7825 54.049C99.5841 53.967 99.3714 53.9248 99.1566 53.9248C98.9418 53.9248 98.7291 53.967 98.5307 54.049C98.3322 54.131 98.1519 54.2513 98.0001 54.4028C97.8482 54.5544 97.7277 54.7343 97.6455 54.9323C97.5633 55.1304 97.521 55.3426 97.521 55.5569C97.521 55.7713 97.5633 55.9835 97.6455 56.1815C97.7277 56.3796 97.8482 56.5595 98.0001 56.7111C100.596 59.2955 104.113 60.747 107.78 60.747C111.446 60.747 114.964 59.2955 117.559 56.7111H117.567Z" fill="#87AD3B"/>
<path d="M118.515 59.5416C117.111 60.9436 115.444 62.0558 113.609 62.8146C111.774 63.5735 109.807 63.964 107.82 63.964C105.834 63.964 103.867 63.5735 102.032 62.8146C100.197 62.0558 98.5296 60.9436 97.1254 59.5416C96.9834 59.3606 96.8046 59.2116 96.6009 59.1044C96.3971 58.9971 96.1729 58.9341 95.943 58.9194C95.7132 58.9046 95.4827 58.9386 95.2669 59.0189C95.0511 59.0993 94.8547 59.2242 94.6907 59.3856C94.5266 59.547 94.3986 59.7412 94.315 59.9554C94.2314 60.1696 94.1942 60.399 94.2056 60.6286C94.2171 60.8582 94.2771 61.0828 94.3817 61.2876C94.4862 61.4925 94.633 61.6729 94.8123 61.8172C96.5193 63.5211 98.546 64.8727 100.777 65.7949C103.007 66.7171 105.398 67.1917 107.812 67.1917C110.227 67.1917 112.617 66.7171 114.848 65.7949C117.078 64.8727 119.105 63.5211 120.812 61.8172C121.047 61.5022 121.16 61.1133 121.131 60.7217C121.102 60.3301 120.932 59.9622 120.653 59.6855C120.373 59.4088 120.004 59.2419 119.611 59.2155C119.218 59.1891 118.829 59.3049 118.515 59.5416Z" fill="#87AD3B"/>
<path d="M123.518 64.7128C123.366 64.5611 123.186 64.4408 122.987 64.3587C122.789 64.2766 122.576 64.2344 122.361 64.2344C122.147 64.2344 121.934 64.2766 121.735 64.3587C121.537 64.4408 121.357 64.5611 121.205 64.7128C117.644 68.2586 112.819 70.2499 107.788 70.2499C102.757 70.2499 97.9323 68.2586 94.3713 64.7128C94.0645 64.4067 93.6485 64.2348 93.2147 64.2348C92.7809 64.2348 92.3649 64.4067 92.0582 64.7128C91.7514 65.0189 91.5791 65.434 91.5791 65.8669C91.5791 66.2998 91.7514 66.715 92.0582 67.021C96.2325 71.1794 101.89 73.515 107.788 73.515C113.686 73.515 119.344 71.1794 123.518 67.021C123.67 66.8695 123.79 66.6896 123.873 66.4916C123.955 66.2936 123.997 66.0813 123.997 65.8669C123.997 65.6526 123.955 65.4403 123.873 65.2423C123.79 65.0442 123.67 64.8643 123.518 64.7128Z" fill="#87AD3B"/>
<path d="M42.4363 47.16C42.3723 46.9393 42.2623 46.7347 42.1135 46.5594C41.9647 46.3841 41.7805 46.2421 41.573 46.1428C41.3654 46.0435 41.1392 45.989 40.909 45.983C40.6789 45.977 40.4501 46.0195 40.2376 46.1078C37.68 47.1684 34.94 47.7224 32.1704 47.7391C29.4509 47.7231 26.7616 47.1687 24.2585 46.1078C24.0365 46.0224 23.7985 45.9863 23.5611 46.0022C23.3238 46.018 23.0927 46.0854 22.8841 46.1996C22.6756 46.3137 22.4945 46.472 22.3535 46.6632C22.2125 46.8544 22.1151 47.0741 22.068 47.3068L16.7715 71.7758C16.6928 72.148 16.747 72.536 16.9246 72.8726C17.1022 73.2092 17.3921 73.4733 17.7442 73.6191C22.4327 75.5678 27.4515 76.6032 32.53 76.6696H33.1676C38.4763 76.6604 43.7312 75.6072 48.6318 73.5702C49.0018 73.4158 49.3021 73.1311 49.4754 72.7701C49.6487 72.4092 49.683 71.9972 49.5718 71.6127L42.4363 47.16ZM32.5872 73.4071C28.3741 73.3429 24.2039 72.5509 20.2616 71.0662L24.8306 49.8026C27.2064 50.5731 29.6886 50.9666 32.1867 50.969C34.7704 50.9856 37.3389 50.5749 39.7881 49.7537L46.0163 71.0988C41.7214 72.6902 37.1681 73.4728 32.5872 73.4071Z" fill="#87AD3B"/>
</svg>
