<svg width="112" height="112" viewBox="0 0 112 112" fill="none" xmlns="http://www.w3.org/2000/svg">
<g clip-path="url(#clip0)">
<path d="M54.2781 99.9763L54.0509 99.9306C50.7751 99.2348 47.8597 97.3746 45.8411 94.6922C43.8225 92.0098 42.8365 88.6857 43.0645 85.3314C43.288 83.4131 43.7805 81.5361 44.5275 79.7563C44.9654 78.6663 45.3179 77.5436 45.5816 76.3985C45.8088 75.3309 51.034 50.0194 55.8775 33.5131C60.7482 16.8335 79.4134 3.03717 81.0945 1.81448C81.7851 1.16664 83.3118 -0.119918 84.6113 1.15752C85.9107 2.43495 84.893 3.83101 82.7938 6.5045C80.8401 8.94075 77.5232 12.8917 72.9342 18.1018C57.2496 36.0133 63.6834 73.3052 64.165 75.9787C67.1729 83.8897 67.2638 90.0944 64.4467 94.4285C61.0481 99.6295 54.787 99.958 54.5144 99.9671L54.2781 99.9763ZM65.4281 22.6367C62.7623 26.2431 60.7139 30.2705 59.367 34.5533C54.5962 50.9136 49.371 76.0791 49.1438 77.1376C48.8407 78.4624 48.4366 79.7619 47.9352 81.0246C47.3114 82.4958 46.8924 84.0464 46.6903 85.6325C46.5326 88.0607 47.2392 90.4662 48.6839 92.4198C50.1286 94.3735 52.2175 95.7484 54.578 96.2991C55.4867 96.1987 59.3579 95.5874 61.4207 92.4029C63.4835 89.2184 63.2926 83.8441 60.7119 77.1376L60.6301 76.8273C60.3393 75.3309 54.3508 43.541 65.4281 22.6367Z" fill="#87AD3B"/>
<path d="M110.183 44.5176H77.0142H76.7052C75.0036 44.8709 73.3955 45.581 71.9862 46.6015C70.5768 47.622 69.3979 48.9298 68.5267 50.4394C66.3367 54.4451 66.682 59.7464 69.4627 66.1427C73.4974 75.4315 80.2493 90.9432 74.8514 99.8305C71.9617 104.603 65.6915 107.34 56.2226 107.96H56.0045H55.7774C46.3448 107.367 40.0383 104.63 37.1486 99.8305C31.7508 90.9432 38.5026 75.4315 42.5373 66.1427C45.3271 59.7556 45.6451 54.4724 43.5005 50.4668C42.6293 48.9572 41.4505 47.6493 40.0411 46.6289C38.6317 45.6084 37.0236 44.8982 35.322 44.545H35.1675H1.81744C1.33543 44.545 0.873154 44.7372 0.532317 45.0795C0.19148 45.4217 0 45.8859 0 46.3699C0 46.8539 0.19148 47.318 0.532317 47.6603C0.873154 48.0025 1.33543 48.1948 1.81744 48.1948H34.8041C35.9425 48.4636 37.0157 48.959 37.9601 49.6518C38.9044 50.3445 39.7007 51.2205 40.3018 52.2278C41.8921 55.1933 41.5286 59.3906 39.2114 64.7102C34.6132 75.2673 27.6615 91.2261 34.0498 101.756C37.5847 107.596 44.8182 110.926 55.5411 111.638H55.6592C55.7739 111.652 55.8899 111.652 56.0045 111.638C56.1162 111.652 56.2291 111.652 56.3408 111.638H56.4589C67.1818 110.926 74.4153 107.596 77.9593 101.756C84.3203 91.2261 77.3868 75.2946 72.7977 64.7102C70.4896 59.4179 70.0716 55.2207 71.68 52.2643C72.2801 51.237 73.083 50.3437 74.0394 49.6392C74.9957 48.9347 76.0853 48.4338 77.2414 48.1674H110.219C110.701 48.1674 111.163 47.9751 111.504 47.6329C111.845 47.2907 112.036 46.8265 112.036 46.3425C112.036 45.8585 111.845 45.3943 111.504 45.0521C111.163 44.7098 110.701 44.5176 110.219 44.5176H110.183Z" fill="#87AD3B"/>
<path d="M17.5476 63.8711C19.0231 63.8711 20.2193 62.67 20.2193 61.1885C20.2193 59.7069 19.0231 58.5059 17.5476 58.5059C16.0721 58.5059 14.876 59.7069 14.876 61.1885C14.876 62.67 16.0721 63.8711 17.5476 63.8711Z" fill="#87AD3B"/>
<path d="M3.51637 79.8926C4.99188 79.8926 6.18801 78.6915 6.18801 77.2099C6.18801 75.7284 4.99188 74.5273 3.51637 74.5273C2.04086 74.5273 0.844727 75.7284 0.844727 77.2099C0.844727 78.6915 2.04086 79.8926 3.51637 79.8926Z" fill="#87AD3B"/>
<path d="M18.738 97.3476C20.2136 97.3476 21.4097 96.1466 21.4097 94.665C21.4097 93.1835 20.2136 91.9824 18.738 91.9824C17.2625 91.9824 16.0664 93.1835 16.0664 94.665C16.0664 96.1466 17.2625 97.3476 18.738 97.3476Z" fill="#87AD3B"/>
<path d="M94.7341 96.6367C96.2097 96.6367 97.4058 95.4357 97.4058 93.9541C97.4058 92.4725 96.2097 91.2715 94.7341 91.2715C93.2586 91.2715 92.0625 92.4725 92.0625 93.9541C92.0625 95.4357 93.2586 96.6367 94.7341 96.6367Z" fill="#87AD3B"/>
<path d="M108.756 80.6055C110.231 80.6055 111.427 79.4044 111.427 77.9229C111.427 76.4413 110.231 75.2402 108.756 75.2402C107.28 75.2402 106.084 76.4413 106.084 77.9229C106.084 79.4044 107.28 80.6055 108.756 80.6055Z" fill="#87AD3B"/>
<path d="M93.5349 63.1504C95.0104 63.1504 96.2066 61.9493 96.2066 60.4678C96.2066 58.9862 95.0104 57.7852 93.5349 57.7852C92.0594 57.7852 90.8633 58.9862 90.8633 60.4678C90.8633 61.9493 92.0594 63.1504 93.5349 63.1504Z" fill="#87AD3B"/>
</g>
<defs>
<clipPath id="clip0">
<rect width="112" height="111" fill="white" transform="translate(0 0.609375)"/>
</clipPath>
</defs>
</svg>
