<svg width="88" height="108" viewBox="0 0 88 108" fill="none" xmlns="http://www.w3.org/2000/svg">
<g clip-path="url(#clip0)">
<path d="M68.139 67.643H56.2166C55.7808 66.008 54.808 64.5711 53.4579 63.5683C58.1405 61.7245 62.1989 58.5571 65.1478 54.4447C68.0968 50.3322 69.8117 45.4485 70.0875 40.3774C72.1575 39.9364 74.0113 38.7816 75.3312 37.1107C76.651 35.4399 77.3547 33.3571 77.3216 31.2195C77.2886 29.0818 76.5208 27.0223 75.1499 25.394C73.779 23.7657 71.8904 22.6699 69.8078 22.2945C68.839 16.0796 65.7064 10.4184 60.9741 6.33039C56.2418 2.24236 50.2208 -0.00390625 43.9952 -0.00390625C37.7696 -0.00390625 31.7486 2.24236 27.0163 6.33039C22.284 10.4184 19.1514 16.0796 18.1826 22.2945C16.1405 22.7074 14.2998 23.8146 12.9669 25.4317C11.634 27.0489 10.8892 29.0785 10.8565 31.183C10.8238 33.2874 11.5052 35.3397 12.7872 36.9983C14.0692 38.657 15.8746 39.822 17.9029 40.2994C18.1697 45.317 19.8443 50.1542 22.7311 54.2454C25.6179 58.3366 29.5975 61.5128 34.2046 63.4026C32.7778 64.4166 31.7526 65.9085 31.3108 67.6138H19.8707C17.2583 67.6151 14.6719 68.1367 12.2591 69.1487C9.84632 70.1608 7.65459 71.6435 5.80918 73.5121C3.96376 75.3807 2.50086 77.5985 1.50408 80.0388C0.507312 82.4791 -0.00378178 85.094 2.10663e-05 87.734V108.02H88V87.734C88 82.4089 85.9081 77.3017 82.184 73.5344C78.4599 69.7672 73.4082 67.6482 68.139 67.643ZM45.9533 66.0248H49.1558C49.6266 65.9997 50.0975 66.0718 50.5398 66.2366C50.9821 66.4013 51.3866 66.6554 51.7286 66.9833C52.0707 67.3112 52.343 67.706 52.5292 68.1437C52.7153 68.5815 52.8113 69.0529 52.8113 69.5293C52.8113 70.0057 52.7153 70.4772 52.5292 70.9149C52.343 71.3526 52.0707 71.7474 51.7286 72.0753C51.3866 72.4032 50.9821 72.6573 50.5398 72.8221C50.0975 72.9869 49.6266 73.0589 49.1558 73.0338H45.934L45.9533 66.0248ZM42.0949 73.0338H38.3523C37.8815 73.0589 37.4106 72.9869 36.9683 72.8221C36.526 72.6573 36.1215 72.4032 35.7795 72.0753C35.4374 71.7474 35.1651 71.3526 34.9789 70.9149C34.7928 70.4772 34.6968 70.0057 34.6968 69.5293C34.6968 69.0529 34.7928 68.5815 34.9789 68.1437C35.1651 67.706 35.4374 67.3112 35.7795 66.9833C36.1215 66.6554 36.526 66.4013 36.9683 66.2366C37.4106 66.0718 37.8815 65.9997 38.3523 66.0248H42.0757L42.0949 73.0338ZM73.4636 31.3603C73.4622 32.4287 73.1432 33.4719 72.5481 34.3549C71.9531 35.2379 71.1092 35.9199 70.1261 36.3124V26.418C71.1077 26.81 71.9505 27.4904 72.5454 28.3715C73.1404 29.2526 73.4602 30.2937 73.4636 31.3603ZM14.7197 31.3603C14.7188 30.3258 15.0168 29.3134 15.5771 28.4476C16.1374 27.5818 16.9357 26.9001 17.874 26.4863V36.2344C16.9379 35.8175 16.1417 35.1351 15.5818 34.27C15.0219 33.4048 14.7225 32.3941 14.7197 31.3603ZM21.7323 38.9932V26.4083C21.6707 23.4136 22.201 20.4367 23.2924 17.6519C24.3837 14.867 26.0141 12.3303 28.088 10.1904C30.1618 8.05051 32.6374 6.35043 35.3698 5.1898C38.1021 4.02918 41.0362 3.43135 44 3.43135C46.9639 3.43135 49.898 4.02918 52.6303 5.1898C55.3626 6.35043 57.8382 8.05051 59.9121 10.1904C61.9859 12.3303 63.6163 14.867 64.7076 17.6519C65.799 20.4367 66.3294 23.4136 66.2677 26.4083V38.9932C66.2649 44.6226 64.1758 50.0468 60.4121 54.1968C56.6484 58.3468 51.4831 60.9217 45.934 61.414V40.5821H51.9242C52.4358 40.5821 52.9265 40.3767 53.2883 40.0111C53.6501 39.6455 53.8534 39.1496 53.8534 38.6325C53.8534 38.1154 53.6501 37.6195 53.2883 37.2539C52.9265 36.8883 52.4358 36.6828 51.9242 36.6828H42.0757V61.414C36.5249 60.924 31.3572 58.3501 27.5915 54.1999C23.8258 50.0496 21.7353 44.6241 21.7323 38.9932ZM84.1416 104.13H68.8914V90.2978C68.8914 89.7807 68.6881 89.2848 68.3263 88.9192C67.9646 88.5536 67.4739 88.3482 66.9622 88.3482C66.4505 88.3482 65.9599 88.5536 65.5981 88.9192C65.2363 89.2848 65.033 89.7807 65.033 90.2978V104.101H22.3979V90.2978C22.3979 89.7807 22.1947 89.2848 21.8329 88.9192C21.4711 88.5536 20.9804 88.3482 20.4687 88.3482C19.9571 88.3482 19.4664 88.5536 19.1046 88.9192C18.7428 89.2848 18.5395 89.7807 18.5395 90.2978V104.101H3.8584V87.734C3.8584 83.4414 5.5451 79.3245 8.5477 76.2882C11.5503 73.2519 15.6231 71.5449 19.8707 71.5423H31.3011C31.7372 73.0931 32.6613 74.4582 33.9335 75.4309C35.2058 76.4036 36.757 76.9309 38.3523 76.9331H42.0757V84.9363L35.0052 92.2962C34.6483 92.6672 34.4519 93.1663 34.4591 93.6836C34.4663 94.201 34.6766 94.6943 35.0438 95.0549C35.4109 95.4156 35.9047 95.6141 36.4166 95.6068C36.9286 95.5994 37.4167 95.3869 37.7736 95.0159L44.0241 88.4944L50.5641 95.0452C50.9258 95.4077 51.4147 95.611 51.9242 95.6106C52.3057 95.6089 52.6782 95.493 52.9946 95.2775C53.3109 95.0619 53.5569 94.7564 53.7015 94.3995C53.846 94.0427 53.8826 93.6505 53.8066 93.2727C53.7306 92.8948 53.5455 92.5482 53.2746 92.2767L45.934 84.9168V76.9331H49.1365C50.7318 76.9309 52.283 76.4036 53.5553 75.4309C54.8275 74.4582 55.7516 73.0931 56.1877 71.5423H68.139C72.3849 71.5475 76.4552 73.2557 79.4557 76.2916C82.4563 79.3276 84.1416 83.4431 84.1416 87.734V104.13Z" fill="#87AD3B"/>
</g>
<defs>
<clipPath id="clip0">
<rect width="88" height="108" fill="white"/>
</clipPath>
</defs>
</svg>
