<svg width="101" height="99" viewBox="0 0 101 99" fill="none" xmlns="http://www.w3.org/2000/svg">
<g clip-path="url(#clip0)">
<path d="M14.8706 86.3617C17.4311 86.3617 19.5068 84.2717 19.5068 81.6936C19.5068 79.1154 17.4311 77.0254 14.8706 77.0254C12.3101 77.0254 10.2344 79.1154 10.2344 81.6936C10.2344 84.2717 12.3101 86.3617 14.8706 86.3617Z" fill="#87AD3B"/>
<path d="M98.1715 12.1489C96.6199 9.55237 94.4376 7.39617 91.8299 5.88328C89.2223 4.3704 86.2752 3.55062 83.266 3.50112V2.33408C83.266 1.71504 83.0218 1.12136 82.5871 0.683636C82.1523 0.245911 81.5627 0 80.9479 0C80.3331 0 79.7435 0.245911 79.3088 0.683636C78.874 1.12136 78.6298 1.71504 78.6298 2.33408V8.99788C78.6298 9.61691 78.874 10.2106 79.3088 10.6483C79.7435 11.086 80.3331 11.332 80.9479 11.332C81.5627 11.332 82.1523 11.086 82.5871 10.6483C83.0218 10.2106 83.266 9.61691 83.266 8.99788V8.16928C85.4766 8.2101 87.6403 8.81771 89.5527 9.9347C91.4652 11.0517 93.0632 12.6412 94.1959 14.553C95.6302 17.1392 96.3832 20.0519 96.3832 23.014C96.3832 25.9761 95.6302 28.8889 94.1959 31.4751L85.5725 47.8486C84.2281 50.4059 82.2168 52.5457 79.7549 54.0382C77.2931 55.5307 74.4738 56.3193 71.6002 56.3193C68.7265 56.3193 65.9072 55.5307 63.4454 54.0382C60.9835 52.5457 58.9722 50.4059 57.6277 47.8486L49.0392 31.5101C45.9213 25.5582 45.7822 18.8477 48.6914 14.0045C49.7562 12.2289 51.2572 10.7594 53.0497 9.73734C54.8422 8.71533 56.8659 8.1753 58.9259 8.16928V8.99788C58.9259 9.61691 59.1701 10.2106 59.6048 10.6483C60.0396 11.086 60.6292 11.332 61.244 11.332C61.8588 11.332 62.4484 11.086 62.8831 10.6483C63.3179 10.2106 63.5621 9.61691 63.5621 8.99788V2.33408C63.5621 1.71504 63.3179 1.12136 62.8831 0.683636C62.4484 0.245911 61.8588 0 61.244 0C60.6292 0 60.0396 0.245911 59.6048 0.683636C59.1701 1.12136 58.9259 1.71504 58.9259 2.33408V3.50112C56.0676 3.48952 53.2552 4.22554 50.7643 5.63712C48.2734 7.04869 46.1892 9.08743 44.7159 11.5537C40.9837 17.809 41.0649 26.2817 44.9361 33.7275L53.5363 50.066C55.4947 53.8604 58.5885 56.9387 62.3799 58.8655L69.3342 73.932V82.4047C69.3342 85.5742 68.0837 88.6138 65.8579 90.855C63.6321 93.0961 60.6133 94.3552 57.4655 94.3552C54.3177 94.3552 51.2988 93.0961 49.073 90.855C46.8472 88.6138 45.5968 85.5742 45.5968 82.4047V57.3834C45.4828 53.0536 43.6945 48.9397 40.6127 45.9179C37.531 42.896 33.3993 41.2051 29.0976 41.2051C24.796 41.2051 20.6643 42.896 17.5825 45.9179C14.5008 48.9397 12.7125 53.0536 12.5985 57.3834V66.9181C8.90155 67.5055 5.56055 69.475 3.24225 72.4335C0.923947 75.392 -0.201167 79.1218 0.0914429 82.8788C0.384053 86.6357 2.07287 90.1434 4.82085 92.7018C7.56884 95.2603 11.1739 96.6813 14.9166 96.6813C18.6593 96.6813 22.2643 95.2603 25.0123 92.7018C27.7603 90.1434 29.4491 86.6357 29.7417 82.8788C30.0344 79.1218 28.9092 75.392 26.5909 72.4335C24.2726 69.475 20.9316 67.5055 17.2347 66.9181V57.3834C17.3311 54.2801 18.6231 51.3363 20.8373 49.1755C23.0515 47.0146 26.0141 45.8063 29.0976 45.8063C32.1812 45.8063 35.1437 47.0146 37.3579 49.1755C39.5721 51.3363 40.8642 54.2801 40.9605 57.3834V82.3813C40.9605 86.7889 42.6995 91.0159 45.7947 94.1325C48.89 97.2491 53.0881 99 57.4655 99C61.8429 99 66.041 97.2491 69.1362 94.1325C72.2315 91.0159 73.9704 86.7889 73.9704 82.3813V73.9086L80.9247 58.8422C84.7195 56.9161 87.8172 53.8379 89.7799 50.0427L98.3685 33.7041C100.173 30.3954 101.103 26.6752 101.068 22.9006C101.034 19.1259 100.036 15.4236 98.1715 12.1489ZM25.1047 81.6928C25.1047 83.7309 24.5044 85.7233 23.3799 87.4179C22.2553 89.1126 20.6569 90.4334 18.7868 91.2133C16.9167 91.9933 14.8589 92.1974 12.8736 91.7998C10.8883 91.4021 9.0647 90.4207 7.63338 88.9795C6.20207 87.5383 5.22733 85.7022 4.83243 83.7032C4.43753 81.7042 4.64021 79.6322 5.41483 77.7493C6.18945 75.8663 7.50123 74.2569 9.18428 73.1245C10.8673 71.9922 12.846 71.3878 14.8702 71.3878C17.5836 71.3909 20.185 72.4776 22.1037 74.4095C24.0224 76.3414 25.1016 78.9607 25.1047 81.6928ZM71.6059 67.8167L68.3838 60.7444C70.5301 61.0869 72.7166 61.0869 74.8629 60.7444L71.6059 67.8167Z" fill="#87AD3B"/>
</g>
<defs>
<clipPath id="clip0">
<rect width="101" height="99" fill="white"/>
</clipPath>
</defs>
</svg>
