<svg width="97" height="97" viewBox="0 0 97 97" fill="none" xmlns="http://www.w3.org/2000/svg">
<g clip-path="url(#clip0)">
<path d="M10.9903 39.9417C14.7575 32.2359 20.766 27.2983 27.9096 26.0388C32.6421 25.2037 38.5301 25.5538 44.488 27.0242C44.9209 27.131 45.358 27.2184 45.7977 27.29C44.5538 23.2035 41.0673 15.0085 31.9428 7.95345C31.0306 7.24812 30.8629 5.93673 31.5683 5.02451C32.274 4.11229 33.5848 3.94482 34.4972 4.64996C38.7054 7.90363 41.827 11.3761 44.1394 14.6584C44.6985 11.5517 45.9616 7.83391 48.7547 5.04042C54.4366 -0.641276 63.9458 0.00627497 64.348 0.0367769C65.3771 0.114453 66.1952 0.932511 66.2729 1.96162C66.3034 2.36383 66.9507 11.8729 61.269 17.5548C57.439 21.3847 51.8705 22.3384 48.524 22.544C49.3644 24.548 49.8742 26.234 50.175 27.4249C50.9618 27.3464 51.7433 27.2138 52.5117 27.0242C58.4697 25.554 64.3575 25.2043 69.0902 26.0388C76.2337 27.2983 82.2424 32.2357 86.0095 39.9417C89.6679 47.4256 90.7781 56.6785 89.1351 65.9962C87.4922 75.3141 83.2844 83.6294 77.2869 89.4105C72.1336 94.378 66.173 97 60.1899 97C59.0032 97 57.8155 96.897 56.6331 96.6886C56.0799 96.591 55.5062 96.4614 54.9278 96.3032C50.7222 95.1517 46.2765 95.1515 42.0714 96.3034C41.4933 96.4614 40.9199 96.5912 40.3671 96.6884C39.1843 96.897 37.997 97 36.8099 97C30.8273 96.9996 24.8658 94.3776 19.7129 89.4107C13.7154 83.6298 9.50761 75.3143 7.86467 65.9964C6.22173 56.6785 7.33154 47.4256 10.9903 39.9417ZM58.316 14.6017C61.3173 11.6006 61.981 6.84572 62.1049 4.20456C59.4622 4.32884 54.7081 4.9923 51.7075 7.99324C48.7064 10.9944 48.0426 15.7493 47.9187 18.3904C50.5613 18.2663 55.3155 17.6027 58.316 14.6017ZM11.9767 65.2714C15.0118 82.482 27.4236 94.7308 39.6424 92.5757C40.069 92.5007 40.5156 92.3995 40.9688 92.2755C45.8953 90.926 51.1037 90.9262 56.0307 92.2753C56.4844 92.3995 56.9309 92.5005 57.3578 92.5757C69.5771 94.73 81.988 82.4817 85.023 65.2712C86.5138 56.8164 85.5319 48.472 82.2582 41.7758C79.093 35.3012 74.159 31.173 68.3652 30.1511C66.9424 29.9003 65.3643 29.7768 63.6876 29.7768C60.5175 29.7768 56.9963 30.2187 53.5123 31.0783C51.8828 31.4805 50.2072 31.6823 48.5315 31.6849C48.5202 31.6851 48.5088 31.6872 48.4974 31.6872C48.4766 31.6872 48.4559 31.6849 48.4353 31.6844C46.7706 31.6794 45.1066 31.4779 43.4879 31.0785C38.1609 29.7639 32.7472 29.4259 28.6348 30.1513C22.8411 31.1732 17.9072 35.3014 14.7418 41.776C11.4683 48.4722 10.4861 56.8166 11.9767 65.2714Z" fill="#87AD3B"/>
</g>
<defs>
<clipPath id="clip0">
<rect width="97" height="97" fill="white" transform="matrix(-1 0 0 1 97 0)"/>
</clipPath>
</defs>
</svg>
