<svg width="95" height="95" viewBox="0 0 95 95" fill="none" xmlns="http://www.w3.org/2000/svg">
<g clip-path="url(#clip0)">
<path d="M57.0429 22.1061C57.0183 22.0816 56.9938 22.0571 56.9693 22.0571C49.8604 16.9092 48.316 4.922 48.2915 4.7504C48.1689 3.6718 47.1884 2.91188 46.1098 3.03445C45.0312 3.15702 44.2712 4.13756 44.3938 5.21616C44.4674 5.75546 46.0607 18.5026 54.1257 24.8271C53.8806 25.7096 52.9491 27.4255 52.6059 28.0384C52.3362 28.5287 52.1156 28.9209 51.9685 29.2396C51.944 29.2886 51.9195 29.3376 51.9195 29.3621C51.5273 30.4652 51.1596 31.5684 50.7919 32.647C49.4926 36.5446 48.267 40.1972 46.0362 43.4575C43.1436 47.5513 39.7852 51.1548 37.0642 53.0668C35.2502 54.317 33.2401 55.224 31.1319 56.1556C29.1953 57.038 27.1607 57.9205 25.2486 59.1462C24.2191 59.8081 23.2385 60.5435 22.307 61.3279C20.444 62.8478 18.679 64.2696 16.4973 64.4902C16.1296 64.5147 15.7864 64.5637 15.4432 64.5883C13.2124 64.7844 10.8836 64.9805 8.40775 66.4268C-0.270088 71.5501 -0.0739777 83.3412 0.0240769 89.0039C0.0485906 90.0825 0.906569 90.9405 1.98517 90.9405H2.00968C3.08828 90.9159 3.94626 90.0334 3.94626 88.9548V88.9303C3.77467 81.0124 4.46105 73.2416 10.3443 69.7852C12.0358 68.8046 13.6782 68.6575 15.7373 68.4859C16.105 68.4614 16.4727 68.4124 16.8405 68.3879C20.1743 68.0692 22.5766 66.1081 24.7339 64.3921C25.5428 63.7058 26.4008 63.0684 27.3078 62.4801C28.9992 61.4015 30.7887 60.5925 32.7008 59.7591C34.8825 58.7785 37.1623 57.7735 39.2705 56.3026C43.7319 53.1649 47.7032 47.8699 49.223 45.7127C51.7724 41.9867 53.1697 37.8684 54.4934 33.8972C54.8366 32.8676 55.2043 31.8135 55.572 30.7594C55.6701 30.5878 55.8417 30.2446 56.0378 29.9259C57.4351 27.401 59.3471 23.9446 57.0429 22.1061Z" fill="#87AD3B"/>
<path d="M90.4793 28.48C86.4346 20.9789 79.963 16.4438 71.7754 15.3652C71.7509 15.3652 71.7264 15.3652 71.6773 15.3652C71.1871 15.3162 70.7213 15.3162 70.2801 15.3162C69.3731 15.2917 68.5396 15.2917 68.0493 14.9975C68.0248 14.9975 68.0248 14.973 68.0003 14.973C66.4314 14.0905 60.254 7.00606 59.9108 1.98076C59.8372 0.902161 58.9057 0.09321 57.8271 0.166751C56.7485 0.240292 55.9396 1.17181 56.0131 2.25041C56.4298 8.77105 63.3427 16.836 66.0637 18.4049C67.4365 19.2139 68.9073 19.2384 70.231 19.2629C70.6232 19.2629 70.9909 19.2629 71.3341 19.3119C78.296 20.2189 83.5665 23.9695 87.0229 30.4166C89.891 35.8096 91.3373 42.845 91.0676 50.2727C90.3077 69.0011 81.0415 82.5817 64.9606 88.5385C60.401 90.2545 44.5407 93.7109 31.7691 87.0922C31.7691 87.0922 31.7446 87.0922 31.7446 87.0677C29.3913 85.891 27.2341 83.9299 24.8808 80.8657L24.8562 80.8167C23.0177 78.3408 20.5173 74.9334 15.5901 76.87C10.1235 78.9292 10.1235 86.8471 10.1235 90.2054C10.1235 91.284 11.006 92.1665 12.0846 92.1665C13.1632 92.1665 14.0457 91.284 14.0457 90.2054C14.0457 87.8521 14.0457 81.6502 16.9874 80.5225H17.0119C18.9485 79.7626 19.6839 80.3755 21.7185 83.121L21.7675 83.17L21.792 83.1945C24.4885 86.749 27.1115 89.0778 30.0041 90.5241C35.5442 93.3922 42.0158 94.8385 49.2228 94.8385C50.2279 94.8385 51.2329 94.814 52.2625 94.765C58.8812 94.3973 64.2497 92.951 66.3334 92.142C75.2073 88.8572 82.1937 83.4642 87.1455 76.0856C91.9256 68.9521 94.5731 60.2743 94.9653 50.3462C95.2595 42.2322 93.6661 34.4859 90.4793 28.48Z" fill="#87AD3B"/>
<path d="M84.5963 47.1841C84.2776 46.4487 83.1745 44.316 81.0418 44.0218C81.0173 44.0218 80.9927 44.0218 80.9682 44.0218C79.9141 43.9238 77.8795 44.1934 76.139 47.2576C72.0453 53.5576 65.7207 56.965 61.1122 58.73C53.8071 61.5736 46.404 62.0639 38.5596 62.5541C36.5495 62.6767 34.1961 62.9219 31.9409 63.8289C28.3864 65.1771 25.886 67.8736 25.1016 71.232C24.3171 74.5904 25.3222 78.1203 27.8961 80.9394C29.6366 82.8024 32.1125 84.2978 35.4463 85.5234C39.4911 86.9943 43.781 87.7542 48.0954 87.7297C51.2331 87.7297 54.3709 87.3375 57.4351 86.602C64.348 84.9351 70.9912 81.2336 76.6293 75.8896C80.8947 71.7713 83.6892 67.5549 85.1846 62.9709C87.0966 57.6514 86.876 51.9152 84.5963 47.1841ZM81.4585 61.6717C81.4585 61.6962 81.434 61.7207 81.434 61.7207C80.1348 65.6919 77.6834 69.3935 73.8838 73.046C68.7604 77.9242 62.7301 81.2826 56.4791 82.8024C49.7378 84.4203 42.923 84.1017 36.7701 81.8464C34.0736 80.8413 32.0389 79.6402 30.7642 78.2674C29.0973 76.4534 28.4109 74.2227 28.9012 72.139C29.3915 70.0553 31.0094 68.3639 33.3382 67.4814C33.3627 67.4814 33.3627 67.4814 33.3872 67.4569C35.1522 66.746 37.1133 66.5499 38.8047 66.4518C46.5756 65.9615 54.6405 65.4468 62.4849 62.3826C71.8246 58.8281 76.8499 53.337 79.4239 49.3413C79.4484 49.3168 79.4729 49.2677 79.4974 49.2187C79.718 48.753 80.0612 48.3362 80.4534 47.993C80.6741 48.2382 80.8457 48.5078 80.9682 48.802C80.9682 48.8265 80.9927 48.851 81.0173 48.8755C82.8558 52.6751 83.0274 57.3327 81.4585 61.6717Z" fill="#87AD3B"/>
</g>
<defs>
<clipPath id="clip0">
<rect width="95" height="95" fill="white"/>
</clipPath>
</defs>
</svg>
