<svg width="108" height="106" viewBox="0 0 108 106" fill="none" xmlns="http://www.w3.org/2000/svg">
<g clip-path="url(#clip0)">
<path d="M106.239 45.553V13.9625C106.197 11.1435 105.314 8.40198 103.702 6.0921C102.091 3.78222 99.8261 2.01018 97.2004 1.00495C90.55 -1.58843 83.5248 1.25865 79.1786 4.76349C73.2119 9.61199 70.5611 16.9787 71.0762 27.3147C71.3352 31.8133 72.0157 36.2774 73.1088 40.6481L73.1744 40.9488C73.6709 43.1475 74.0174 44.6415 74.3734 45.6469C73.8721 46.1357 73.473 46.7198 73.1996 47.3652C72.9262 48.0106 72.7839 48.7042 72.781 49.4054V58.238C72.7711 59.2624 73.0579 60.2677 73.6066 61.1317C74.1553 61.9958 74.9424 62.6814 75.8721 63.1053C75.8721 64.7779 75.9751 66.4316 76.0781 68.0384C76.1906 69.8237 76.3029 71.6654 76.3029 73.4601C76.3029 73.9286 76.4885 74.3779 76.8187 74.7092C77.149 75.0405 77.5969 75.2266 78.0639 75.2266C78.531 75.2266 78.9789 75.0405 79.3091 74.7092C79.6394 74.3779 79.8249 73.9286 79.8249 73.4601C79.8249 71.5808 79.7031 69.6545 79.5907 67.8223C79.5064 66.441 79.4315 65.0034 79.4034 63.6127H100.357L100.516 65.3792C101.329 71.4563 101.098 77.6281 99.8325 83.6269C97.547 92.8071 92.4514 98.661 84.6769 100.963C76.1437 103.519 67.0485 102.185 58.253 100.888L56.8761 100.691C54.3751 100.324 51.1529 99.9389 47.8089 99.5349C42.9944 98.9523 38.0206 98.3509 34.4892 97.7496C33.3465 97.5522 32.2037 97.3361 31.0422 97.12C26.3265 96.0581 21.5066 95.5317 16.6735 95.5508H12.5989C12.2745 95.5547 11.9553 95.4691 11.6762 95.3034C11.397 95.1377 11.1686 94.8983 11.0159 94.6112L6.04207 85.1303C5.89228 84.841 5.83963 84.511 5.89195 84.1893C5.94427 83.8676 6.09877 83.5715 6.33244 83.345L8.43062 81.1932L13.929 89.3868C14.06 89.5799 14.2276 89.7453 14.4223 89.8734C14.617 90.0015 14.835 90.0899 15.0637 90.1336C15.2925 90.1772 15.5276 90.1752 15.7555 90.1277C15.9835 90.0802 16.1999 89.9881 16.3925 89.8567C16.585 89.7252 16.7498 89.5571 16.8775 89.3618C17.0052 89.1665 17.0933 88.9478 17.1368 88.7183C17.1803 88.4889 17.1783 88.253 17.131 88.0243C17.0836 87.7956 16.9918 87.5785 16.8608 87.3854L11.1189 78.8442L11.0159 78.675C10.7442 78.1958 10.4351 77.679 10.1635 77.1528C9.32047 75.5836 9.1144 74.5782 9.46097 73.7983C9.63559 73.4181 9.91186 73.0938 10.2591 72.8616C10.6063 72.6294 11.011 72.4983 11.428 72.4828C11.888 72.4618 12.3474 72.5342 12.7788 72.6957C13.2101 72.8572 13.6045 73.1044 13.9383 73.4225C15.615 74.9447 17.2729 76.4951 18.9309 78.0455C21.3944 80.3382 23.9234 82.7436 26.5087 84.9706C30.9111 88.8325 37.2993 89.2647 43.4533 89.3117C49.5829 89.4214 55.714 89.2113 61.8218 88.6821C62.2817 88.6437 62.708 88.4248 63.0079 88.0729C63.3078 87.721 63.4572 87.2646 63.4235 86.8028C63.4093 86.5718 63.3493 86.346 63.247 86.1386C63.1447 85.9311 63.0021 85.7463 62.8276 85.5949C62.6531 85.4435 62.4502 85.3286 62.2308 85.2568C62.0115 85.1851 61.78 85.1581 61.5501 85.1773C55.561 85.7019 49.5486 85.912 43.5376 85.8068C38.0299 85.7317 32.363 85.4028 28.8504 82.3678C26.3213 80.169 23.811 77.8106 21.3569 75.5366C19.6709 73.9487 18.0036 72.3513 16.3082 70.8479C15.6141 70.1888 14.7911 69.6814 13.8914 69.3579C12.9917 69.0344 12.0349 68.9018 11.0814 68.9686C10.0457 69.0397 9.04879 69.392 8.19739 69.9879C7.34599 70.5838 6.67218 71.4007 6.24814 72.3513C5.89192 73.2613 5.74239 74.2395 5.81045 75.2147C5.8785 76.19 6.16242 77.1378 6.64155 77.9891L3.83148 80.808C3.06715 81.564 2.56393 82.5454 2.3954 83.6088C2.22687 84.6722 2.40186 85.7618 2.8948 86.7183L7.85924 96.2556C8.31062 97.1082 8.98521 97.8212 9.81044 98.3179C10.6357 98.8146 11.5803 99.0762 12.5427 99.0745H16.6828C21.2766 99.0749 25.8565 99.5822 30.3397 100.587C31.5106 100.803 32.6721 101.019 33.8336 101.217C37.4492 101.846 42.4698 102.457 47.3312 103.03C50.6377 103.434 53.8318 103.82 56.3047 104.177L57.6816 104.374C62.9883 105.286 68.354 105.81 73.7364 105.943C77.7553 105.989 81.7594 105.447 85.623 104.336C94.5496 101.668 100.61 94.7991 103.186 84.4726C104.564 78.0957 104.83 71.5277 103.973 65.0597L103.832 63.4718C105.004 63.2092 106.051 62.5543 106.802 61.615C107.552 60.6756 107.962 59.5078 107.963 58.3038V49.4712C107.96 48.7308 107.801 47.9993 107.498 47.3242C107.194 46.6492 106.753 46.0457 106.202 45.553H106.239ZM77.5956 44.1623C77.4082 43.4952 77.0991 42.283 76.6589 40.1782L76.584 39.8212C75.5372 35.6643 74.8879 31.4167 74.645 27.1361C74.1767 17.8996 76.3311 11.6698 81.436 7.52601C84.8549 4.70711 90.7092 2.23587 95.964 4.28427C97.9285 5.03211 99.6251 6.35253 100.835 8.07562C102.046 9.79872 102.714 11.8457 102.755 13.9531V44.1623H77.5956ZM104.478 58.2568C104.478 58.7253 104.293 59.1746 103.963 59.5059C103.632 59.8372 103.185 60.0233 102.718 60.0233H78.0639C77.5969 60.0233 77.149 59.8372 76.8187 59.5059C76.4885 59.1746 76.3029 58.7253 76.3029 58.2568V49.4242C76.3029 48.9557 76.4885 48.5064 76.8187 48.1751C77.149 47.8438 77.5969 47.6577 78.0639 47.6577H102.718C103.185 47.6577 103.632 47.8438 103.963 48.1751C104.293 48.5064 104.478 48.9557 104.478 49.4242V58.2568Z" fill="#87AD3B"/>
<path d="M75.8719 92.3368C75.5415 92.0053 75.0933 91.8191 74.6261 91.8191C74.1588 91.8191 73.7107 92.0053 73.3803 92.3368C73.0499 92.6682 72.8643 93.1178 72.8643 93.5865C72.8643 94.0552 73.0499 94.5048 73.3803 94.8362C74.8708 96.3315 76.8924 97.1715 79.0004 97.1715C81.1084 97.1715 83.13 96.3315 84.6205 94.8362C86.1111 93.341 86.9485 91.313 86.9485 89.1984C86.9485 87.0838 86.1111 85.0559 84.6205 83.5606C84.4569 83.3965 84.2627 83.2663 84.049 83.1775C83.8352 83.0887 83.6061 83.043 83.3747 83.043C83.1434 83.043 82.9143 83.0887 82.7005 83.1775C82.4868 83.2663 82.2925 83.3965 82.1289 83.5606C81.9653 83.7247 81.8356 83.9196 81.747 84.134C81.6585 84.3484 81.6129 84.5782 81.6129 84.8103C81.6129 85.0424 81.6585 85.2722 81.747 85.4867C81.8356 85.7011 81.9653 85.8959 82.1289 86.06C82.5398 86.4722 82.8657 86.9615 83.088 87.4999C83.3104 88.0384 83.4248 88.6156 83.4248 89.1984C83.4248 89.7813 83.3104 90.3584 83.088 90.8969C82.8657 91.4354 82.5398 91.9247 82.1289 92.3368C81.7181 92.7489 81.2304 93.0759 80.6936 93.2989C80.1568 93.5219 79.5814 93.6367 79.0004 93.6367C78.4194 93.6367 77.844 93.5219 77.3073 93.2989C76.7705 93.0759 76.2827 92.7489 75.8719 92.3368Z" fill="#87AD3B"/>
<path d="M30.5456 21.5547L27.0986 25.0125L19.6707 17.5894L19.7831 17.4861C20.4009 16.8613 20.7475 16.017 20.7475 15.137C20.7475 14.257 20.4009 13.4127 19.7831 12.7879L18.0034 11.0026C17.3806 10.3829 16.5389 10.0352 15.6617 10.0352C14.7845 10.0352 13.9428 10.3829 13.32 11.0026L0.936968 23.4057C0.628831 23.7139 0.384347 24.08 0.21753 24.4831C0.0507132 24.8862 -0.0351563 25.3184 -0.0351562 25.7548C-0.0351563 26.1913 0.0507132 26.6234 0.21753 27.0266C0.384347 27.4297 0.628831 27.7958 0.936968 28.1039L2.70731 29.8798C3.33011 30.4995 4.1718 30.8472 5.04902 30.8472C5.92625 30.8472 6.76793 30.4995 7.39074 29.8798L7.49378 29.7765L14.9873 37.209L11.5403 40.6668C10.9225 41.2916 10.5759 42.1359 10.5759 43.0159C10.5759 43.8959 10.9225 44.7402 11.5403 45.365L13.32 47.1409C13.6271 47.45 13.9921 47.6952 14.3939 47.8626C14.7958 48.0299 15.2266 48.1161 15.6617 48.1161C16.0968 48.1161 16.5276 48.0299 16.9294 47.8626C17.3313 47.6952 17.6962 47.45 18.0034 47.1409L20.0079 45.1019C20.148 45.3056 20.3046 45.4973 20.4763 45.675L47.4341 72.7177C48.1484 73.4303 49.1149 73.8304 50.1224 73.8304C51.1299 73.8304 52.0964 73.4303 52.8107 72.7177L53.2135 72.3136L58.4121 72.9432C58.6388 72.9705 58.8687 72.9457 59.0846 72.8709C59.3004 72.796 59.4964 72.6729 59.6579 72.511L59.9482 72.2573L77.2863 89.6875C77.5749 89.935 77.9459 90.0643 78.3252 90.0495C78.7046 90.0347 79.0645 89.8769 79.333 89.6076C79.6014 89.3383 79.7588 88.9773 79.7735 88.5967C79.7883 88.2161 79.6594 87.8439 79.4126 87.5545L62.0371 70.1243L62.2993 69.8612C62.4685 69.6998 62.598 69.5013 62.6776 69.2811C62.7573 69.061 62.7849 68.8254 62.7583 68.5927L62.1307 63.3777L62.5241 62.9831C62.8839 62.6328 63.1699 62.2136 63.3651 61.7503C63.5604 61.2871 63.6611 60.7893 63.6611 60.2864C63.6611 59.7834 63.5604 59.2856 63.3651 58.8223C63.1699 58.3591 62.8839 57.9399 62.5241 57.5896L35.5944 30.5657C35.4184 30.3885 35.2236 30.2309 35.0136 30.0959L37.065 28.0381C37.6828 27.4134 38.0294 26.569 38.0294 25.6891C38.0294 24.8091 37.6828 23.9647 37.065 23.34L35.2946 21.5641C34.985 21.2478 34.6159 20.9964 34.2086 20.8246C33.8013 20.6527 33.364 20.5637 32.9221 20.5629C32.4802 20.562 32.0426 20.6492 31.6346 20.8195C31.2267 20.9897 30.8565 21.2396 30.5456 21.5547ZM4.87105 27.7562L3.10071 25.9803C3.07154 25.9515 3.04838 25.9171 3.03257 25.8792C3.01676 25.8413 3.00862 25.8006 3.00862 25.7595C3.00862 25.7184 3.01676 25.6778 3.03257 25.6398C3.04838 25.6019 3.07154 25.5676 3.10071 25.5387L15.465 13.1543C15.494 13.1221 15.5294 13.0964 15.5689 13.0787C15.6084 13.0611 15.6512 13.052 15.6945 13.052C15.7377 13.052 15.7805 13.0611 15.82 13.0787C15.8596 13.0964 15.895 13.1221 15.924 13.1543L17.7037 14.9396C17.7328 14.9685 17.756 15.0029 17.7718 15.0408C17.7876 15.0787 17.7958 15.1194 17.7958 15.1605C17.7958 15.2016 17.7876 15.2422 17.7718 15.2801C17.756 15.3181 17.7328 15.3524 17.7037 15.3813L5.3113 27.7562C5.28254 27.7855 5.24827 27.8087 5.21048 27.8246C5.17269 27.8405 5.13214 27.8486 5.09117 27.8486C5.05021 27.8486 5.00966 27.8405 4.97187 27.8246C4.93408 27.8087 4.89981 27.7855 4.87105 27.7562ZM9.95726 27.9442L17.8629 20.0137L24.9724 27.1455L17.0667 35.076L9.95726 27.9442ZM59.6579 68.245L58.0749 69.8612L55.9392 69.6075L59.4237 66.1121L59.6579 68.245ZM60.3698 60.8595L59.4331 61.7992L51.5743 69.6827L50.6376 70.6223C50.4883 70.7715 50.2863 70.8553 50.0756 70.8553C49.8649 70.8553 49.6628 70.7715 49.5136 70.6223L26.0776 46.9811L36.887 36.1754L41.0459 40.4037L38.4044 43.0441C38.1576 43.3335 38.0288 43.7057 38.0435 44.0863C38.0583 44.4668 38.2156 44.8278 38.4841 45.0972C38.7526 45.3665 39.1124 45.5243 39.4918 45.5391C39.8712 45.5539 40.2422 45.4246 40.5307 45.177L43.2097 42.4897L46.4038 45.6844L43.7248 48.3718C43.478 48.6612 43.3491 49.0334 43.3639 49.414C43.3787 49.7946 43.536 50.1556 43.8045 50.4249C44.0729 50.6942 44.4328 50.852 44.8122 50.8668C45.1916 50.8816 45.5626 50.7523 45.8511 50.5048L48.53 47.8174L51.7241 51.0216L49.0452 53.7089C48.905 53.8486 48.7938 54.0148 48.7178 54.1978C48.6419 54.3809 48.6028 54.5772 48.6028 54.7754C48.6028 54.9736 48.6419 55.1699 48.7178 55.353C48.7938 55.536 48.905 55.7022 49.0452 55.8419C49.3289 56.1214 49.7107 56.2779 50.1084 56.2779C50.506 56.2779 50.8878 56.1214 51.1715 55.8419L53.8504 53.1545L57.0352 56.3493L54.3281 59.0366C54.0495 59.3213 53.8934 59.7042 53.8934 60.1031C53.8934 60.502 54.0495 60.885 54.3281 61.1696C54.4674 61.3102 54.6331 61.4218 54.8155 61.498C54.998 61.5742 55.1936 61.6134 55.3913 61.6134C55.5889 61.6134 55.7846 61.5742 55.967 61.498C56.1495 61.4218 56.3151 61.3102 56.4544 61.1696L59.1333 58.4823L60.3791 59.7414C60.4519 59.8153 60.5093 59.9029 60.5483 59.9992C60.5872 60.0955 60.6067 60.1985 60.6059 60.3024C60.605 60.4063 60.5837 60.509 60.5432 60.6046C60.5027 60.7002 60.4437 60.7868 60.3698 60.8595ZM33.4213 32.6705L34.7607 34.0142L23.9514 44.8858L22.6025 43.5421C22.4981 43.4231 22.4309 43.2759 22.4092 43.1188C22.3876 42.9618 22.4125 42.8018 22.4808 42.6588L32.5408 32.539C32.6866 32.474 32.8485 32.4546 33.0055 32.483C33.1625 32.5115 33.3074 32.5867 33.4213 32.6987V32.6705ZM34.8919 25.4354C34.921 25.4642 34.9442 25.4986 34.96 25.5365C34.9758 25.5744 34.984 25.6151 34.984 25.6562C34.984 25.6973 34.9758 25.7379 34.96 25.7758C34.9442 25.8138 34.921 25.8481 34.8919 25.877L30.6112 30.1711C30.454 30.28 30.3067 30.4027 30.171 30.5376L20.4763 40.2816C20.3474 40.4235 20.2285 40.5742 20.1203 40.7326L15.8397 45.0173C15.8109 45.0466 15.7766 45.0698 15.7388 45.0857C15.7011 45.1015 15.6605 45.1097 15.6195 45.1097C15.5786 45.1097 15.538 45.1015 15.5002 45.0857C15.4624 45.0698 15.4282 45.0466 15.3994 45.0173L13.6197 43.2226C13.5905 43.1938 13.5674 43.1594 13.5516 43.1215C13.5358 43.0836 13.5276 43.0429 13.5276 43.0018C13.5276 42.9607 13.5358 42.92 13.5516 42.8821C13.5674 42.8442 13.5905 42.8098 13.6197 42.781L17.0667 39.3231L29.2436 27.1079L32.6907 23.65C32.7504 23.5904 32.8312 23.5569 32.9155 23.5569C32.9997 23.5569 33.0806 23.5904 33.1403 23.65L34.8919 25.4354Z" fill="#87AD3B"/>
</g>
<defs>
<clipPath id="clip0">
<rect width="108" height="106" fill="white"/>
</clipPath>
</defs>
</svg>
