<svg width="106" height="106" viewBox="0 0 106 106" fill="none" xmlns="http://www.w3.org/2000/svg">
<g clip-path="url(#clip0)">
<path d="M51.2875 64.9376L47.7543 79.0705C47.6232 79.5984 47.7423 80.1574 48.0769 80.5861C48.4116 81.014 48.9249 81.265 49.4683 81.265C49.6132 81.265 49.7573 81.2469 49.8979 81.2124L56.9643 79.4458C57.9037 79.2025 58.4722 78.2476 58.2358 77.3056C58.0003 76.3637 57.0489 75.7892 56.1052 76.0178L51.8974 77.0779L54.7155 65.8002C54.8846 65.1818 54.706 64.521 54.2489 64.0716C53.7908 63.623 53.1266 63.4574 52.5116 63.6386C51.8965 63.8197 51.429 64.32 51.2875 64.9454V64.9376Z" fill="#87AD3B"/>
<path d="M44.6019 60.1209C43.6565 59.8811 42.6955 60.4521 42.4549 61.3976C42.4411 61.4545 40.9462 67.1304 37.1024 67.1304C33.2587 67.1304 31.7638 61.4545 31.75 61.3976C31.5119 60.4513 30.5518 59.8768 29.6056 60.114C28.6593 60.3521 28.0848 61.3113 28.322 62.2584C28.4091 62.6026 30.4992 70.6636 37.1024 70.6636C43.7057 70.6636 45.7957 62.6026 45.8829 62.2584C46.1166 61.3147 45.5439 60.359 44.6019 60.1209Z" fill="#87AD3B"/>
<path d="M68.9013 70.6636C75.5045 70.6636 77.5946 62.6026 77.6817 62.2584C77.9189 61.3113 77.3444 60.3521 76.3981 60.114C75.4519 59.8768 74.4918 60.4513 74.2537 61.3976C74.2399 61.4545 72.745 67.1304 68.9013 67.1304C65.0575 67.1304 63.5626 61.4545 63.5488 61.3976C63.3107 60.4513 62.3507 59.8768 61.4044 60.114C60.4581 60.3521 59.8836 61.3113 60.1208 62.2584C60.208 62.6026 62.298 70.6636 68.9013 70.6636Z" fill="#87AD3B"/>
<path d="M58.3013 14.1338C58.3013 11.207 55.9283 8.83398 53.0015 8.83398C50.0747 8.83398 47.7017 11.207 47.7017 14.1338C47.7017 17.0606 50.0747 19.4336 53.0015 19.4336C55.9283 19.4336 58.3013 17.0606 58.3013 14.1338ZM51.2349 14.1338C51.2349 13.1582 52.0259 12.3672 53.0015 12.3672C53.9771 12.3672 54.7681 13.1582 54.7681 14.1338C54.7681 15.1094 53.9771 15.9004 53.0015 15.9004C52.0259 15.9004 51.2349 15.1094 51.2349 14.1338Z" fill="#87AD3B"/>
<path d="M90.1004 51.4456V40.632C90.1004 35.735 78.934 33.5354 68.9011 32.546V5.29983C68.9011 2.37302 66.5281 0 63.6013 0H42.402C39.4752 0 37.1022 2.37302 37.1022 5.29983V32.546C27.0692 33.5354 15.9029 35.735 15.9029 40.632V51.4456C11.8771 52.4315 8.83643 56.7083 8.83643 61.8313C8.83643 67.0216 11.9634 71.3424 16.0797 72.2541C17.8049 91.3634 33.8226 106 53.0085 106C72.1954 106 88.2131 91.3634 89.9383 72.2541C94.0399 71.3424 97.1669 67.0216 97.1669 61.8313C97.1669 56.7083 94.1262 52.4315 90.1004 51.4456ZM15.9029 68.463C13.5764 67.088 12.2126 64.5287 12.3696 61.8313C12.2126 59.134 13.5764 56.5746 15.9029 55.1996V68.463ZM40.6354 5.29983C40.6354 4.32422 41.4264 3.53322 42.402 3.53322H63.6013C64.5769 3.53322 65.3679 4.32422 65.3679 5.29983V37.7733L53.7909 31.9844C53.2941 31.736 52.7092 31.736 52.2124 31.9844L40.6354 37.7733V5.29983ZM86.5672 68.8978C86.5672 87.4359 71.5398 102.463 53.0016 102.463C34.4643 102.463 19.4361 87.4359 19.4361 68.8978V44.8044C28.4615 49.396 51.7811 49.465 53.0016 49.465C54.2222 49.465 77.5418 49.396 86.5672 44.8044V68.8978ZM53.0016 45.9318C32.156 45.9318 20.2788 42.5013 19.4361 40.7329V40.6958C19.8898 39.69 24.7816 37.3584 37.1022 36.1025V40.632C37.1022 41.2445 37.4187 41.8129 37.9398 42.1355C38.4599 42.4573 39.1103 42.4866 39.6581 42.2132L53.0016 35.5409L66.3452 42.2218C66.8938 42.4961 67.546 42.4659 68.0678 42.1416C68.5889 41.8172 68.9046 41.2462 68.9011 40.632V36.099C81.2993 37.3671 86.1782 39.7133 86.5793 40.5475C85.7986 42.4797 73.9111 45.9318 53.0016 45.9318ZM90.1004 68.463V55.1996C92.4269 56.5746 93.7906 59.134 93.6336 61.8313C93.7906 64.5287 92.4269 67.088 90.1004 68.463Z" fill="#87AD3B"/>
</g>
<defs>
<clipPath id="clip0">
<rect width="106" height="106" fill="white"/>
</clipPath>
</defs>
</svg>
