<svg width="107" height="107" viewBox="0 0 107 107" fill="none" xmlns="http://www.w3.org/2000/svg">
<path d="M45.8441 78.0983C45.1478 77.4021 44.0189 77.4021 43.3225 78.0983C43.1549 78.2677 26.2346 94.7832 4.50112 81.4064C3.66891 80.9535 2.62787 81.2305 2.13069 82.037C1.6335 82.8435 1.85375 83.898 2.63219 84.4381C8.32924 88.1171 14.9487 90.1143 21.7299 90.2C30.6581 90.0019 39.2172 86.599 45.8441 80.6128C46.5356 79.9172 46.5356 78.7939 45.8441 78.0983Z" fill="#87AD3B"/>
<path d="M38.4361 97.0953C38.2328 97.1969 18.033 107.068 4.82741 93.8639C4.12767 93.1881 3.01539 93.1977 2.3275 93.8856C1.63961 94.5735 1.62995 95.6858 2.30578 96.3855C7.59516 101.623 14.795 104.473 22.2363 104.273C28.3785 104.18 34.4356 102.822 40.0304 100.286C40.6055 100.004 40.9853 99.4353 41.0255 98.7961C41.0657 98.157 40.76 97.5453 40.2248 97.1937C39.6895 96.8421 39.0068 96.8045 38.4361 97.0953Z" fill="#87AD3B"/>
<path d="M104.368 84.4448C105.146 83.9047 105.366 82.8502 104.869 82.0437C104.372 81.2372 103.331 80.9603 102.499 81.4131C90.3609 89.4652 74.2754 88.0939 63.6756 78.1033C62.9754 77.4279 61.8631 77.4383 61.1757 78.1267C60.4883 78.8151 60.4794 79.9274 61.1558 80.6267C67.7823 86.6137 76.3417 90.0167 85.27 90.2139C92.0519 90.126 98.6714 88.1264 104.368 84.4448Z" fill="#87AD3B"/>
<path d="M66.9696 100.286C72.5642 102.822 78.6214 104.18 84.7636 104.273C92.205 104.473 99.4048 101.623 104.694 96.3855C105.37 95.6858 105.36 94.5735 104.672 93.8856C103.985 93.1977 102.872 93.1881 102.173 93.8639C89.0008 107.034 68.7671 97.1934 68.5621 97.0953C67.6853 96.682 66.639 97.0447 66.2062 97.912C65.7733 98.7792 66.1123 99.8334 66.9696 100.286Z" fill="#87AD3B"/>
<path d="M49.9333 2.67578H28.5333C27.6621 2.67604 26.9187 3.30565 26.7749 4.16486L25.5016 11.7708C25.2365 13.3649 24.438 14.8217 23.2368 15.9028C13.4766 24.6411 13.1859 25.2278 12.9987 25.6041L0.868435 48.2239C-0.231021 50.1758 -0.251956 52.5554 0.812987 54.5264C1.87793 56.4974 3.87976 57.784 6.115 57.9342L4.34058 61.2369C3.1648 63.2371 3.14426 65.7123 4.28671 67.7317C5.42915 69.7511 7.56134 71.0085 9.8814 71.031C9.29568 72.9674 9.65107 75.0664 10.8416 76.7021C12.0321 78.3378 13.9202 79.3212 15.943 79.3591C18.257 79.3823 20.3968 78.1329 21.5141 76.1063L21.7227 75.7764C22.8763 77.7732 25.0233 78.986 27.329 78.943C29.6347 78.8999 31.735 77.608 32.8133 75.5695L42.3898 57.8521L42.479 64.6163C42.4913 67.2251 44.0905 69.5637 46.5172 70.5214C48.9439 71.4791 51.7093 70.8631 53.5 68.9659C55.295 70.8538 58.056 71.4638 60.4793 70.5079C62.9027 69.552 64.5036 67.2213 64.5263 64.6163L64.6155 57.8521L74.1866 75.5767C75.2691 77.6109 77.3698 78.8979 79.6738 78.9383C81.9777 78.9787 84.1223 77.7661 85.2754 75.771L85.4109 75.9851C86.257 77.5805 87.7429 78.7398 89.4963 79.1722C91.2497 79.6046 93.1043 79.2691 94.5951 78.2499C96.879 76.62 97.8884 73.7281 97.1149 71.031C99.4326 71.0098 101.564 69.7558 102.708 67.74C103.851 65.7242 103.835 63.2517 102.665 61.2512L100.881 57.9342C103.118 57.7831 105.12 56.4948 106.184 54.5222C107.249 52.5496 107.226 50.1688 106.124 48.2168L94.0262 25.6505C93.814 25.2278 93.5233 24.6464 83.7631 15.9028C82.5619 14.8217 81.7634 13.3649 81.4983 11.7708L80.225 4.16486C80.0812 3.30565 79.3378 2.67604 78.4666 2.67578H57.0666C56.0817 2.67578 55.2833 3.47421 55.2833 4.45911C55.2833 9.3722 55.0247 37.0335 54.3078 39.9867C54.0439 40.8641 53.7728 41.795 53.5 42.717C53.2396 41.8253 52.965 40.9194 52.7171 40.0776C51.9538 36.9532 51.7166 9.97496 51.7166 4.45911C51.7166 3.47421 50.9182 2.67578 49.9333 2.67578V2.67578ZM55.4759 49.2083C55.549 48.5182 56.6993 44.4183 57.7461 40.9229C58.611 37.3866 58.85 10.5545 58.85 6.24245H76.9561L77.9744 12.3557C78.3758 14.7507 79.5779 16.9386 81.3842 18.5617C87.8541 24.3575 90.5683 26.9434 90.859 27.3L102.986 49.9056C103.81 51.3813 103.298 53.2451 101.835 54.0929C100.563 54.7322 99.0137 54.2913 98.2688 53.0781L90.5184 38.5493C90.2183 37.9871 89.6411 37.6276 89.0041 37.6063C88.3671 37.5851 87.7672 37.9053 87.4303 38.4463C87.0934 38.9873 87.0707 39.667 87.3708 40.2292C98.3187 60.7483 92.4943 49.8592 99.5403 62.9632C100.348 64.3168 99.9984 66.0619 98.7324 67.0006C98.0745 67.4235 97.2711 67.5556 96.5125 67.3654C95.7539 67.1752 95.1077 66.6798 94.7271 65.9966C93.7034 64.0617 98.538 73.3849 83.8487 45.6666C83.558 45.0901 82.9784 44.7157 82.3333 44.6879C81.6883 44.66 81.0785 44.983 80.7392 45.5323C80.3998 46.0816 80.3839 46.7714 80.6976 47.3358C86.5112 58.3104 91.6027 67.944 93.3985 71.2699C94.1913 72.6259 93.8485 74.3602 92.5995 75.3127C91.9236 75.768 91.0834 75.9077 90.2965 75.6956C89.5096 75.4834 88.8534 74.9404 88.4979 74.2071C83.7221 66.6796 86.9856 72.479 74.6075 49.1156C74.1461 48.2454 73.0666 47.9141 72.1964 48.3755C71.3263 48.8369 70.9949 49.9164 71.4563 50.7866C80.4871 67.8316 82.0832 70.8847 82.3061 71.195C82.8895 72.4887 82.514 74.0135 81.3966 74.8883C80.7342 75.3339 79.9144 75.4792 79.1391 75.2883C78.3639 75.0975 77.7052 74.5883 77.3253 73.8861L64.4853 50.1124C64.0993 49.3972 63.2786 49.0333 62.4894 49.2277C61.7002 49.422 61.1422 50.1254 61.1326 50.9381L60.9543 64.561C60.9463 65.3257 60.6367 66.0563 60.0929 66.594C59.2683 67.3917 58.0445 67.6143 56.9918 67.158C55.9392 66.7018 55.2649 65.6564 55.2833 64.5093L55.4759 49.2083ZM51.7166 64.5093C51.7402 65.66 51.0662 66.711 50.0105 67.1696C48.9548 67.6283 47.7267 67.4037 46.9016 66.6012C46.3581 66.064 46.0485 65.3341 46.0403 64.5699L45.8619 50.9453C45.8523 50.1325 45.2944 49.4292 44.5052 49.2348C43.716 49.0404 42.8952 49.4043 42.5093 50.1196L29.6693 73.8682C29.2908 74.5733 28.6315 75.0853 27.8547 75.2773C27.0778 75.4693 26.2559 75.3234 25.5926 74.8758C24.4764 74.0002 24.1017 72.4759 24.6849 71.1825C24.9078 70.8722 26.5039 67.8192 35.5347 50.7741C35.8331 50.2112 35.8087 49.5318 35.4704 48.9918C35.1322 48.4519 34.5316 48.1334 33.8948 48.1563C33.2581 48.1793 32.682 48.5402 32.3835 49.1031C20.0589 72.3667 23.0995 66.9364 18.4236 74.3158C18.0437 75.0061 17.3918 75.5055 16.6264 75.6926C15.8611 75.8797 15.0523 75.7374 14.3968 75.3002C13.1478 74.3477 12.8051 72.6134 13.5979 71.2574C15.4026 67.9137 21.1895 56.9676 26.2988 47.3233C26.6124 46.7589 26.5965 46.0691 26.2572 45.5198C25.9178 44.9705 25.3081 44.6475 24.663 44.6754C24.018 44.7032 23.4383 45.0776 23.1476 45.6541C8.55995 73.2048 13.3036 64.0546 12.28 65.9841C11.8985 66.6648 11.2536 67.1585 10.4969 67.3491C9.74021 67.5397 8.93843 67.4104 8.27997 66.9917C7.00749 66.0489 6.65869 64.2941 7.4739 62.9364C14.3576 50.1285 8.94515 60.2614 19.6362 40.2167C20.1001 39.3476 19.7716 38.2669 18.9024 37.803C18.0332 37.3391 16.9525 37.6677 16.4887 38.5368L8.73829 53.0692C7.98573 54.2723 6.44478 54.7107 5.17162 54.0839C3.71217 53.2369 3.19917 51.3776 4.0178 49.902L16.091 27.3874C16.5885 26.7989 19.3277 24.197 25.6193 18.5617C27.4256 16.9386 28.6277 14.7507 29.0291 12.3557L30.0438 6.24245H48.15C48.15 10.3673 48.3889 37.3901 49.277 41.0174C50.3007 44.4201 51.4509 48.5217 51.5205 49.1405L51.7166 64.5129V64.5093Z" fill="#87AD3B"/>
</svg>
