<svg width="105" height="105" viewBox="0 0 105 105" fill="none" xmlns="http://www.w3.org/2000/svg">
<g clip-path="url(#clip0)">
<path d="M80.4072 6.99895C76.1006 6.99753 71.868 5.87967 68.1222 3.75445C63.4857 1.22048 58.2733 -0.0731218 52.99 -0.00105143C52.8255 -0.00105143 52.6645 0.0129486 52.5 0.0164486C52.3355 0.0199486 52.1745 -0.00105143 52.01 -0.00105143C46.7267 -0.0731218 41.5143 1.22048 36.8778 3.75445C33.1308 5.90002 28.8842 7.01918 24.5665 6.99895H24.5C10.99 6.99895 0 14.4575 0 23.624C0.0971569 27.1495 1.59171 30.4917 4.1545 32.9147C3.72556 33.8424 3.5023 34.8519 3.5 35.874C3.5 41.271 9.6495 45.499 17.5 45.499C25.3505 45.499 31.5 41.271 31.5 35.874C31.3837 33.1147 29.912 30.5911 27.5678 29.1312C28.2636 27.8676 29.2731 26.8044 30.499 26.0442C32.1436 25.0922 34.2418 25.5381 35.357 27.0767C36.3195 28.6062 36.5558 35.5555 36.743 41.1397C37.016 49.2317 37.2978 57.6002 39.2455 61.718C39.6592 62.5917 40.7028 62.9646 41.5765 62.551C42.4502 62.1373 42.8232 61.0937 42.4095 60.22C40.7733 56.7585 40.4845 48.3987 40.2413 41.0224C39.9595 32.6644 39.7163 27.4284 38.3162 25.2112C36.2118 22.0946 32.0618 21.1252 28.7945 22.9869C26.9836 24.0841 25.4963 25.6421 24.4843 27.502C22.2535 26.6567 19.8855 26.2319 17.5 26.249C13.4161 26.1032 9.42111 27.4641 6.2755 30.0727C4.56597 28.3529 3.57384 26.0477 3.5 23.624C3.5 16.386 12.9202 10.4989 24.5823 10.4989H24.6558C26.9896 10.4947 29.3138 10.2008 31.5752 9.62395C30.3996 11.4518 29.7667 13.5757 29.75 15.749C29.75 16.7154 30.5335 17.499 31.5 17.499C32.4665 17.499 33.25 16.7154 33.25 15.749C33.25 9.09895 41.8442 3.67395 52.5 3.5147C63.1558 3.67395 71.75 9.09895 71.75 15.749C71.75 16.7154 72.5335 17.499 73.5 17.499C74.4665 17.499 75.25 16.7154 75.25 15.749C75.2338 13.5754 74.6002 11.4512 73.423 9.62395C75.7114 10.2025 78.0626 10.4964 80.423 10.4989H80.5C92.0798 10.4989 101.5 16.386 101.5 23.624C101.426 26.0477 100.434 28.3529 98.7245 30.0727C95.5789 27.4641 91.5839 26.1032 87.5 26.249C85.1387 26.2323 82.7943 26.6475 80.5823 27.474C79.5716 25.6263 78.0907 24.0784 76.2895 22.9869C73.0208 21.1266 68.871 22.0956 66.7643 25.2112C65.3643 27.4284 65.1227 32.6644 64.8392 41.0224C64.5907 48.3987 64.3142 56.7585 62.671 60.22C62.2573 61.0937 62.6303 62.1373 63.504 62.551C64.3777 62.9646 65.4213 62.5917 65.835 61.718C67.781 57.6002 68.0645 49.2317 68.3375 41.1397C68.5247 35.5555 68.761 28.6062 69.7253 27.0767C70.8407 25.537 72.9406 25.0916 74.585 26.0459C75.7966 26.7953 76.7961 27.8424 77.4883 29.0875C75.1126 30.5453 73.6176 33.0892 73.5 35.874C73.5 41.271 79.6495 45.499 87.5 45.499C95.3505 45.499 101.5 41.271 101.5 35.874C101.498 34.8519 101.274 33.8424 100.845 32.9147C103.408 30.4917 104.903 27.1495 105 23.624C105 14.4575 94.01 6.99895 80.4072 6.99895ZM17.5 29.7489C19.9007 29.7205 22.2741 30.2602 24.4265 31.3239L24.4405 31.3344H24.4527C26.3825 32.0767 27.7463 33.822 28 35.874C28 39.199 23.191 41.999 17.5 41.999C11.809 41.999 7 39.199 7 35.874C7.01725 35.1109 7.2609 34.3702 7.7 33.7459V33.7319C9.2295 31.4324 13.0953 29.7489 17.5 29.7489ZM87.5 41.999C81.809 41.999 77 39.199 77 35.874C77 31.982 83.0235 29.7489 87.5 29.7489C91.9047 29.7489 95.7687 31.4324 97.3 33.7302L97.3087 33.7442C97.7451 34.37 97.9857 35.1112 98 35.874C98 39.199 93.191 41.999 87.5 41.999Z" fill="#87AD3B"/>
<path d="M52.5 82.2502C53.4665 82.2502 54.25 81.4667 54.25 80.5002V47.9012C58.3212 47.0639 61.2448 43.4826 61.25 39.3262V32.3262C61.25 27.4937 57.3325 23.5762 52.5 23.5762C47.6675 23.5762 43.75 27.4937 43.75 32.3262V39.3262C43.7552 43.4826 46.6788 47.0639 50.75 47.9012V80.5002C50.75 81.4667 51.5335 82.2502 52.5 82.2502ZM47.25 39.3279V32.3279C47.25 29.4284 49.6005 27.0779 52.5 27.0779C55.3995 27.0779 57.75 29.4284 57.75 32.3279V39.3279C57.75 42.2206 55.4102 44.5683 52.5175 44.5779H52.5H52.4825C49.5898 44.5683 47.25 42.2206 47.25 39.3279Z" fill="#87AD3B"/>
</g>
<defs>
<clipPath id="clip0">
<rect width="105" height="105" fill="white"/>
</clipPath>
</defs>
</svg>
