<svg width="95" height="101" viewBox="0 0 95 101" fill="none" xmlns="http://www.w3.org/2000/svg">
<path d="M92.044 51.3403C93.046 48.8373 95.3106 42.1994 92.5551 36.6428C91.032 33.5592 88.2665 31.3766 84.3787 30.0951C85.5078 27.9595 86.0734 25.5715 86.022 23.1568C86.022 19.0219 84.8096 15.738 82.4148 13.4052C80.0356 11.2508 76.9481 10.0432 73.7374 10.0112C73.4247 10.0239 73.1193 10.1096 72.8456 10.2615C71.3727 5.73612 67.4749 -0.000693705 59.5891 -0.000693705C57.0683 -0.0349586 54.5903 0.651885 52.4474 1.97881C50.3045 3.30573 48.5861 5.21737 47.4949 7.4882C46.4065 5.2174 44.6901 3.30544 42.5487 1.97835C40.4073 0.651253 37.9304 -0.0354862 35.4108 -0.000693705C27.525 -0.000693705 23.6272 5.73612 22.1543 10.2315C21.8806 10.0796 21.5752 9.99387 21.2625 9.98117C18.0451 10.0226 14.9544 11.2408 12.5751 13.4052C10.1903 15.738 9.01798 19.0219 9.01798 23.1568C8.96659 25.5715 9.53216 27.9595 10.6613 30.0951C6.72339 31.3766 4.00796 33.5592 2.44484 36.6428C-0.310674 42.1994 1.91377 48.8373 2.94584 51.3403C-5.28842e-05 56.6366 -0.731516 61.6125 0.70135 66.1279C2.4248 71.5844 6.88371 74.7281 9.01798 75.9696C9.2284 80.7853 10.7615 84.4597 13.5671 86.9026C15.9104 88.8239 18.8424 89.8841 21.8737 89.9061C23.016 94.5016 26.7735 100.919 35.2605 100.919C37.8056 100.965 40.3106 100.282 42.4801 98.9514C44.6496 97.6209 46.3931 95.6983 47.505 93.4103C48.6195 95.6983 50.365 97.6206 52.536 98.9509C54.707 100.281 57.2131 100.964 59.7595 100.919C68.2364 100.919 72.004 94.4716 73.1462 89.9061C76.1771 89.8817 79.1083 88.8218 81.4529 86.9026C84.2585 84.4597 85.7815 80.7853 86.002 75.9696C88.1262 74.7281 92.5751 71.5844 94.3086 66.1279C95.7214 61.6125 94.9699 56.6366 92.044 51.3403ZM45.3005 87.7436C45.1001 88.915 43.4368 96.9946 35.2805 96.9946C26.7635 96.9946 25.5811 88.0539 25.531 87.6735L25.2905 85.6711L23.2865 85.9314C23.2865 85.9314 19.1182 86.432 16.2024 83.869C14.028 82.0067 13.026 78.9431 13.026 74.7481V73.4566L11.8436 72.926C11.8436 72.926 6.28251 70.3629 4.55907 64.9164C3.36668 61.2821 4.1783 57.0671 6.91378 52.4717L7.46488 51.5305L7.01398 50.5594C7.01398 50.4893 3.55706 43.4609 6.07209 38.4049C7.2745 35.9921 9.74945 34.3301 13.4168 33.4591C15.3307 35.0257 17.6084 36.0862 20.04 36.5427C19.2289 38.8849 18.9616 41.3808 19.2585 43.8414C19.499 45.5666 20.0381 47.2367 20.8517 48.7773C19.0351 51.1907 18.1719 54.1882 18.4268 57.1973C19.0781 61.9529 23.2565 64.7462 23.4368 64.8664C23.7622 65.0764 24.1416 65.1877 24.529 65.1868C24.8608 65.1867 25.1873 65.1044 25.4794 64.9471C25.7715 64.7898 26.0199 64.5625 26.2024 64.2857C26.4946 63.8422 26.5986 63.3009 26.4915 62.7809C26.3844 62.2608 26.075 61.8045 25.6312 61.5124C25.6312 61.5124 22.7955 59.5801 22.4048 56.6566C22.2689 55.1742 22.5906 53.6858 23.3266 52.3916C24.4212 53.6868 25.6734 54.8404 27.0541 55.8256C27.3795 56.0357 27.7588 56.147 28.1462 56.146C28.5752 56.1448 28.9925 56.0061 29.3368 55.7503C29.681 55.4945 29.934 55.135 30.0585 54.7248C30.183 54.3146 30.1725 53.8753 30.0284 53.4715C29.8844 53.0677 29.6145 52.7208 29.2585 52.4817C29.1983 52.4817 23.9378 48.8874 23.1763 43.3008C22.4148 37.7141 26.523 32.6681 26.5931 32.578C26.8101 32.3875 26.9833 32.1524 27.1008 31.8887C27.2183 31.6251 27.2775 31.3392 27.2741 31.0506C27.2707 30.762 27.2049 30.4775 27.0813 30.2167C26.9576 29.9559 26.779 29.7248 26.5576 29.5394C26.3363 29.354 26.0774 29.2186 25.7988 29.1425C25.5202 29.0663 25.2284 29.0513 24.9434 29.0984C24.6584 29.1454 24.387 29.2535 24.1477 29.4152C23.9084 29.5768 23.7069 29.7883 23.5571 30.035C22.8722 30.898 22.2589 31.8155 21.7234 32.7783C19.4188 32.5179 12.9859 31.1163 12.9859 23.1768C12.9859 20.1733 13.7775 17.8605 15.3506 16.3187C16.9537 14.881 19.0188 14.0642 21.1723 14.016C21.2756 14.0263 21.3796 14.0263 21.4829 14.016V18.7015C21.4829 19.2326 21.6941 19.7419 22.0699 20.1174C22.4457 20.4929 22.9554 20.7039 23.4869 20.7039C24.0184 20.7039 24.5281 20.4929 24.904 20.1174C25.2798 19.7419 25.4909 19.2326 25.4909 18.7015V13.2551C25.7214 12.0937 27.4348 4.00406 35.4108 4.00406C43.3867 4.00406 45.1001 12.1137 45.3005 13.2551V87.7436ZM90.4809 64.8864C88.7875 70.3028 83.2364 72.8959 83.1863 72.8959L82.014 73.4266V74.7181C82.014 78.9131 80.9418 81.9767 78.8376 83.8289C76.8274 85.3893 74.2981 86.1267 71.7635 85.8914L69.7595 85.611L69.509 87.6134C69.509 87.9939 68.2865 96.9345 59.7695 96.9345C51.6332 96.9345 49.9198 88.8249 49.7495 87.6835V13.2551C49.8997 12.0937 51.6132 4.00406 59.5891 4.00406C67.5651 4.00406 69.2785 12.1137 69.4789 13.2551V18.6415C69.4789 19.1725 69.69 19.6818 70.0659 20.0574C70.4417 20.4329 70.9514 20.6438 71.4829 20.6438C72.0144 20.6438 72.5241 20.4329 72.9 20.0574C73.2758 19.6818 73.4869 19.1725 73.4869 18.6415V14.016C73.6003 14.0259 73.7143 14.0259 73.8276 14.016C75.9666 14.0735 78.0169 14.8817 79.6192 16.2987C81.2024 17.8505 82.014 20.1633 82.014 23.1869C82.014 31.1263 75.5711 32.538 73.2765 32.7883C72.7415 31.8221 72.1282 30.9012 71.4428 30.035C71.278 29.8221 71.072 29.6446 70.837 29.5131C70.602 29.3816 70.3428 29.2988 70.0751 29.2696C69.8073 29.2404 69.5364 29.2654 69.2785 29.3432C69.0207 29.421 68.7812 29.5499 68.5743 29.7223C68.3674 29.8946 68.1974 30.1069 68.0745 30.3464C67.9516 30.5859 67.8783 30.8476 67.8589 31.1161C67.8395 31.3845 67.8745 31.6541 67.9617 31.9087C68.049 32.1634 68.1867 32.3978 68.3667 32.598C68.3667 32.6481 72.545 37.6641 71.7735 43.3208C71.002 48.9775 65.7615 52.4616 65.7014 52.4917C65.2632 52.7836 64.9576 53.2361 64.8508 53.7513C64.7439 54.2665 64.8443 54.8031 65.1302 55.2449C65.3127 55.5218 65.5611 55.7491 65.8532 55.9063C66.1452 56.0636 66.4718 56.146 66.8036 56.146C67.1944 56.1489 67.5775 56.0375 67.9058 55.8256C69.3017 54.8408 70.5705 53.6874 71.6833 52.3916C72.4145 53.6877 72.7359 55.1745 72.6052 56.6566C72.2044 59.5801 69.3987 61.5024 69.3787 61.5124C68.9336 61.8032 68.6223 62.2587 68.5133 62.7788C68.4043 63.2989 68.5066 63.8409 68.7975 64.2857C69.0885 64.7305 69.5444 65.0415 70.065 65.1504C70.5855 65.2593 71.128 65.1571 71.5731 64.8664C71.7535 64.7462 75.9318 61.9529 76.5831 57.1973C76.8352 54.1869 75.9684 51.1893 74.1482 48.7773C74.9689 47.2389 75.5116 45.5681 75.7514 43.8414C76.0504 41.38 75.7796 38.8829 74.9599 36.5427C77.3999 36.0935 79.6858 35.0325 81.6032 33.4591C85.2705 34.3301 87.7555 35.9921 88.9579 38.4049C91.4729 43.4109 88.046 50.4893 88.016 50.5594L87.525 51.5606L88.0761 52.5017C90.8116 57.0671 91.6232 61.2521 90.4809 64.8864Z" fill="#87AD3B"/>
</svg>
