<svg width="89" height="116" viewBox="0 0 89 116" fill="none" xmlns="http://www.w3.org/2000/svg">
<path d="M74.1437 35.2732L69.5091 32.5974L75.2529 22.6488L75.4174 22.7437C76.2557 23.2252 77.2507 23.3545 78.1842 23.1032C79.1176 22.852 79.9133 22.2407 80.3967 21.4035L81.7758 19.0147C82.2566 18.1777 82.3862 17.1843 82.1364 16.2519C81.8866 15.3196 81.2776 14.5241 80.4428 14.0396L63.7783 4.41834C62.9413 3.9376 61.9479 3.80796 61.0155 4.05779C60.0831 4.30762 59.2877 4.91657 58.8032 5.75142L57.424 8.14023C56.9406 8.97741 56.8091 9.97213 57.0582 10.9062C57.3074 11.8402 57.9169 12.6373 58.7529 13.1225L58.896 13.2051L53.1521 23.1537L48.5104 20.4738C47.6721 19.9924 46.6771 19.8631 45.7436 20.1143C44.8102 20.3656 44.0145 20.9769 43.5312 21.814L42.152 24.2028C41.6712 25.0399 41.5416 26.0332 41.7914 26.9656C42.0412 27.898 42.6502 28.6934 43.485 29.178L46.2458 30.7719C46.0598 30.9778 45.8973 31.2039 45.7613 31.4458L24.8258 67.7071C24.288 68.6648 24.1488 69.7957 24.4383 70.8551C24.7278 71.9146 25.4229 72.8175 26.373 73.3685L26.9309 73.6906L27.7393 79.3927C27.7756 79.641 27.8679 79.8777 28.0094 80.0849C28.1508 80.2921 28.3376 80.4644 28.5555 80.5887L28.8988 80.7869L15.4002 104.167C15.1811 104.547 15.1218 104.997 15.2352 105.421C15.3485 105.844 15.6254 106.205 16.0047 106.424C16.3841 106.643 16.835 106.702 17.2581 106.589C17.6812 106.475 18.042 106.198 18.261 105.819L31.7473 82.4601L32.0977 82.6624C32.3138 82.7872 32.5553 82.8615 32.8041 82.8797C33.0529 82.8978 33.3026 82.8593 33.5345 82.7672L38.8543 80.6223L39.3836 80.9278C40.3359 81.4778 41.4667 81.6301 42.5307 81.3518C43.5947 81.0735 44.506 80.387 45.0672 79.4412L66.0316 43.1298C66.1693 42.8891 66.2837 42.6358 66.373 42.3733L69.1266 43.963C69.9638 44.4464 70.9585 44.5779 71.8925 44.3288C72.8265 44.0796 73.6236 43.4702 74.1088 42.6341L75.4798 40.2596C75.9638 39.4212 76.095 38.4248 75.8444 37.4897C75.5939 36.5545 74.9821 35.7572 74.1437 35.2732ZM60.2562 9.77543L61.6354 7.38662C61.6589 7.34547 61.6908 7.3097 61.729 7.28165C61.7672 7.25359 61.8108 7.23386 61.8571 7.22373C61.9034 7.21361 61.9513 7.21331 61.9977 7.22287C62.0441 7.23242 62.088 7.25161 62.1266 7.2792L78.7911 16.9004C78.8672 16.9468 78.9226 17.0208 78.9456 17.1069C78.9687 17.193 78.9577 17.2847 78.915 17.363L77.5358 19.7518C77.4905 19.8303 77.4164 19.8879 77.3292 19.9124C77.242 19.9369 77.1486 19.9263 77.0691 19.8829L60.4046 10.2616C60.3655 10.2391 60.3313 10.2089 60.304 10.1729C60.2767 10.1369 60.2569 10.0958 60.2458 10.052C60.2346 10.0083 60.2323 9.96272 60.239 9.91805C60.2457 9.87338 60.2613 9.83051 60.2848 9.79195L60.2562 9.77543ZM61.4887 15.2551L72.1526 21.4119L66.6482 30.9457L56.013 24.8054L61.4887 15.2551ZM33.0249 79.4214L30.8792 78.1826L30.5292 75.8158L35.2139 78.5205L33.0249 79.4214ZM41.0353 78.067L28.0041 70.5434C27.9044 70.4923 27.8161 70.4215 27.7447 70.3352C27.6732 70.249 27.6201 70.149 27.5885 70.0416C27.5568 69.9341 27.5474 69.8213 27.5607 69.7101C27.5741 69.5989 27.6099 69.4916 27.666 69.3946L45.9381 37.7464L60.4784 46.1412L57.2452 51.7414L53.6691 49.6767C53.2898 49.4577 52.8389 49.3983 52.4158 49.5117C51.9926 49.6251 51.6319 49.9019 51.4128 50.2813C51.1938 50.6607 51.1345 51.1115 51.2478 51.5346C51.3612 51.9578 51.638 52.3185 52.0174 52.5376L55.5935 54.6022L53.1159 58.8935L49.5398 56.8289C49.1605 56.6098 48.7096 56.5505 48.2865 56.6639C47.8634 56.7772 47.5026 57.0541 47.2836 57.4334C47.0645 57.8128 47.0052 58.2637 47.1186 58.6868C47.2319 59.1099 47.5088 59.4707 47.8881 59.6897L51.4642 61.7544L48.9866 66.0457L45.4106 63.981C45.0312 63.762 44.5803 63.7026 44.1572 63.816C43.7341 63.9294 43.3733 64.2062 43.1543 64.5856C42.9352 64.965 42.8759 65.4158 42.9893 65.8389C43.1026 66.2621 43.3795 66.6228 43.7588 66.8419L47.3349 68.9065L44.8573 73.1978L41.2813 71.1332C40.9019 70.9141 40.451 70.8548 40.0279 70.9681C39.6048 71.0815 39.244 71.3583 39.025 71.7377C38.8059 72.1171 38.7466 72.5679 38.86 72.9911C38.9733 73.4142 39.2502 73.775 39.6295 73.994L43.2056 76.0587L42.2352 77.7394C42.1792 77.8409 42.1033 77.9302 42.0122 78.0019C41.921 78.0736 41.8164 78.1262 41.7045 78.1568C41.5926 78.1873 41.4757 78.1951 41.3608 78.1797C41.2458 78.1643 41.1351 78.1259 41.0353 78.067ZM63.1707 41.478L62.1302 43.2804L47.5899 34.8855L48.6304 33.0832C48.7114 32.9231 48.8422 32.7938 49.0031 32.7147C49.1641 32.6355 49.3464 32.611 49.5226 32.6446L63.1116 40.4903C63.2268 40.6265 63.2948 40.7963 63.3055 40.9743C63.3162 41.1524 63.2689 41.3291 63.1707 41.478ZM71.2397 40.9967C71.1926 41.074 71.1171 41.1299 71.0293 41.1522C70.9415 41.1746 70.8485 41.1618 70.77 41.1165L65.0483 37.813C64.8859 37.6745 64.7128 37.5491 64.5306 37.4379L51.4708 29.8978C51.2858 29.797 51.093 29.7112 50.8942 29.6412L45.1725 26.3377C45.1291 26.3179 45.0902 26.2893 45.0583 26.2537C45.0264 26.2182 45.0022 26.1764 44.9872 26.131C44.9722 26.0857 44.9667 26.0377 44.9711 25.9901C44.9755 25.9425 44.9897 25.8964 45.0128 25.8546L46.392 23.4657C46.4373 23.3873 46.5114 23.3297 46.5986 23.3052C46.6858 23.2807 46.7792 23.2912 46.8587 23.3347L72.492 38.134C72.5314 38.1568 72.566 38.1871 72.5937 38.2233C72.6214 38.2594 72.6418 38.3007 72.6536 38.3447C72.6654 38.3887 72.6684 38.4345 72.6624 38.4797C72.6565 38.5249 72.6417 38.5684 72.6189 38.6079L71.2397 40.9967Z" fill="#87AD3B"/>
</svg>
