<svg width="75" height="109" viewBox="0 0 75 109" fill="none" xmlns="http://www.w3.org/2000/svg">
<g clip-path="url(#clip0)">
<path d="M63.5687 108.999C63.4147 108.999 63.2613 108.98 63.1115 108.944C62.8743 108.885 62.6514 108.778 62.456 108.63C62.2607 108.482 62.0968 108.296 61.974 108.084C61.8512 107.871 61.7721 107.636 61.7413 107.392C61.7104 107.148 61.7286 106.901 61.7946 106.664C61.7946 106.544 64.968 94.232 69.7601 72.5497C74.3327 51.7685 67.3457 41.286 67.2726 41.2216L67.1445 41.0101L47.3725 2.6845C47.1494 2.2504 47.1069 1.74496 47.2544 1.27937C47.4019 0.813767 47.7273 0.426152 48.159 0.20179C48.5908 -0.0225726 49.0935 -0.0653032 49.5565 0.0829983C50.0196 0.2313 50.4051 0.558485 50.6282 0.992577L70.3454 39.2538C71.2599 40.5963 78.0914 51.8421 73.3267 73.3773C68.5255 95.1331 65.3704 107.491 65.3429 107.62C65.2414 108.016 65.012 108.366 64.6907 108.615C64.3695 108.865 63.9748 109 63.5687 108.999Z" fill="#87AD3B"/>
<path d="M16.745 108.999C16.6202 109.008 16.4949 109.008 16.3701 108.999C16.1345 108.95 15.911 108.854 15.7122 108.718C15.5134 108.582 15.3433 108.407 15.2117 108.205C15.08 108.002 14.9893 107.776 14.9449 107.538C14.9004 107.3 14.903 107.056 14.9526 106.82C14.9526 106.617 19.1319 86.8476 20.8512 78.2409C21.7017 73.9191 21.3817 68.9261 19.891 63.3998C18.9765 60.0344 17.056 57.0735 15.0166 53.9287C14.285 52.8069 13.535 51.6483 12.84 50.4713L0.256181 29.2856C0.00757066 28.8661 -0.065133 28.3645 0.0540639 27.8912C0.173261 27.4178 0.474594 27.0115 0.891774 26.7615C1.30895 26.5115 1.80781 26.4384 2.27859 26.5583C2.74938 26.6781 3.15353 26.9811 3.40214 27.4006L15.9768 48.5495C16.6353 49.6622 17.3669 50.7932 18.0802 51.8874C20.1836 55.1241 22.3602 58.4712 23.421 62.3975C25.0672 68.4756 25.4056 74.0387 24.4362 78.9489C22.7169 87.574 18.5741 107.362 18.5375 107.564C18.4458 107.973 18.2182 108.338 17.8923 108.599C17.5663 108.86 17.1616 109.001 16.745 108.999Z" fill="#87AD3B"/>
<path d="M43.1475 65.7996C41.8023 65.8185 40.4627 65.623 39.1784 65.2203C38.1526 64.9244 37.2035 64.4065 36.3978 63.7028C35.5921 62.9991 34.9492 62.1267 34.5144 61.1468C33.9016 59.6939 34.0845 57.6894 34.2492 55.9239C34.3132 55.2802 34.368 54.6826 34.368 54.2596V50.3148C34.368 46.885 32.6579 43.7862 30.8471 40.5127L30.7831 40.3932C25.6069 30.9773 17.2573 15.9891 17.2573 15.9891L20.449 14.1501C20.449 14.1501 28.7803 29.1934 33.9839 38.6185L34.048 38.7381C36.005 42.2966 38.0261 45.9747 38.0261 50.3148V54.2504C38.0261 54.8481 37.9621 55.5285 37.8981 56.2549C37.7237 57.3946 37.7237 58.5543 37.8981 59.6939C38.1334 60.1883 38.4729 60.6253 38.893 60.9746C39.313 61.324 39.8036 61.5772 40.3307 61.7169C43.5864 62.7927 48.9455 61.6065 53.6553 58.848C54.1635 58.5764 54.5967 58.1822 54.916 57.7007C55.2352 57.2192 55.4305 56.6656 55.4844 56.0894C55.9416 51.9056 50.5277 44.6874 44.9582 39.4001C38.4468 33.2209 30.9203 10.3157 30.6002 9.34099C30.5306 9.10854 30.5071 8.86457 30.5312 8.62301C30.5553 8.38145 30.6265 8.14704 30.7408 7.93315C30.855 7.71926 31.01 7.53008 31.1969 7.37642C31.3839 7.22276 31.5991 7.10762 31.8302 7.03759C32.2971 6.89614 32.8008 6.94698 33.2304 7.17891C33.6601 7.41085 33.9804 7.80489 34.1211 8.27434C36.2062 14.619 42.6719 32.1819 47.5555 36.7795C50.5002 39.538 60.0204 49.239 59.2065 56.5492C59.08 57.6899 58.6814 58.7831 58.0445 59.7356C57.4076 60.6882 56.5513 61.472 55.5484 62.0203C51.8123 64.3436 47.5378 65.6463 43.1475 65.7996Z" fill="#87AD3B"/>
<path d="M41.0074 57.2765C40.7288 57.2769 40.4539 57.2133 40.2034 57.0906C39.953 56.9679 39.7338 56.7893 39.5625 56.5684C39.2644 56.1862 39.1289 55.7009 39.1854 55.2186C39.242 54.7362 39.486 54.2959 39.8643 53.9938C42.0042 52.3111 47.3085 50.0674 52.128 53.6168C52.322 53.7593 52.4861 53.9388 52.6111 54.145C52.736 54.3513 52.8194 54.5803 52.8563 54.819C52.8932 55.0576 52.8831 55.3013 52.8264 55.536C52.7697 55.7707 52.6675 55.9918 52.5258 56.1868C52.3841 56.3819 52.2056 56.5469 52.0004 56.6725C51.7953 56.7982 51.5675 56.882 51.3302 56.9191C51.0928 56.9563 50.8505 56.946 50.6171 56.889C50.3837 56.832 50.1637 56.7293 49.9697 56.5868C46.1928 53.8283 42.2878 56.7707 42.1231 56.8903C41.8039 57.1394 41.4115 57.2752 41.0074 57.2765Z" fill="#87AD3B"/>
<path d="M40.0103 108.999C39.6374 108.998 39.2736 108.883 38.9678 108.668C38.5705 108.39 38.2993 107.964 38.2136 107.485C38.1279 107.006 38.2347 106.512 38.5105 106.112C40.1292 103.767 39.672 99.9329 39.1049 96.8525C38.5367 94.505 37.5381 92.2848 36.1602 90.3055C35.456 89.1469 34.7244 87.9423 34.0751 86.6274C32.5231 83.5067 31.5147 80.1415 31.0937 76.6782C31.0937 76.6138 30.3987 69.5611 33.7001 67.4002C34.3784 66.9818 35.1642 66.7735 35.9595 66.8013C36.7548 66.8291 37.5244 67.0918 38.1721 67.5566C41.3272 69.3956 46.4028 69.3956 50.4633 69.3956H53.2069C55.3469 69.3956 57.7795 69.3956 59.4531 72.5495C60.7243 74.9771 60.9712 77.892 61.0352 80.4298C61.0597 84.4912 60.5523 88.5381 59.5262 92.4664C58.3686 97.3742 56.8117 102.178 54.8713 106.829C54.6833 107.279 54.3253 107.636 53.876 107.82C53.4266 108.005 52.9228 108.002 52.4753 107.813C52.0278 107.624 51.6733 107.264 51.4898 106.812C51.3063 106.361 51.3088 105.854 51.4967 105.404C53.3557 100.936 54.8483 96.3234 55.9596 91.6112C56.9103 87.9896 57.3838 84.2582 57.368 80.5126C57.3131 78.4069 57.1302 76.0161 56.2065 74.269C55.5938 73.1013 55.1914 73.0645 53.1977 73.0645H50.4542C45.9456 73.0645 40.3304 73.0645 36.3157 70.7289C36.1243 70.5893 35.9009 70.5007 35.6663 70.4714C35.0536 70.8025 34.45 73.8645 34.7518 76.2644C35.137 79.3005 36.0339 82.2483 37.4039 84.9815C37.9801 86.1676 38.6568 87.2987 39.3244 88.3837C40.9424 90.7355 42.1001 93.3755 42.7356 96.1628C43.4398 99.9421 43.9428 104.733 41.5559 108.199C41.3845 108.451 41.1535 108.656 40.8837 108.796C40.6139 108.935 40.3137 109.005 40.0103 108.999Z" fill="#87AD3B"/>
<path d="M46.3571 82.4614C43.4767 82.5198 40.6522 81.6569 38.291 79.9971C37.9103 79.6934 37.665 79.2502 37.6093 78.7647C37.5535 78.2793 37.6919 77.7915 37.9938 77.4086C38.2958 77.0257 38.7367 76.7791 39.2195 76.7231C39.7023 76.6671 40.1874 76.8061 40.5682 77.1098C40.7786 77.2753 45.1408 80.5304 51.8809 77.5695C52.1035 77.4403 52.3507 77.3598 52.6063 77.3331C52.862 77.3064 53.1203 77.3342 53.3646 77.4147C53.6088 77.4952 53.8335 77.6265 54.0239 77.8001C54.2143 77.9737 54.3661 78.1857 54.4696 78.4223C54.573 78.6589 54.6257 78.9147 54.6241 79.1732C54.6226 79.4316 54.567 79.6868 54.4608 79.9221C54.3546 80.1575 54.2003 80.3677 54.0078 80.539C53.8154 80.7104 53.5893 80.839 53.3441 80.9166C51.1464 81.9117 48.7673 82.4377 46.3571 82.4614Z" fill="#87AD3B"/>
<path d="M65.6356 69.5883C65.2463 69.5924 64.8667 69.4663 64.5565 69.2297C64.1668 68.9414 63.9066 68.5095 63.8329 68.0287C63.7592 67.5478 63.878 67.0572 64.1632 66.6643C64.562 66.052 64.759 65.329 64.7261 64.5978C64.6933 63.8667 64.4324 63.1645 63.9803 62.5908C63.6863 62.204 63.5568 61.7158 63.6203 61.2332C63.6837 60.7505 63.9349 60.3129 64.3187 60.0161C64.6988 59.7232 65.178 59.5919 65.6534 59.6503C66.1288 59.7088 66.5624 59.9524 66.8611 60.3288C67.8079 61.5306 68.3435 63.0078 68.388 64.5404C68.4325 66.073 67.9835 67.579 67.108 68.8343C66.9386 69.0674 66.7171 69.2571 66.4613 69.388C66.2055 69.519 65.9227 69.5877 65.6356 69.5883Z" fill="#87AD3B"/>
</g>
<defs>
<clipPath id="clip0">
<rect width="75" height="109" fill="white"/>
</clipPath>
</defs>
</svg>
