<svg width="44" height="42" viewBox="0 0 44 42" fill="none" xmlns="http://www.w3.org/2000/svg">
<path d="M40 16.3929C40 24.3418 31.519 30.7857 21.0571 30.7857C18.2765 30.7857 15.6358 30.3305 13.2571 29.5128C11.4841 28.9033 4.70718 31.4992 2.06427 32.5632C1.65806 32.7268 1.24234 32.3287 1.38629 31.9152C2.26507 29.3905 4.28401 23.2367 3.56607 21.9286C2.63077 20.2245 2.11427 18.3545 2.11427 16.3929C2.11427 8.4439 10.5953 2 21.0571 2C31.519 2 40 8.4439 40 16.3929Z" stroke="white" stroke-width="2"/>
<circle cx="12" cy="18" r="2" fill="white"/>
<circle cx="21" cy="18" r="2" fill="white"/>
<circle cx="30" cy="18" r="2" fill="white"/>
</svg>
