<svg width="29" height="29" viewBox="0 0 29 29" fill="none" xmlns="http://www.w3.org/2000/svg">
<path d="M19.6116 8.32397L20.9579 9.10263C21.2266 9.25805 21.4611 9.47132 21.5593 9.7658C21.8811 10.7304 22.1642 13.3277 18.4513 17.5461C14.7384 21.7645 12.1261 21.8135 11.1285 21.6168C10.8239 21.5567 10.5826 21.3513 10.3943 21.1044L9.45104 19.8678C8.74874 18.9472 7.43307 18.7702 6.5124 19.4725L3.00916 22.1448C2.20556 22.7578 1.95367 23.8568 2.41009 24.7586L2.95178 25.8289C3.36328 26.6419 4.04963 27.2827 4.88893 27.6376C5.59014 27.9341 6.32253 28.1518 7.08373 28.1391C9.48256 28.0991 15.3415 27.1991 21.4864 20.2175C27.6314 13.2359 27.7802 7.31021 27.5153 4.92571C27.4313 4.16906 27.1223 3.47024 26.7392 2.81235C26.2807 2.02489 25.5579 1.42545 24.6992 1.1205L23.5689 0.719068C22.6164 0.380827 21.5582 0.770217 21.0522 1.64514L18.8463 5.45931C18.2666 6.46169 18.6092 7.74424 19.6116 8.32397Z" fill="white"/>
</svg>
