<svg width="34" height="34" viewBox="0 0 34 34" fill="none" xmlns="http://www.w3.org/2000/svg">
<circle cx="17" cy="17" r="17" fill="#E89A04"/>
<path d="M22.7153 10.2002H11.2847C10.3336 10.2002 9.5625 10.9713 9.5625 11.9224C9.5625 12.4456 9.80032 12.9405 10.2089 13.2673L15.001 17.101C15.7144 17.6717 16.0711 17.9571 16.4667 18.0665C16.8157 18.1631 17.1843 18.1631 17.5333 18.0665C17.9289 17.9571 18.2856 17.6717 18.999 17.101L23.7911 13.2673C24.1997 12.9405 24.4375 12.4456 24.4375 11.9224C24.4375 10.9713 23.6664 10.2002 22.7153 10.2002Z" fill="white"/>
<path d="M12.7625 23.7994H21.2375C22.3576 23.7994 22.9177 23.7994 23.3455 23.5814C23.7218 23.3897 24.0278 23.0837 24.2195 22.7074C24.4375 22.2796 24.4375 21.7195 24.4375 20.5994V14.0244L19.9985 17.5756C18.9284 18.4317 18.3933 18.8598 17.7999 19.0239C17.2765 19.1687 16.7235 19.1687 16.2001 19.0239C15.6067 18.8598 15.0716 18.4317 14.0015 17.5756L9.5625 14.0244V20.5994C9.5625 21.7195 9.5625 22.2796 9.78049 22.7074C9.97223 23.0837 10.2782 23.3897 10.6545 23.5814C11.0823 23.7994 11.6424 23.7994 12.7625 23.7994Z" fill="white"/>
</svg>
