<svg width="34" height="34" viewBox="0 0 34 34" fill="none" xmlns="http://www.w3.org/2000/svg">
<path fill-rule="evenodd" clip-rule="evenodd" d="M17 34C26.3888 34 34 26.3888 34 17C34 7.61116 26.3888 0 17 0C7.61116 0 0 7.61116 0 17C0 26.3888 7.61116 34 17 34ZM22.4935 19.3146L25.1189 21.9462C25.6404 22.4705 25.6248 23.3385 25.0839 23.8818L24.3343 24.6175L24.3182 24.6031C24.0018 24.8512 23.6369 25.0587 23.2466 25.2115C22.8832 25.3529 22.5257 25.4423 22.1527 25.487C21.9814 25.5052 18.0111 25.8782 13.0844 20.9406C9.52028 17.3684 8.20698 14.7359 8.55364 11.8554C8.59413 11.4962 8.68268 11.1378 8.8249 10.7621C8.97919 10.3675 9.18651 10.0015 9.43462 9.68423L9.4144 9.66411L10.1543 8.91825C10.6963 8.3749 11.5627 8.35904 12.0844 8.88183L14.7098 11.5138C15.2315 12.0373 15.2165 12.905 14.6745 13.4483L14.2381 13.8863L13.3504 14.7747C13.3901 14.8444 13.4303 14.9172 13.4719 14.9925C13.4788 15.005 13.4857 15.0176 13.4927 15.0303L13.4953 15.035C13.9593 15.8723 14.5941 17.0178 15.7983 18.2246C17.0013 19.4312 18.1445 20.067 18.9798 20.5308C19.0707 20.582 19.1572 20.6302 19.2408 20.6764L20.5635 19.351C21.1046 18.8084 21.9706 18.7925 22.4935 19.3146Z" fill="#E89A04"/>
</svg>
