<svg width="34" height="34" viewBox="0 0 34 34" fill="none" xmlns="http://www.w3.org/2000/svg">
<circle cx="17" cy="17" r="17" fill="#E89A04"/>
<path fill-rule="evenodd" clip-rule="evenodd" d="M23.8 15.3385C23.8 16.7898 23.3505 18.1355 22.5838 19.2424H22.5857L17.819 26.7489C17.437 27.3505 16.5633 27.3503 16.1814 26.7486L11.4374 19.2728C10.6578 18.1601 10.2 16.8031 10.2 15.3385C10.2 11.5617 13.2445 8.5 17 8.5C20.7555 8.5 23.8 11.5617 23.8 15.3385ZM17 19.2462C19.146 19.2462 20.8857 17.4967 20.8857 15.3385C20.8857 13.1803 19.146 11.4308 17 11.4308C14.854 11.4308 13.1143 13.1803 13.1143 15.3385C13.1143 17.4967 14.854 19.2462 17 19.2462Z" fill="white"/>
</svg>
