<svg width="44" height="42" fill="none" xmlns="http://www.w3.org/2000/svg"><path d="M40 16.393c0 7.949-8.481 14.393-18.943 14.393-2.78 0-5.421-.456-7.8-1.273-1.773-.61-8.55 1.986-11.193 3.05a.517.517 0 01-.678-.648c.88-2.524 2.898-8.678 2.18-9.986-.935-1.704-1.452-3.574-1.452-5.536C2.114 8.443 10.595 2 21.057 2 31.52 2 40 8.444 40 16.393z" stroke="#fff" stroke-width="2"/><circle cx="12" cy="18" r="2" fill="#fff"/><circle cx="21" cy="18" r="2" fill="#fff"/><circle cx="30" cy="18" r="2" fill="#fff"/></svg>