<svg width="72" height="72" fill="none" xmlns="http://www.w3.org/2000/svg"><rect x="1" y="1" width="70" height="70" rx="7" stroke="#fff" stroke-width="2"/><g clip-path="url(#clip0)" fill="#fff"><path d="M52.49 16.56H20.291a2.387 2.387 0 00-2.385 2.385v23.85c0 .878.483 1.64 1.192 2.053v6.89a1.79 1.79 0 001.79 1.79h31.004c.986 0 1.789-.803 1.789-1.79v-6.89a2.377 2.377 0 001.192-2.053v-23.85a2.387 2.387 0 00-2.385-2.385zm0 35.178c0 .33-.268.597-.597.597H20.888a.596.596 0 01-.596-.597V45.18h32.197v6.558zm1.192-8.943c0 .657-.535 1.192-1.193 1.192H20.292a1.194 1.194 0 01-1.193-1.192v-23.85c0-.658.535-1.193 1.193-1.193h32.197c.658 0 1.193.535 1.193 1.193v23.85z"/><path d="M25.062 51.142a2.387 2.387 0 002.385-2.385 2.387 2.387 0 00-2.385-2.385 2.387 2.387 0 00-2.385 2.385 2.387 2.387 0 002.385 2.385zm0-3.577a1.194 1.194 0 010 2.385 1.194 1.194 0 010-2.385zm-3.578-5.963h29.813V20.137H21.484v21.465zm1.193-20.273h27.427v19.08H22.677V21.33zm13.117 26.236h-5.962v3.577h5.962v-3.578zm-1.192 2.385h-3.578v-1.193h3.578v1.193zm8.348-2.385h-5.963v3.577h5.962v-3.578zm-1.193 2.385h-3.578v-1.193h3.578v1.193zm8.347-2.385h-5.962v3.577h5.962v-3.578zm-1.192 2.385h-3.578v-1.193h3.578v1.193z"/><path d="M41.625 26.663l-2.207 8.278-2.937-12.92-3.51 11.233h-.92l-2.859-8.575-2.79 9.768h-2.533v1.192H27.3l1.98-6.926 1.91 5.734h2.658l2.452-7.846 3.026 13.315 2.563-9.61 1.264 2.948h5.759v-1.192h-4.973l-2.314-5.398z"/><path d="M27.447 36.832h1.192v1.193h-1.192v-1.193zm2.385 0h1.192v1.193h-1.192v-1.193zm2.385 0h1.192v1.193h-1.192v-1.193z"/></g><defs><clipPath id="clip0"><path fill="#fff" transform="translate(16.56 16.56)" d="M0 0h38.16v38.16H0z"/></clipPath></defs></svg>