<svg width="73" height="73" fill="none" xmlns="http://www.w3.org/2000/svg"><g clip-path="url(#clip0)" fill="#fff"><path d="M68.732 0H7.14a4.564 4.564 0 00-4.563 4.557v45.565c0 1.68.924 3.133 2.281 3.923V67.21a3.424 3.424 0 003.422 3.418h59.313a3.424 3.424 0 003.422-3.418V54.045c1.357-.79 2.28-2.244 2.28-3.923V4.557A4.564 4.564 0 0068.733 0zm0 67.21a1.14 1.14 0 01-1.14 1.138H8.279c-.63 0-1.14-.51-1.14-1.139V54.68h61.593v12.53zm2.282-17.088a2.282 2.282 0 01-2.282 2.278H7.14a2.282 2.282 0 01-2.282-2.278V4.557A2.282 2.282 0 017.14 2.278h61.593a2.282 2.282 0 012.282 2.279v45.565z"/><path d="M16.264 66.07a4.564 4.564 0 004.562-4.556 4.564 4.564 0 00-4.562-4.557 4.564 4.564 0 00-4.563 4.557 4.564 4.564 0 004.563 4.556zm0-6.835a2.282 2.282 0 012.28 2.279 2.282 2.282 0 01-4.562 0 2.282 2.282 0 012.282-2.279zM9.42 47.843h57.03V6.834H9.42v41.009zm2.28-38.73h52.47v36.452H11.7V9.112zm25.095 50.121H25.389v6.835h11.406v-6.835zm-2.281 4.557H27.67v-2.278h6.844v2.278zm15.968-4.557H39.076v6.835h11.406v-6.835zm-2.28 4.557h-6.845v-2.278h6.844v2.278zm15.968-4.557H52.764v6.835H64.17v-6.835zm-2.281 4.557h-6.844v-2.278h6.844v2.278z"/><path d="M47.95 19.304l-4.224 15.814-5.617-24.684-6.715 21.462h-1.761l-5.468-16.384-5.34 18.662h-4.843v2.279h6.564l3.785-13.234 3.657 10.955h5.083l4.691-14.99 5.789 25.439 4.902-18.361 2.418 5.634H61.89v-2.278h-9.514L47.95 19.304z"/><path d="M20.826 38.73h2.281v2.279h-2.28V38.73zm4.563 0h2.28v2.279h-2.28V38.73zm4.562 0h2.281v2.279h-2.28V38.73z"/></g><defs><clipPath id="clip0"><path fill="#fff" d="M0 0h73v72.905H0z"/></clipPath></defs></svg>