<svg width="76" height="79" fill="none" xmlns="http://www.w3.org/2000/svg"><g clip-path="url(#clip0)" fill="#fff"><path d="M19.549 23.475c.648 0 1.173-.546 1.173-1.22 0-.672-.526-1.218-1.174-1.218-.648 0-1.173.546-1.173 1.219s.525 1.219 1.174 1.219zm7.041 0c.648 0 1.173-.546 1.173-1.22 0-.672-.526-1.218-1.174-1.218-.648 0-1.173.546-1.173 1.219s.525 1.219 1.174 1.219zm.926 3.238l.123-.257-2.1-1.09-.123.258c-.447.928-1.346 1.506-2.347 1.506-1 0-1.9-.578-2.346-1.506l-.124-.258-2.099 1.091.123.257c.847 1.76 2.551 2.854 4.446 2.854 1.896 0 3.6-1.094 4.447-2.855zm27.236-2.02c-7.764 0-14.081 6.56-14.081 14.625 0 8.065 6.317 14.625 14.081 14.625 7.765 0 14.082-6.56 14.082-14.625 0-8.064-6.317-14.625-14.082-14.625zm-10.56 19.5c0-.33.119-.628.343-.861l2.347-2.438c.225-.233.512-.357.83-.357.318 0 .604.124.83.357.223.233.343.532.343.862 0 .33-.12.629-.344.861l-2.347 2.438a1.158 1.158 0 01-1.659 0 1.22 1.22 0 01-.344-.862zm10.584 3.897c-.127-.658.286-1.302.928-1.436.587-.124 1.25.31 1.374.958l.669 3.476c-.748.206-1.522.334-2.32.381l-.651-3.38zm5.196 2.128l-.594-3.083c-.327-1.705-1.776-2.942-3.447-2.942-.239 0-.476.026-.698.074-1.902.396-3.14 2.326-2.76 4.302l.538 2.788c-2.636-.41-4.986-1.727-6.744-3.643a3.463 3.463 0 001.587-.934l2.346-2.438a3.707 3.707 0 001.032-2.586 3.7 3.7 0 00-1.032-2.585c-1.329-1.381-3.648-1.381-4.977 0l-2.037 2.116a12.499 12.499 0 01-.168-1.969c0-6.72 5.264-12.187 11.734-12.187s11.735 5.467 11.735 12.187c0 .309-.022.611-.045.913-.618-.56-1.418-.913-2.302-.913-1.941 0-3.52 1.64-3.52 3.657 0 2.008 1.567 3.641 3.499 3.653a11.913 11.913 0 01-4.147 3.59zm4.168-6.025c-.647 0-1.173-.546-1.173-1.218 0-.673.526-1.22 1.173-1.22s1.173.547 1.173 1.22c0 .672-.526 1.218-1.173 1.218z"/><path d="M73.527 39.318c0-10.751-8.423-19.5-18.775-19.5-9.72 0-17.736 7.713-18.68 17.554-.033-.007-.065-.02-.097-.028l-7.254-1.506-.693-2.88a9.712 9.712 0 003.738-4.607h.69c2.59 0 4.694-2.187 4.694-4.875a4.95 4.95 0 00-1.006-2.981l.629-2.61c.25-1.044.377-2.118.377-3.193 0-6.58-5.156-11.936-11.492-11.936H22.36c-3.597 0-7.034 1.785-9.194 4.775l-.303.42-.179.125C10.37 9.678 8.988 12.36 8.988 15.25c0 .704.083 1.408.247 2.09l.758 3.154a4.951 4.951 0 00-1.005 2.98c0 2.688 2.105 4.875 4.693 4.875h.692a9.712 9.712 0 003.737 4.606l-.694 2.88-7.253 1.508c-2.69.558-5.116 2.093-6.83 4.317a12.483 12.483 0 00-2.56 7.58v9.577H3.12v19.5h39.898v-19.5h2.347V56.18a18.257 18.257 0 004.693 1.996v15.267c0 2.689 2.106 4.875 4.694 4.875 2.589 0 4.694-2.186 4.694-4.875V58.176c8.084-2.173 14.081-9.791 14.081-18.858zm-43.913-.809l-1.387 5.04-3.266-2.035 3.187-3.31 1.466.305zm2.843-12.597h-.081c.048-.4.08-.805.08-1.219v-3.656c1.295 0 2.347 1.093 2.347 2.438 0 1.344-1.052 2.437-2.346 2.437zm-18.776 0c-1.294 0-2.346-1.093-2.346-2.437 0-1.345 1.052-2.438 2.346-2.438v3.656c0 .413.033.82.081 1.22h-.08zm.13-7.312h-.13c-.58 0-1.13.124-1.645.325l-.523-2.175a6.364 6.364 0 01-.178-1.5c0-2.073.991-3.997 2.651-5.148l.513-.354.545-.756c1.719-2.379 4.454-3.799 7.317-3.799h3.297c5.042 0 9.145 4.261 9.145 9.5 0 .876-.103 1.75-.308 2.6l-.393 1.632a4.498 4.498 0 00-1.645-.325v-.34c0-1.829-1.433-3.317-3.193-3.317-.34 0-.677.056-1.01.171l-1.083.375a12.223 12.223 0 01-3.996.673c-1.352 0-2.453-1.142-2.453-2.547 0-.971.52-1.845 1.354-2.278l.343-.178-1.047-2.183-.344.178c-1.442.75-2.403 2.166-2.61 3.794l-.843.438c-2.011 1.046-3.371 2.977-3.764 5.214zm2.217 6.093v-4.765c0-1.858.994-3.53 2.595-4.36l.112-.058c.72 1.811 2.439 3.09 4.44 3.09 1.612 0 3.206-.27 4.74-.799l1.075-.374c.557-.194 1.12.254 1.12.833v6.433c0 4.033-3.158 7.313-7.041 7.313-3.883 0-7.04-3.28-7.04-7.313zm7.041 9.75c.972 0 1.91-.154 2.792-.44l.603 2.505-3.395 3.525-3.394-3.525.604-2.505c.88.286 1.818.44 2.79.44zm-5.08 3.761l3.187 3.31-3.267 2.036-1.387-5.04 1.467-.306zM5.467 58.818h4.694v17.063H5.467V58.818zm35.204 17.063h-4.694V58.818h4.694v17.063zm2.347-19.5h-7.041v-2.15c0-1.595.363-3.192 1.05-4.618l-2.1-1.09a13.23 13.23 0 00-1.297 5.708v21.65H12.508V54.23c0-1.97-.448-3.945-1.297-5.709l-2.099 1.091a10.71 10.71 0 011.049 4.618v2.15h-7.04v-7.14a9.97 9.97 0 012.045-6.057c1.37-1.778 3.308-3.004 5.459-3.45l3.59-.746 2.278 8.286 5.403-3.366v7.598h2.346v-7.598l5.403 3.366 2.279-8.286 3.59.746c.165.034.326.095.49.14.162 5.915 2.858 11.175 7.014 14.643v1.864zm14.081 17.062c0 1.345-1.052 2.438-2.347 2.438-1.294 0-2.347-1.093-2.347-2.438V58.65c.771.101 1.55.17 2.347.17.797 0 1.576-.069 2.347-.17v14.794zm-2.347-17.062c-9.059 0-16.428-7.654-16.428-17.063 0-9.408 7.37-17.062 16.428-17.062 9.06 0 16.428 7.654 16.428 17.062 0 9.41-7.369 17.063-16.428 17.063z"/><path d="M62.967 35.662c0-.977-.366-1.895-1.032-2.585l-2.347-2.438c-1.33-1.38-3.648-1.38-4.977 0a3.701 3.701 0 00-1.032 2.585 3.7 3.7 0 001.032 2.585l2.347 2.438a3.43 3.43 0 002.488 1.07c.94 0 1.825-.38 2.49-1.07a3.701 3.701 0 001.03-2.585zm-2.691.861a1.158 1.158 0 01-1.66 0l-2.346-2.437a1.22 1.22 0 01-.344-.862c0-.33.12-.629.344-.861a1.14 1.14 0 011.66-.001l2.346 2.438c.224.233.344.531.344.862 0 .33-.12.629-.344.861zm-12.564-3.298h2.347v2.437h-2.347v-2.437zm5.868 6.093h2.346v2.438h-2.347v-2.438z"/></g><defs><clipPath id="clip0"><path fill="#fff" transform="translate(.773 .62)" d="M0 0h75.101v78H0z"/></clipPath></defs></svg>