<svg width="102" height="102" fill="none" xmlns="http://www.w3.org/2000/svg"><circle cx="51" cy="51" r="51" fill="#F0C53F"/><path d="M16.928 60.288c2.976 0 5.592-1.944 5.592-5.328 0-3.24-2.232-4.728-4.848-4.728-.624 0-1.128.096-1.704.36l.264-2.856h5.592V44.76h-8.64l-.432 7.704 1.584 1.008c.912-.576 1.368-.768 2.256-.768 1.416 0 2.4.816 2.4 2.352 0 1.56-1.008 2.376-2.568 2.376-1.296 0-2.376-.672-3.288-1.512l-1.584 2.232c1.2 1.2 2.88 2.136 5.376 2.136zm13.088 0c3.264 0 5.448-2.784 5.448-7.968s-2.184-7.848-5.448-7.848c-3.264 0-5.448 2.664-5.448 7.848 0 5.184 2.184 7.968 5.448 7.968zm0-2.736c-1.176 0-2.112-1.08-2.112-5.232 0-4.176.936-5.112 2.112-5.112 1.2 0 2.112.936 2.112 5.112 0 4.152-.912 5.232-2.112 5.232zm12.68 2.736c3.263 0 5.447-2.784 5.447-7.968s-2.184-7.848-5.448-7.848c-3.264 0-5.448 2.664-5.448 7.848 0 5.184 2.184 7.968 5.448 7.968zm0-2.736c-1.177 0-2.113-1.08-2.113-5.232 0-4.176.936-5.112 2.112-5.112 1.2 0 2.112.936 2.112 5.112 0 4.152-.912 5.232-2.112 5.232zM55.403 60h3.528v-9.144h4.656v-2.76h-8.184V60zm10.36 4.416h3.527v-3.48l-.12-1.896c.84.792 1.8 1.248 2.832 1.248 2.568 0 5.016-2.352 5.016-6.432 0-3.672-1.776-6.048-4.656-6.048-1.248 0-2.448.624-3.384 1.464h-.096l-.24-1.176h-2.88v16.32zm5.423-7.008c-.6 0-1.272-.192-1.896-.768v-4.872c.696-.744 1.32-1.08 2.04-1.08 1.416 0 2.064 1.08 2.064 3.216 0 2.448-.984 3.504-2.208 3.504zM79.521 60h3.528v-4.536h3.816V60h3.528V48.096h-3.528v4.296h-3.816v-4.296H79.52V60z" fill="#fff"/></svg>