<svg width="95" height="95" fill="none" xmlns="http://www.w3.org/2000/svg"><g clip-path="url(#clip0)" fill="#87AD3B"><path d="M57.043 22.106c-.025-.024-.05-.049-.074-.049C49.86 16.91 48.316 4.922 48.291 4.75a1.96 1.96 0 00-2.181-1.716 1.96 1.96 0 00-1.716 2.182c.073.54 1.667 13.287 9.732 19.611-.245.883-1.177 2.598-1.52 3.211-.27.49-.49.883-.638 1.202-.024.049-.049.098-.049.122-.392 1.103-.76 2.206-1.127 3.285-1.3 3.898-2.525 7.55-4.756 10.81-2.892 4.094-6.25 7.698-8.972 9.61-1.814 1.25-3.824 2.157-5.932 3.089-1.937.882-3.971 1.764-5.883 2.99a28.548 28.548 0 00-2.942 2.182c-1.863 1.52-3.628 2.942-5.81 3.162-.367.025-.71.074-1.054.098-2.23.196-4.56.393-7.035 1.839C-.27 71.55-.074 83.34.024 89.004a1.962 1.962 0 001.961 1.936h.025a1.983 1.983 0 001.936-1.985v-.025c-.171-7.918.515-15.688 6.398-19.145 1.692-.98 3.334-1.127 5.393-1.3.368-.024.736-.073 1.103-.097 3.334-.319 5.737-2.28 7.894-3.996a25.008 25.008 0 012.574-1.912c1.691-1.078 3.48-1.887 5.393-2.72 2.181-.981 4.461-1.986 6.57-3.457 4.46-3.138 8.432-8.433 9.952-10.59 2.55-3.726 3.947-7.845 5.27-11.816.344-1.03.711-2.083 1.079-3.138.098-.171.27-.514.466-.833 1.397-2.525 3.31-5.981 1.005-7.82z"/><path d="M90.48 28.48c-4.045-7.501-10.517-12.036-18.705-13.115h-.098c-.49-.049-.956-.049-1.397-.049-.907-.024-1.74-.024-2.23-.319-.025 0-.025-.024-.05-.024-1.569-.883-7.746-7.967-8.09-12.992A1.95 1.95 0 0057.828.167a1.95 1.95 0 00-1.814 2.083c.417 6.521 7.33 14.586 10.05 16.155 1.373.809 2.844.833 4.168.858.392 0 .76 0 1.103.049 6.962.907 12.233 4.657 15.689 11.105 2.868 5.393 4.314 12.428 4.045 19.856C90.308 69 81.042 82.582 64.96 88.538c-4.56 1.716-20.42 5.173-33.192-1.446 0 0-.024 0-.024-.024-2.354-1.177-4.51-3.138-6.864-6.202l-.025-.05c-1.838-2.475-4.339-5.883-9.266-3.946-5.466 2.06-5.466 9.977-5.466 13.335 0 1.079.882 1.962 1.96 1.962a1.967 1.967 0 001.962-1.962c0-2.353 0-8.555 2.941-9.683h.025c1.936-.76 2.672-.147 4.706 2.599l.05.049.024.025c2.696 3.554 5.32 5.883 8.212 7.33 5.54 2.867 12.012 4.313 19.219 4.313 1.005 0 2.01-.024 3.04-.073 6.618-.368 11.987-1.814 14.07-2.623 8.874-3.285 15.86-8.678 20.813-16.056 4.78-7.134 7.427-15.812 7.82-25.74.294-8.114-1.3-15.86-4.487-21.866z"/><path d="M84.596 47.184c-.318-.735-1.422-2.868-3.554-3.162h-.074c-1.054-.098-3.089.171-4.829 3.236-4.094 6.3-10.418 9.707-15.027 11.472-7.305 2.844-14.708 3.334-22.552 3.824-2.01.123-4.364.368-6.62 1.275-3.554 1.348-6.054 4.045-6.838 7.403-.785 3.358.22 6.888 2.794 9.707 1.74 1.863 4.216 3.359 7.55 4.584a36.452 36.452 0 0012.65 2.207c3.137 0 6.275-.392 9.34-1.128 6.912-1.667 13.555-5.368 19.193-10.712 4.266-4.119 7.06-8.335 8.556-12.92 1.912-5.319 1.691-11.055-.589-15.786zm-3.138 14.488c0 .024-.024.049-.024.049-1.3 3.97-3.75 7.673-7.55 11.325-5.124 4.878-11.154 8.237-17.405 9.756-6.741 1.618-13.556 1.3-19.709-.956-2.696-1.005-4.731-2.206-6.006-3.579-1.667-1.814-2.353-4.044-1.863-6.128.49-2.084 2.108-3.775 4.437-4.658.025 0 .025 0 .05-.024 1.764-.711 3.725-.907 5.417-1.005 7.77-.49 15.836-1.005 23.68-4.07 9.34-3.554 14.365-9.045 16.939-13.04a.553.553 0 00.073-.123c.221-.466.564-.883.956-1.226.221.245.393.515.515.809 0 .025.025.049.05.074 1.838 3.8 2.01 8.457.44 12.796z"/></g><defs><clipPath id="clip0"><path fill="#fff" d="M0 0h95v95H0z"/></clipPath></defs></svg>