<svg width="101" height="99" fill="none" xmlns="http://www.w3.org/2000/svg"><g clip-path="url(#clip0)" fill="#87AD3B"><path d="M14.87 86.362c2.561 0 4.637-2.09 4.637-4.668 0-2.579-2.076-4.669-4.636-4.669s-4.637 2.09-4.637 4.669c0 2.578 2.076 4.668 4.637 4.668z"/><path d="M98.171 12.149a17.791 17.791 0 00-6.341-6.266 17.641 17.641 0 00-8.564-2.382V2.334c0-.619-.244-1.213-.679-1.65a2.31 2.31 0 00-3.278 0 2.342 2.342 0 00-.68 1.65v6.664c0 .619.245 1.213.68 1.65a2.31 2.31 0 003.278 0 2.342 2.342 0 00.679-1.65v-.829c2.21.041 4.374.649 6.287 1.766a13.048 13.048 0 014.643 4.618 17.447 17.447 0 012.187 8.461 17.45 17.45 0 01-2.187 8.461L85.573 47.85a15.872 15.872 0 01-5.818 6.19 15.728 15.728 0 01-8.155 2.28c-2.873 0-5.693-.788-8.155-2.28a15.873 15.873 0 01-5.817-6.19l-8.589-16.34c-3.118-5.952-3.257-12.662-.348-17.506a12.035 12.035 0 014.359-4.267 11.933 11.933 0 015.876-1.568v.829c0 .619.244 1.213.679 1.65a2.31 2.31 0 003.278 0 2.342 2.342 0 00.68-1.65V2.334a2.34 2.34 0 00-.68-1.65 2.31 2.31 0 00-3.278 0 2.342 2.342 0 00-.68 1.65v1.167a16.417 16.417 0 00-8.16 2.136 16.558 16.558 0 00-6.05 5.917c-3.731 6.255-3.65 14.728.221 22.173l8.6 16.339a20.317 20.317 0 008.844 8.8l6.954 15.066v8.473c0 3.17-1.25 6.209-3.476 8.45a11.828 11.828 0 01-8.393 3.5 11.829 11.829 0 01-8.392-3.5 11.992 11.992 0 01-3.476-8.45V57.383a16.672 16.672 0 00-4.984-11.465 16.446 16.446 0 00-11.515-4.713 16.443 16.443 0 00-11.515 4.713 16.673 16.673 0 00-4.984 11.465v9.535a14.85 14.85 0 00-9.357 5.515A15.044 15.044 0 00.092 82.88a15.013 15.013 0 004.729 9.823 14.815 14.815 0 0010.096 3.98c3.742 0 7.347-1.422 10.095-3.98a15.013 15.013 0 004.73-9.823 15.044 15.044 0 00-3.151-10.446 14.85 14.85 0 00-9.356-5.515v-9.535a11.989 11.989 0 013.602-8.208 11.826 11.826 0 018.26-3.369c3.084 0 6.047 1.209 8.26 3.37a11.988 11.988 0 013.604 8.207v24.998c0 4.408 1.739 8.635 4.834 11.751A16.448 16.448 0 0057.465 99c4.378 0 8.576-1.75 11.671-4.868a16.677 16.677 0 004.834-11.75v-8.473l6.955-15.067a20.34 20.34 0 008.855-8.8l8.588-16.338a22.139 22.139 0 002.7-10.803 22.136 22.136 0 00-2.897-10.752zM25.105 81.693c0 2.038-.6 4.03-1.725 5.725a10.25 10.25 0 01-4.593 3.795 10.17 10.17 0 01-5.913.587 10.213 10.213 0 01-5.24-2.82 10.327 10.327 0 01-2.802-5.277 10.37 10.37 0 01.583-5.954 10.29 10.29 0 013.77-4.624 10.185 10.185 0 015.685-1.737 10.21 10.21 0 017.234 3.021 10.353 10.353 0 013 7.284zm46.5-13.876l-3.221-7.073c2.146.343 4.333.343 6.479 0l-3.257 7.073z"/></g><defs><clipPath id="clip0"><path fill="#fff" d="M0 0h101v99H0z"/></clipPath></defs></svg>