<svg width="107" height="107" fill="none" xmlns="http://www.w3.org/2000/svg"><g clip-path="url(#clip0)" fill="#87AD3B"><path d="M58.315 15.654a1.783 1.783 0 10-2.521 2.521l7.916 7.916a3.51 3.51 0 00.91 3.433c3.14 3.14 5.494 5.957 10.89 6.599a17.772 17.772 0 0110.636 4.838l8.738 8.738a7.134 7.134 0 109.874-10.3l-8.526-8.526a17.776 17.776 0 01-4.836-10.636c-.663-5.528-3.76-8.048-6.598-10.891a3.567 3.567 0 00-3.431-.908L73.45.522a1.783 1.783 0 00-2.521 2.522l7.566 7.566-2.525 2.522-7.563-7.565a1.783 1.783 0 00-2.522 2.522l7.565 7.565-2.521 2.521-7.567-7.565a1.783 1.783 0 00-2.522 2.522l7.567 7.565-2.523 2.523-7.569-7.566zm29.54 5.01a21.3 21.3 0 005.856 12.732l8.526 8.526a3.796 3.796 0 01.394 5.063 3.68 3.68 0 01-5.225.194l-8.739-8.738a21.296 21.296 0 00-12.733-5.858c-4.205-.501-6.063-2.853-8.793-5.58l15.137-15.128c2.821 2.816 5.077 4.592 5.58 8.788h-.004z"/><path d="M80.625 73.203c-2.156-6.256.615-14.69 1.371-28.557a1.786 1.786 0 10-3.566-.196c-.735 13.52-3.448 21.817-1.465 29.008-7.338.672-16.331 2.502-16.331 6.792a4.177 4.177 0 002.425 3.389l.872 4.36c-2.122.298-4.433.535-6.905.713V76.377a33.475 33.475 0 007.904-14.128c2.853-.754 8.187-3.37 8.187-12.387 0-4.17-.963-6.685-2.946-7.688a4.303 4.303 0 00-3.164-.228c0-1.136-.039-2.261-.12-3.328a1.783 1.783 0 00-.511-1.121c-6.88-6.938-9.844-7.18-22.684-7.18-8.539 0-11.743-4.88-12.894-7.79a1.783 1.783 0 00-2.746-.756c-5.093 3.924-7.599 10.522-7.668 20.177a4.308 4.308 0 00-3.162.226c-1.992 1.003-2.955 3.517-2.955 7.688 0 8.988 5.298 11.615 8.157 12.377a33.114 33.114 0 007.959 14.213V88.71C12.127 87.384 7.478 83.362 5.04 80.607c11.77-5.628 2.08-28.325 3.798-46.247 1.754-18.197 17.02-19.034 21.666-18.868a1.93 1.93 0 001.111-.212 43.616 43.616 0 0124.177-4.339 1.784 1.784 0 00.383-3.547 47.635 47.635 0 00-25.835 4.524c-11.042-.283-23.435 5.322-25.054 22.1-1.794 18.724 7.925 41.323-3.549 43.966a1.801 1.801 0 00-.879 3.3c2.907 2.676 5.063 9.302 29.72 11.025a5.371 5.371 0 005.185 4.002h15.943a5.263 5.263 0 005.13-4.005c2.8-.195 5.41-.464 7.796-.805 1.623 8.111 1.352 5.885 1.352 10.149a5.35 5.35 0 005.35 5.35H96.3a5.35 5.35 0 005.35-5.35c0-4.522-.476-1.013 2.925-18.011A4.177 4.177 0 00107 80.25c0-6.44-19.829-7.358-26.375-7.047zM68.56 45.358c.04.02.99.535.99 4.504 0 4.77-1.784 7.073-3.653 8.18a74.904 74.904 0 001.091-12.235c.82-.469 1.375-.551 1.572-.45zm-50.727 4.504c0-3.96.948-4.485.99-4.504.195-.098.75-.018 1.569.45a75.96 75.96 0 001.07 12.224c-1.864-1.111-3.63-3.413-3.63-8.17zm9.931 16.516c-3.196-6.823-3.838-14.235-3.838-23.979 0-7.515 1.53-12.88 4.669-16.305 1.994 3.34 6.302 7.79 15.096 7.79 12.34 0 14.181.187 19.683 5.655.055.923.082 1.883.082 2.853 0 9.723-.65 17.12-3.883 23.977-3.745 7.973-9.084 12.016-15.882 12.016-6.852.007-12.209-4.034-15.927-12.007zm23.941 26.366H35.763a1.784 1.784 0 01-1.794-2.01c0-.09-.02 1.276-.02-11.475a18.794 18.794 0 0019.51-.043V90.95a1.756 1.756 0 01-1.753 1.794zm32.11-16.06c10.861 0 18.246 2.254 19.512 3.566-1.266 1.313-8.65 3.567-19.511 3.567-10.86 0-18.245-2.254-19.511-3.567 1.266-1.312 8.65-3.566 19.51-3.566zm14.268 24.966c0 .985-.799 1.784-1.784 1.784H71.334a1.784 1.784 0 01-1.784-1.784v-1.783h17.834a1.783 1.783 0 000-3.567H69.229l-2.2-10.998a69.674 69.674 0 0033.576 0c-3.007 15.032-2.521 11.355-2.521 16.348z"/></g><defs><clipPath id="clip0"><path fill="#fff" d="M0 0h107v107H0z"/></clipPath></defs></svg>