<svg width="108" height="106" fill="none" xmlns="http://www.w3.org/2000/svg"><g clip-path="url(#clip0)" fill="#87AD3B"><path d="M106.239 45.553v-31.59a14.12 14.12 0 00-2.537-7.87A14.054 14.054 0 0097.2 1.004c-6.65-2.593-13.675.254-18.021 3.758-5.967 4.849-8.618 12.216-8.103 22.552.26 4.498.94 8.962 2.033 13.333l.065.3c.497 2.2.843 3.694 1.2 4.699a5.272 5.272 0 00-1.593 3.758v8.833a5.303 5.303 0 00.826 2.894 5.278 5.278 0 002.265 1.973c0 1.673.103 3.327.206 4.933.113 1.786.225 3.627.225 5.422 0 .469.186.918.516 1.25a1.758 1.758 0 003.006-1.25c0-1.88-.122-3.805-.234-5.638a104.65 104.65 0 01-.188-4.21h20.954l.159 1.767a53.827 53.827 0 01-.684 18.248c-2.285 9.18-7.38 15.034-15.155 17.336-8.533 2.556-17.629 1.222-26.424-.075l-1.377-.197c-2.5-.367-5.723-.752-9.067-1.156-4.815-.583-9.788-1.184-13.32-1.785-1.142-.198-2.285-.414-3.447-.63a64.25 64.25 0 00-14.369-1.57H12.6a1.766 1.766 0 01-1.583-.939l-4.974-9.48a1.517 1.517 0 01.29-1.786l2.099-2.152 5.498 8.194a1.776 1.776 0 001.826.74 1.771 1.771 0 001.382-1.409 1.785 1.785 0 00-.276-1.333l-5.742-8.54-.103-.17c-.272-.48-.58-.996-.852-1.522-.844-1.57-1.05-2.575-.703-3.355a2.263 2.263 0 011.967-1.315 3.409 3.409 0 012.51.94 451.454 451.454 0 014.993 4.623c2.463 2.292 4.992 4.698 7.578 6.925 4.402 3.861 10.79 4.294 16.944 4.34 6.13.11 12.261-.1 18.369-.629a1.75 1.75 0 001.186-.61c.3-.351.45-.807.415-1.27a1.743 1.743 0 00-1.192-1.545 1.728 1.728 0 00-.68-.08 171.91 171.91 0 01-18.013.63c-5.508-.075-11.175-.404-14.688-3.44-2.529-2.198-5.039-4.556-7.493-6.83-1.686-1.588-3.353-3.186-5.049-4.69a6.901 6.901 0 00-5.227-1.878 5.711 5.711 0 00-2.884 1.019 5.737 5.737 0 00-1.949 2.363 6.596 6.596 0 00.394 5.638l-2.81 2.819a5.051 5.051 0 00-.937 5.91l4.964 9.538a5.302 5.302 0 001.951 2.062 5.28 5.28 0 002.733.757h4.14c4.594 0 9.174.507 13.657 1.512 1.17.216 2.332.432 3.494.63 3.615.629 8.636 1.24 13.497 1.813 3.307.404 6.5.79 8.974 1.147l1.377.197a110.972 110.972 0 0016.054 1.569 41.3 41.3 0 0011.887-1.607c8.927-2.668 14.987-9.537 17.563-19.863a56.671 56.671 0 00.787-19.413l-.141-1.588a5.28 5.28 0 002.97-1.857 5.315 5.315 0 001.161-3.311V49.47a5.297 5.297 0 00-1.761-3.918h.037zm-28.643-1.39c-.188-.668-.497-1.88-.937-3.985l-.075-.357a67.639 67.639 0 01-1.939-12.685c-.468-9.236 1.686-15.466 6.791-19.61 3.419-2.819 9.273-5.29 14.528-3.242a10.53 10.53 0 014.871 3.792 10.58 10.58 0 011.92 5.877v30.21h-25.16zm26.882 14.094a1.759 1.759 0 01-1.76 1.767H78.064a1.76 1.76 0 01-1.245-.518 1.77 1.77 0 01-.516-1.25v-8.832c0-.468.186-.918.516-1.249.33-.331.778-.517 1.245-.517h24.654a1.759 1.759 0 011.76 1.766v8.833z"/><path d="M75.872 92.337a1.759 1.759 0 00-3.008 1.25c0 .468.186.918.516 1.25A7.935 7.935 0 0079 97.17c2.108 0 4.13-.84 5.62-2.335a7.986 7.986 0 002.328-5.638 7.986 7.986 0 00-2.327-5.637 1.762 1.762 0 00-1.92-.384 1.762 1.762 0 00-1.088 1.633 1.773 1.773 0 00.516 1.25 4.44 4.44 0 011.296 3.138 4.45 4.45 0 01-1.296 3.139 4.422 4.422 0 01-3.129 1.3 4.413 4.413 0 01-3.128-1.3z"/><path d="M30.546 21.555l-3.447 3.457-7.428-7.423.112-.103a3.341 3.341 0 000-4.698l-1.78-1.785a3.32 3.32 0 00-4.683 0L.937 23.406a3.318 3.318 0 00-.72 3.62c.167.404.412.77.72 1.078l1.77 1.776a3.32 3.32 0 004.684 0l.103-.104 7.493 7.433-3.447 3.458a3.341 3.341 0 000 4.698l1.78 1.776a3.306 3.306 0 002.342.975 3.298 3.298 0 002.341-.975l2.005-2.04c.14.205.297.396.468.574l26.958 27.043a3.806 3.806 0 005.377 0l.403-.404 5.198.63a1.505 1.505 0 001.246-.433l.29-.254 17.338 17.43a1.506 1.506 0 002.487-1.09 1.516 1.516 0 00-.36-1.042l-17.376-17.43.262-.264a1.512 1.512 0 00.46-1.268l-.628-5.215.393-.395a3.756 3.756 0 001.137-2.697 3.77 3.77 0 00-1.137-2.696l-26.93-27.024a3.443 3.443 0 00-.58-.47l2.051-2.058a3.34 3.34 0 000-4.698l-1.77-1.776a3.332 3.332 0 00-3.66-.744c-.408.17-.779.42-1.09.735zM4.87 27.756L3.1 25.98a.31.31 0 010-.441l12.364-12.385a.31.31 0 01.355-.075.31.31 0 01.104.075l1.78 1.786a.312.312 0 010 .441L5.31 27.756a.31.31 0 01-.44 0zm5.086.188l7.906-7.93 7.11 7.131-7.906 7.931-7.11-7.132zm49.7 40.301l-1.582 1.616-2.136-.254 3.485-3.495.234 2.133zm.713-7.386l-.937.94-7.859 7.884-.936.94a.795.795 0 01-1.124 0L26.078 46.98l10.809-10.806 4.159 4.229-2.642 2.64a1.516 1.516 0 00.08 2.053 1.506 1.506 0 002.047.08l2.679-2.687 3.194 3.194-2.68 2.688a1.516 1.516 0 001.088 2.495c.38.015.75-.115 1.04-.362l2.678-2.688 3.194 3.205-2.679 2.687a1.505 1.505 0 002.127 2.133l2.678-2.688 3.185 3.195-2.707 2.688a1.525 1.525 0 000 2.133 1.5 1.5 0 001.639.328 1.5 1.5 0 00.487-.328l2.68-2.688 1.245 1.26a.79.79 0 01-.01 1.117zM33.42 32.67l1.34 1.344-10.81 10.872-1.349-1.344a.81.81 0 01-.121-.883l10.06-10.12a.794.794 0 01.88.16v-.029zm1.47-7.235a.31.31 0 010 .442l-4.28 4.294a3.248 3.248 0 00-.44.367l-9.695 9.744a4.162 4.162 0 00-.356.45l-4.28 4.285a.31.31 0 01-.44 0l-1.78-1.794a.309.309 0 01-.068-.34.309.309 0 01.068-.102l3.447-3.458 12.177-12.215 3.447-3.458a.318.318 0 01.45 0l1.75 1.785z"/></g><defs><clipPath id="clip0"><path fill="#fff" d="M0 0h108v106H0z"/></clipPath></defs></svg>