<svg width="105" height="105" fill="none" xmlns="http://www.w3.org/2000/svg"><g clip-path="url(#clip0)" fill="#87AD3B"><path d="M80.407 6.999a24.912 24.912 0 01-12.285-3.245A30.68 30.68 0 0052.99 0c-.165 0-.326.014-.49.017C52.336.02 52.175 0 52.01 0a30.68 30.68 0 00-15.132 3.755A24.544 24.544 0 0124.567 7H24.5C10.99 6.999 0 14.457 0 23.624a13.29 13.29 0 004.154 9.29 7.09 7.09 0 00-.654 2.96c0 5.397 6.15 9.625 14 9.625s14-4.228 14-9.625a8.358 8.358 0 00-3.932-6.743 8.4 8.4 0 012.931-3.087 3.707 3.707 0 014.858 1.033c.962 1.53 1.199 8.479 1.386 14.063.273 8.092.555 16.46 2.502 20.578a1.75 1.75 0 003.165-1.498c-1.637-3.462-1.925-11.821-2.169-19.198-.282-8.358-.525-13.594-1.925-15.81a7.193 7.193 0 00-9.522-2.225 11.966 11.966 0 00-4.31 4.515 19.32 19.32 0 00-6.984-1.253 16.653 16.653 0 00-11.224 3.824A9.56 9.56 0 013.5 23.624c0-7.238 9.42-13.125 21.082-13.125h.074a28.2 28.2 0 006.92-.875 11.486 11.486 0 00-1.826 6.125 1.75 1.75 0 003.5 0c0-6.65 8.594-12.075 19.25-12.234 10.656.159 19.25 5.584 19.25 12.234a1.75 1.75 0 003.5 0 11.467 11.467 0 00-1.827-6.125c2.288.579 4.64.872 7 .875h.077c11.58 0 21 5.887 21 13.125a9.561 9.561 0 01-2.775 6.449A16.653 16.653 0 0087.5 26.249a19.373 19.373 0 00-6.918 1.225 11.955 11.955 0 00-4.292-4.487 7.2 7.2 0 00-9.526 2.224c-1.4 2.217-1.641 7.453-1.925 15.811-.248 7.377-.525 15.736-2.168 19.198a1.75 1.75 0 103.164 1.498c1.946-4.118 2.23-12.486 2.503-20.578.187-5.584.423-12.534 1.387-14.063a3.705 3.705 0 014.86-1.031 8.343 8.343 0 012.903 3.041 8.377 8.377 0 00-3.988 6.787c0 5.397 6.15 9.625 14 9.625s14-4.228 14-9.625a7.084 7.084 0 00-.655-2.96 13.288 13.288 0 004.155-9.29c0-9.166-10.99-16.625-24.593-16.625zM17.5 29.749c2.4-.028 4.774.511 6.927 1.575l.014.01h.012A5.6 5.6 0 0128 35.874c0 3.325-4.809 6.125-10.5 6.125S7 39.199 7 35.874a3.85 3.85 0 01.7-2.128v-.014c1.53-2.3 5.395-3.983 9.8-3.983zm70 12.25c-5.691 0-10.5-2.8-10.5-6.125 0-3.892 6.023-6.125 10.5-6.125 4.405 0 8.269 1.683 9.8 3.981l.009.014a3.85 3.85 0 01.691 2.13c0 3.325-4.809 6.125-10.5 6.125z"/><path d="M52.5 82.25a1.75 1.75 0 001.75-1.75V47.901a8.766 8.766 0 007-8.575v-7a8.75 8.75 0 10-17.5 0v7a8.766 8.766 0 007 8.575v32.6c0 .966.783 1.75 1.75 1.75zm-5.25-42.922v-7a5.25 5.25 0 1110.5 0v7a5.25 5.25 0 01-5.233 5.25h-.034a5.25 5.25 0 01-5.233-5.25z"/></g><defs><clipPath id="clip0"><path fill="#fff" d="M0 0h105v105H0z"/></clipPath></defs></svg>