<svg width="112" height="112" fill="none" xmlns="http://www.w3.org/2000/svg"><g clip-path="url(#clip0)" fill="#87AD3B"><path d="M54.278 99.976l-.227-.045a13.888 13.888 0 01-8.21-5.239 13.992 13.992 0 01-2.776-9.36 20.552 20.552 0 011.463-5.576c.437-1.09.79-2.212 1.054-3.358.227-1.067 5.452-26.379 10.295-42.885 4.871-16.68 23.536-30.476 25.217-31.699.691-.647 2.218-1.934 3.517-.656 1.3 1.277.282 2.673-1.817 5.347-1.954 2.436-5.27 6.387-9.86 11.597-15.684 17.911-9.25 55.203-8.769 57.877 3.008 7.91 3.099 14.115.282 18.45-3.399 5.2-9.66 5.529-9.933 5.538l-.236.01zm11.15-77.34a40.475 40.475 0 00-6.061 11.917c-4.77 16.36-9.996 41.526-10.223 42.585a26.619 26.619 0 01-1.209 3.887 17.457 17.457 0 00-1.245 4.607 10.295 10.295 0 001.994 6.788 10.22 10.22 0 005.894 3.88c.909-.101 4.78-.713 6.843-3.897 2.063-3.185 1.872-8.559-.71-15.265l-.08-.31c-.292-1.497-6.28-33.287 4.797-54.191z"/><path d="M110.183 44.518H76.705a12.314 12.314 0 00-4.719 2.084 12.373 12.373 0 00-3.46 3.837c-2.19 4.006-1.844 9.307.937 15.704 4.034 9.288 10.786 24.8 5.388 33.688-2.89 4.772-9.16 7.509-18.628 8.129h-.446c-9.432-.593-15.739-3.33-18.628-8.13-5.398-8.887 1.354-24.398 5.388-33.687 2.79-6.387 3.108-11.67.964-15.676a12.372 12.372 0 00-3.46-3.838 12.314 12.314 0 00-4.719-2.084H1.817c-.482 0-.944.192-1.285.535a1.829 1.829 0 000 2.58c.341.343.803.535 1.285.535h32.987a8.726 8.726 0 013.156 1.457 8.764 8.764 0 012.342 2.576c1.59 2.965 1.227 7.163-1.09 12.482-4.599 10.557-11.55 26.516-5.162 37.046 3.535 5.84 10.768 9.17 21.491 9.882h.118c.115.014.23.014.346 0 .111.014.224.014.336 0h.118c10.723-.712 17.956-4.042 21.5-9.882 6.361-10.53-.572-26.461-5.161-37.046-2.308-5.292-2.726-9.49-1.118-12.446a8.728 8.728 0 012.36-2.625 8.688 8.688 0 013.201-1.472h32.978c.482 0 .944-.192 1.285-.534a1.828 1.828 0 00-1.285-3.115h-.036z"/><path d="M17.548 63.871a2.677 2.677 0 002.671-2.683 2.677 2.677 0 00-2.671-2.682 2.677 2.677 0 00-2.672 2.682 2.677 2.677 0 002.672 2.683zM3.516 79.893a2.677 2.677 0 002.672-2.683 2.677 2.677 0 00-2.672-2.683A2.677 2.677 0 00.845 77.21a2.677 2.677 0 002.671 2.683zm15.222 17.455a2.677 2.677 0 002.672-2.683 2.677 2.677 0 00-2.672-2.683 2.677 2.677 0 00-2.672 2.683 2.677 2.677 0 002.672 2.683zm75.996-.711a2.677 2.677 0 002.672-2.683 2.677 2.677 0 00-2.672-2.682 2.677 2.677 0 00-2.671 2.682 2.677 2.677 0 002.671 2.683zm14.022-16.031a2.677 2.677 0 002.671-2.683 2.677 2.677 0 00-2.671-2.683 2.677 2.677 0 00-2.672 2.683 2.677 2.677 0 002.672 2.683zM93.535 63.15a2.677 2.677 0 002.672-2.682 2.677 2.677 0 00-2.672-2.683 2.677 2.677 0 00-2.672 2.683 2.677 2.677 0 002.672 2.682z"/></g><defs><clipPath id="clip0"><path fill="#fff" transform="translate(0 .61)" d="M0 0h112v111H0z"/></clipPath></defs></svg>