<svg width="75" height="109" fill="none" xmlns="http://www.w3.org/2000/svg"><g clip-path="url(#clip0)" fill="#87AD3B"><path d="M63.569 108.999a1.81 1.81 0 01-1.113-.369 1.846 1.846 0 01-.661-1.966c0-.12 3.173-12.432 7.965-34.114 4.573-20.781-2.414-31.264-2.487-31.328l-.129-.212L47.372 2.685A1.852 1.852 0 0148.16.201a1.823 1.823 0 012.47.79l19.716 38.262c.915 1.342 7.746 12.588 2.982 34.123-4.802 21.756-7.957 34.114-7.984 34.243a1.834 1.834 0 01-1.774 1.379zm-46.824 0c-.125.009-.25.009-.375 0a1.824 1.824 0 01-1.158-.794 1.847 1.847 0 01-.26-1.385c0-.203 4.18-19.972 5.9-28.58.85-4.32.53-9.314-.961-14.84-.914-3.366-2.835-6.326-4.874-9.471a92.152 92.152 0 01-2.177-3.458L.256 29.286a1.85 1.85 0 01.636-2.524 1.822 1.822 0 012.51.639L15.977 48.55a92.292 92.292 0 002.103 3.337c2.104 3.237 4.28 6.584 5.341 10.51 1.646 6.079 1.985 11.642 1.015 16.552-1.72 8.625-5.862 28.413-5.898 28.615-.092.409-.32.774-.646 1.035a1.82 1.82 0 01-1.147.4z"/><path d="M43.148 65.8a12.67 12.67 0 01-3.97-.58 7.305 7.305 0 01-2.78-1.517 7.353 7.353 0 01-1.884-2.556c-.612-1.453-.43-3.458-.265-5.223.064-.644.119-1.241.119-1.664v-3.945c0-3.43-1.71-6.529-3.52-9.802l-.065-.12C25.607 30.977 17.257 15.99 17.257 15.99l3.192-1.839s8.331 15.043 13.535 24.468l.064.12c1.957 3.559 3.978 7.237 3.978 11.577v3.935c0 .598-.064 1.279-.128 2.005-.174 1.14-.174 2.3 0 3.439a3.775 3.775 0 002.433 2.023c3.255 1.076 8.614-.11 13.324-2.869a3.483 3.483 0 001.261-1.147c.32-.482.515-1.035.568-1.612.458-4.183-4.956-11.402-10.526-16.689C38.447 33.22 30.92 10.316 30.6 9.341a1.86 1.86 0 01.597-1.965 1.837 1.837 0 012.033-.197c.43.232.75.626.891 1.095 2.085 6.345 8.55 23.908 13.434 28.505C50.5 39.538 60.02 49.24 59.207 56.55a7.15 7.15 0 01-1.162 3.187 7.101 7.101 0 01-2.496 2.284 25.143 25.143 0 01-12.4 3.78z"/><path d="M41.007 57.276a1.821 1.821 0 01-1.444-.708 1.846 1.846 0 01.301-2.574c2.14-1.683 7.445-3.927 12.264-.377a1.836 1.836 0 01.728 1.202 1.85 1.85 0 01-.33 1.368 1.83 1.83 0 01-1.909.702 1.825 1.825 0 01-.647-.302c-3.777-2.759-7.682.184-7.847.303-.32.25-.712.385-1.116.386zm-.997 51.723a1.82 1.82 0 01-1.042-.331 1.847 1.847 0 01-.457-2.556c1.618-2.345 1.161-6.18.594-9.26a19.48 19.48 0 00-2.945-6.547c-.704-1.158-1.436-2.363-2.085-3.678a30.65 30.65 0 01-2.981-9.949c0-.064-.695-7.117 2.606-9.278a4.035 4.035 0 014.472.157c3.155 1.839 8.23 1.839 12.291 1.839h2.744c2.14 0 4.572 0 6.246 3.153 1.271 2.428 1.518 5.343 1.582 7.88a46.518 46.518 0 01-1.509 12.037 92.386 92.386 0 01-4.655 14.363c-.188.45-.546.807-.995.991-.45.185-.953.182-1.4-.007a1.835 1.835 0 01-.986-1.001 1.849 1.849 0 01.007-1.408 89.21 89.21 0 004.463-13.793 42.999 42.999 0 001.408-11.098c-.055-2.106-.238-4.497-1.162-6.244-.612-1.168-1.015-1.205-3.008-1.205h-2.744c-4.508 0-10.124 0-14.138-2.335a1.395 1.395 0 00-.65-.258c-.612.331-1.216 3.394-.914 5.793a27.052 27.052 0 002.652 8.718c.576 1.186 1.253 2.317 1.92 3.402a22.58 22.58 0 013.412 7.779c.704 3.78 1.207 8.57-1.18 12.036a1.829 1.829 0 01-1.546.8z"/><path d="M46.357 82.461a13.547 13.547 0 01-8.066-2.464 1.845 1.845 0 01-.297-2.588 1.83 1.83 0 012.574-.3c.21.166 4.573 3.421 11.313.46a1.822 1.822 0 012.589.853 1.847 1.847 0 01-.462 2.117c-.193.171-.419.3-.664.378a17.351 17.351 0 01-6.987 1.544zm19.279-12.873a1.749 1.749 0 01-1.08-.358 1.847 1.847 0 01-.393-2.565 3.499 3.499 0 00-.183-4.074 1.846 1.846 0 01.339-2.575 1.822 1.822 0 012.542.313 7.145 7.145 0 01.247 8.505 1.83 1.83 0 01-1.472.754z"/></g><defs><clipPath id="clip0"><path fill="#fff" d="M0 0h75v109H0z"/></clipPath></defs></svg>