<svg width="95" height="101" fill="none" xmlns="http://www.w3.org/2000/svg"><path d="M92.044 51.34c1.002-2.503 3.267-9.14.511-14.697-1.523-3.084-4.289-5.266-8.176-6.548a14.198 14.198 0 001.643-6.938c0-4.135-1.212-7.419-3.607-9.752a13.123 13.123 0 00-8.678-3.394 2.005 2.005 0 00-.891.25C71.373 5.736 67.475 0 59.589 0a13.224 13.224 0 00-12.094 7.49A13.204 13.204 0 0035.41 0c-7.886 0-11.784 5.736-13.257 10.232a2.005 2.005 0 00-.892-.25 13.162 13.162 0 00-8.687 3.423c-2.385 2.333-3.557 5.617-3.557 9.752a14.198 14.198 0 001.643 6.938c-3.938 1.282-6.653 3.464-8.216 6.548-2.756 5.556-.531 12.194.5 14.697C0 56.637-.731 61.612.702 66.128c1.724 5.456 6.183 8.6 8.317 9.842.21 4.815 1.743 8.49 4.55 10.933a13.253 13.253 0 008.306 3.003c1.142 4.596 4.9 11.013 13.387 11.013a13.348 13.348 0 0012.244-7.509 13.36 13.36 0 0012.255 7.509c8.476 0 12.244-6.447 13.386-11.013a13.283 13.283 0 008.307-3.003c2.805-2.443 4.328-6.118 4.549-10.933 2.124-1.242 6.573-4.386 8.307-9.842 1.412-4.516.66-9.491-2.265-14.788zM45.301 87.744c-.2 1.171-1.864 9.25-10.02 9.25-8.517 0-9.7-8.94-9.75-9.32l-.24-2.003-2.005.26s-4.168.501-7.084-2.062c-2.174-1.862-3.176-4.926-3.176-9.12v-1.292l-1.182-.531s-5.561-2.563-7.285-8.01c-1.192-3.634-.38-7.849 2.355-12.444l.55-.941-.45-.972c0-.07-3.457-7.098-.942-12.154 1.202-2.413 3.677-4.075 7.345-4.946a14.755 14.755 0 006.623 3.084 16.327 16.327 0 00-.781 7.298c.24 1.726.78 3.396 1.593 4.936a12.277 12.277 0 00-2.425 8.42c.651 4.756 4.83 7.55 5.01 7.67a2.006 2.006 0 002.042.08 2.004 2.004 0 001.012-2.166 2.002 2.002 0 00-.86-1.269s-2.835-1.932-3.226-4.855a7.282 7.282 0 01.922-4.265 20.376 20.376 0 003.727 3.434 2.004 2.004 0 002.205-3.344c-.06 0-5.321-3.595-6.083-9.181-.761-5.587 3.347-10.633 3.417-10.723a2 2 0 00-1.65-3.48 2.003 2.003 0 00-1.386.937 20.234 20.234 0 00-1.834 2.743c-2.304-.26-8.737-1.662-8.737-9.601 0-3.004.791-5.317 2.365-6.858a9.022 9.022 0 015.821-2.303c.104.01.208.01.31 0v4.685a2.002 2.002 0 002.005 2.003A2.005 2.005 0 0025.49 18.7v-5.446c.23-1.161 1.944-9.25 9.92-9.25s9.69 8.109 9.89 9.25v74.489zm45.18-22.858c-1.694 5.417-7.245 8.01-7.295 8.01l-1.172.53v1.292c0 4.195-1.072 7.259-3.176 9.11a10.026 10.026 0 01-7.075 2.063l-2.004-.28-.25 2.002c0 .38-1.222 9.322-9.74 9.322-8.136 0-9.85-8.11-10.02-9.252V13.255c.15-1.161 1.864-9.25 9.84-9.25s9.69 8.109 9.89 9.25v5.386a2.002 2.002 0 002.004 2.003 2.005 2.005 0 002.004-2.002v-4.626c.113.01.227.01.34 0a9.112 9.112 0 015.792 2.283c1.583 1.552 2.395 3.864 2.395 6.888 0 7.94-6.443 9.351-8.737 9.601a20.23 20.23 0 00-1.834-2.753 2.003 2.003 0 10-3.076 2.563c0 .05 4.178 5.066 3.406 10.723-.771 5.657-6.011 9.14-6.072 9.17a2.002 2.002 0 00-.57 2.754 2.002 2.002 0 001.673.901c.39.003.773-.108 1.102-.32a20.736 20.736 0 003.777-3.434 7.363 7.363 0 01.922 4.265c-.4 2.923-3.206 4.845-3.226 4.855a2.004 2.004 0 102.194 3.354c.18-.12 4.359-2.913 5.01-7.669a12.277 12.277 0 00-2.435-8.42 14.816 14.816 0 001.603-4.936 16.177 16.177 0 00-.791-7.298c2.44-.45 4.726-1.51 6.643-3.084 3.668.871 6.153 2.533 7.355 4.946 2.515 5.006-.912 12.084-.942 12.154l-.491 1.002.551.94c2.736 4.566 3.547 8.751 2.405 12.385z" fill="#87AD3B"/></svg>