<svg width="107" height="107" fill="none" xmlns="http://www.w3.org/2000/svg"><path d="M45.844 78.098a1.783 1.783 0 00-2.522 0c-.167.17-17.087 16.685-38.82 3.308a1.783 1.783 0 00-1.87 3.032A36.044 36.044 0 0021.73 90.2a37.205 37.205 0 0024.114-9.587 1.783 1.783 0 000-2.515zm-7.408 18.997c-.203.102-20.403 9.973-33.609-3.231a1.783 1.783 0 00-2.521 2.521 27.285 27.285 0 0019.93 7.888 44.743 44.743 0 0017.794-3.987 1.784 1.784 0 10-1.594-3.19zm65.932-12.65a1.784 1.784 0 00-1.869-3.032c-12.138 8.052-28.224 6.68-38.823-3.31a1.783 1.783 0 00-2.52 2.524 37.195 37.195 0 0024.114 9.587 36.045 36.045 0 0019.098-5.77zM66.97 100.286a44.742 44.742 0 0017.794 3.987c7.441.2 14.64-2.65 19.93-7.888a1.783 1.783 0 00-2.521-2.521c-13.172 13.17-33.406 3.33-33.61 3.231a1.783 1.783 0 00-1.593 3.191z" fill="#87AD3B"/><path d="M49.933 2.676h-21.4c-.87 0-1.614.63-1.758 1.489l-1.273 7.606a7.133 7.133 0 01-2.265 4.132c-9.76 8.738-10.051 9.325-10.238 9.701L.869 48.224a6.523 6.523 0 005.246 9.71l-1.774 3.303a6.5 6.5 0 005.54 9.794 6.46 6.46 0 006.062 8.328 6.29 6.29 0 005.571-3.253l.209-.33a6.338 6.338 0 0011.09-.206l9.577-17.718.089 6.764a6.38 6.38 0 0011.021 4.35 6.393 6.393 0 0011.026-4.35l.09-6.764 9.57 17.725a6.342 6.342 0 0011.09.194l.135.214a6.344 6.344 0 009.184 2.265 6.625 6.625 0 002.52-7.219 6.5 6.5 0 005.55-9.78l-1.784-3.317a6.524 6.524 0 005.243-9.717L94.026 25.65c-.212-.423-.503-1.005-10.263-9.748a7.133 7.133 0 01-2.265-4.132l-1.273-7.606a1.783 1.783 0 00-1.758-1.49h-21.4c-.985 0-1.784.8-1.784 1.784 0 4.913-.258 32.574-.975 35.528-.264.877-.535 1.808-.808 2.73-.26-.892-.535-1.798-.783-2.64-.763-3.124-1-30.102-1-35.618 0-.985-.799-1.783-1.784-1.783zm5.543 46.532c.073-.69 1.223-4.79 2.27-8.285.865-3.536 1.104-30.369 1.104-34.68h18.106l1.018 6.113a10.727 10.727 0 003.41 6.206c6.47 5.796 9.184 8.381 9.475 8.738l12.127 22.606a3.095 3.095 0 01-1.151 4.187 2.74 2.74 0 01-3.566-1.015l-7.75-14.529a1.784 1.784 0 00-3.148 1.68c10.948 20.52 5.123 9.63 12.17 22.734a3.069 3.069 0 01-.809 4.038 2.832 2.832 0 01-4.005-1.004c-1.024-1.935 3.811 7.388-10.878-20.33a1.783 1.783 0 10-3.151 1.669c5.813 10.974 10.905 20.608 12.7 23.934a3.11 3.11 0 01-.798 4.043 2.812 2.812 0 01-4.102-1.106c-4.776-7.527-1.512-1.728-13.89-25.091a1.783 1.783 0 10-3.152 1.67c9.031 17.046 10.627 20.099 10.85 20.409a3.082 3.082 0 01-.91 3.693 2.832 2.832 0 01-4.07-1.002l-12.84-23.774a1.783 1.783 0 00-3.353.826l-.179 13.623a2.902 2.902 0 01-.861 2.033 2.837 2.837 0 01-4.81-2.085l.193-15.3zm-3.76 15.301a2.837 2.837 0 01-4.814 2.092 2.9 2.9 0 01-.862-2.031l-.178-13.625a1.783 1.783 0 00-3.353-.825L29.67 73.868a2.83 2.83 0 01-4.076 1.008 3.083 3.083 0 01-.908-3.694c.223-.31 1.819-3.363 10.85-20.408a1.784 1.784 0 00-3.151-1.67C20.06 72.367 23.1 66.936 18.425 74.316a2.814 2.814 0 01-4.027.984 3.11 3.11 0 01-.8-4.043c1.806-3.343 7.592-14.29 12.702-23.934a1.783 1.783 0 10-3.151-1.669c-14.588 27.55-9.844 18.4-10.868 20.33a2.839 2.839 0 01-4 1.008 3.076 3.076 0 01-.806-4.056c6.884-12.807 1.471-2.675 12.162-22.72a1.784 1.784 0 10-3.147-1.68L8.739 53.07a2.766 2.766 0 01-3.567 1.015 3.098 3.098 0 01-1.154-4.182L16.09 27.387c.497-.588 3.237-3.19 9.528-8.825a10.727 10.727 0 003.41-6.206l1.015-6.114H48.15c0 4.125.239 31.148 1.127 34.775 1.024 3.403 2.174 7.505 2.243 8.123l.197 15.373v-.004z" fill="#87AD3B"/></svg>