<svg width="29" height="29" fill="none" xmlns="http://www.w3.org/2000/svg"><path d="M19.612 8.324l1.346.779c.269.155.503.368.601.663.322.964.605 3.562-3.108 7.78-3.713 4.219-6.325 4.268-7.322 4.07-.305-.06-.546-.265-.735-.512l-.943-1.236a2.097 2.097 0 00-2.939-.395L3.01 22.145a2.097 2.097 0 00-.599 2.614l.542 1.07a3.853 3.853 0 001.937 1.809c.701.296 1.434.514 2.195.501 2.399-.04 8.258-.94 14.402-7.921 6.145-6.982 6.294-12.908 6.03-15.292-.085-.757-.394-1.456-.777-2.114a3.852 3.852 0 00-2.04-1.691L23.57.719a2.097 2.097 0 00-2.517.926L18.846 5.46a2.097 2.097 0 00.766 2.865z" fill="#fff"/></svg>