<svg class="footer-" width="20" height="21" fill="none" xmlns="http://www.w3.org/2000/svg"><path fill-rule="evenodd" clip-rule="evenodd" d="M10 20.002c5.523 0 10-4.477 10-10s-4.477-10-10-10-10 4.477-10 10 4.477 10 10 10zm3.232-8.638l1.544 1.547c.307.309.297.82-.02 1.14l-.442.432-.01-.009a2.61 2.61 0 01-1.274.52c-.1.011-2.435.23-5.333-2.674-2.097-2.101-2.87-3.65-2.665-5.344.023-.212.075-.422.16-.643.09-.233.212-.448.358-.634l-.012-.012.435-.439c.319-.32.829-.329 1.135-.021l1.545 1.548c.307.308.298.818-.02 1.138l-.258.257-.522.523c.024.04.047.084.072.128l.012.022.001.003c.273.493.647 1.166 1.355 1.876s1.38 1.084 1.872 1.357l.153.085.778-.78c.319-.318.828-.328 1.136-.02z" fill="#fff"/></svg>