<svg width="47" height="47" viewBox="0 0 47 47" fill="none" xmlns="http://www.w3.org/2000/svg">
<path d="M29.0139 10.8219L25.6763 10.8164C21.9266 10.8164 19.5034 13.3702 19.5034 17.323V20.3229H16.1476C15.8576 20.3229 15.6228 20.5644 15.6228 20.8623V25.2089C15.6228 25.5068 15.8579 25.748 16.1476 25.748H19.5034V36.7159C19.5034 37.0138 19.7382 37.255 20.0282 37.255H24.4066C24.6965 37.255 24.9314 37.0135 24.9314 36.7159V25.748H28.8551C29.1451 25.748 29.3799 25.5068 29.3799 25.2089L29.3815 20.8623C29.3815 20.7193 29.3261 20.5823 29.2278 20.4811C29.1295 20.3799 28.9956 20.3229 28.8564 20.3229H24.9314V17.7798C24.9314 16.5575 25.2149 15.937 26.765 15.937L29.0133 15.9362C29.303 15.9362 29.5379 15.6947 29.5379 15.3971V11.361C29.5379 11.0637 29.3033 10.8225 29.0139 10.8219Z" fill="white"/>
<circle cx="23.4342" cy="23.4362" r="22.4342" stroke="white" stroke-width="2"/>
</svg>
