<svg width="47" height="47" viewBox="0 0 47 47" fill="none" xmlns="http://www.w3.org/2000/svg">
<path fill-rule="evenodd" clip-rule="evenodd" d="M12.4035 21.3062C12.4035 17.1815 12.4035 15.1192 13.4539 13.6734C13.7931 13.2065 14.2038 12.7959 14.6707 12.4567C16.1164 11.4062 18.1788 11.4062 22.3035 11.4062H26.5386C30.6633 11.4062 32.7256 11.4062 34.1714 12.4567C34.6383 12.7959 35.0489 13.2065 35.3882 13.6734C36.4386 15.1192 36.4386 17.1815 36.4386 21.3062V25.5413C36.4386 29.666 36.4386 31.7284 35.3882 33.1742C35.0489 33.6411 34.6383 34.0517 34.1714 34.3909C32.7256 35.4413 30.6633 35.4413 26.5386 35.4413H22.3035C18.1788 35.4413 16.1164 35.4413 14.6707 34.3909C14.2038 34.0517 13.7931 33.6411 13.4539 33.1742C12.4035 31.7284 12.4035 29.666 12.4035 25.5413V21.3062ZM24.421 17.0616C20.9075 17.0616 18.0588 19.9103 18.0588 23.4238C18.0588 26.9373 20.9075 29.786 24.421 29.786C27.9346 29.786 30.7833 26.9373 30.7833 23.4238C30.7833 19.9103 27.9346 17.0616 24.421 17.0616ZM24.421 27.4002C22.2293 27.4002 20.4447 25.6156 20.4447 23.4238C20.4447 21.2304 22.2293 19.4474 24.421 19.4474C26.6128 19.4474 28.3974 21.2304 28.3974 23.4238C28.3974 25.6156 26.6128 27.4002 24.421 27.4002ZM32.1082 16.5844C32.1082 17.0526 31.7287 17.4322 31.2605 17.4322C30.7922 17.4322 30.4127 17.0526 30.4127 16.5844C30.4127 16.1162 30.7922 15.7366 31.2605 15.7366C31.7287 15.7366 32.1082 16.1162 32.1082 16.5844Z" fill="white"/>
<circle cx="23.5658" cy="23.4362" r="22.4342" stroke="white" stroke-width="2"/>
</svg>
