<svg class="footer__menu-list-icon" width="20" height="21" viewBox="0 0 20 21" fill="none" xmlns="http://www.w3.org/2000/svg">
<circle cx="10" cy="10.002" r="10" fill="white"/>
<path d="M13.3619 6.00195H6.63809C6.07857 6.00195 5.625 6.45553 5.625 7.01504C5.625 7.3228 5.7649 7.61387 6.00522 7.80613L8.00098 9.40273L8.00098 9.40274C8.71441 9.97348 9.07113 10.2589 9.46674 10.3683C9.81569 10.4648 10.1843 10.4648 10.5333 10.3683C10.9289 10.2589 11.2856 9.97348 11.999 9.40273L13.9948 7.80613C14.2351 7.61387 14.375 7.3228 14.375 7.01504C14.375 6.45553 13.9214 6.00195 13.3619 6.00195Z" fill="#414042"/>
<path d="M8.825 14.002H11.175C12.2951 14.002 12.8552 14.002 13.283 13.784C13.6593 13.5922 13.9653 13.2863 14.157 12.9099C14.375 12.4821 14.375 11.9221 14.375 10.802V8.25195L12.9985 9.35313C11.9284 10.2092 11.3933 10.6373 10.7999 10.8015C10.2765 10.9463 9.72354 10.9463 9.20011 10.8015C8.6067 10.6373 8.07162 10.2092 7.00147 9.35313L7.00146 9.35312L5.625 8.25195V10.802C5.625 11.9221 5.625 12.4821 5.84299 12.9099C6.03473 13.2863 6.34069 13.5922 6.71702 13.784C7.14484 14.002 7.70489 14.002 8.825 14.002Z" fill="#414042"/>
</svg>
