<svg class="footer-"  width="20" height="21" viewBox="0 0 20 21" fill="none" xmlns="http://www.w3.org/2000/svg">
<path fill-rule="evenodd" clip-rule="evenodd" d="M10 20.002C15.5228 20.002 20 15.5248 20 10.002C20 4.47911 15.5228 0.00195312 10 0.00195312C4.47715 0.00195312 0 4.47911 0 10.002C0 15.5248 4.47715 20.002 10 20.002ZM13.2315 11.3635L14.7758 12.9115C15.0826 13.2199 15.0734 13.7305 14.7552 14.0501L14.3143 14.4828L14.3048 14.4743C14.1187 14.6203 13.9041 14.7424 13.6745 14.8323C13.4607 14.9154 13.2504 14.968 13.031 14.9943C12.9302 15.005 10.5948 15.2244 7.69672 12.32C5.60017 10.2186 4.82763 8.67011 5.03155 6.97573C5.05537 6.76444 5.10746 6.55358 5.19112 6.33261C5.28187 6.10047 5.40383 5.8852 5.54977 5.69856L5.53788 5.68672L5.97313 5.24798C6.29194 4.92837 6.80157 4.91904 7.10845 5.22656L8.6528 6.77475C8.95968 7.08271 8.95089 7.59312 8.63208 7.91273L8.37536 8.17036L7.85318 8.69295C7.87656 8.73394 7.90019 8.77679 7.92462 8.82109C7.92868 8.82845 7.93276 8.83585 7.93686 8.84328L7.93842 8.84608C8.21135 9.3386 8.58476 10.0124 9.29315 10.7223C10.0008 11.4321 10.6732 11.8061 11.1646 12.0789C11.2181 12.109 11.2689 12.1374 11.3181 12.1645L12.0961 11.3849C12.4145 11.0657 12.9239 11.0564 13.2315 11.3635Z" fill="white"/>
</svg>
