<svg width="20" height="21" viewBox="0 0 20 21" fill="none" xmlns="http://www.w3.org/2000/svg">
<circle cx="10" cy="10.002" r="10" fill="white"/>
<path fill-rule="evenodd" clip-rule="evenodd" d="M14 9.02461C14 9.8783 13.7356 10.6699 13.2846 11.321H13.2857L10.4818 15.7366C10.257 16.0905 9.74308 16.0904 9.51847 15.7364L6.72786 11.3389C6.2693 10.6844 6 9.88612 6 9.02461C6 6.80296 7.79086 5.00195 10 5.00195C12.2091 5.00195 14 6.80296 14 9.02461ZM10 11.3233C11.2624 11.3233 12.2857 10.2941 12.2857 9.02461C12.2857 7.75509 11.2624 6.72595 10 6.72595C8.73764 6.72595 7.71429 7.75509 7.71429 9.02461C7.71429 10.2941 8.73764 11.3233 10 11.3233Z" fill="#414042"/>
</svg>
