<svg width="72" height="72" viewBox="0 0 72 72" fill="none" xmlns="http://www.w3.org/2000/svg">
<rect x="1" y="1" width="70" height="70" rx="7" stroke="white" stroke-width="2"/>
<g clip-path="url(#clip0)">
<path d="M52.4894 16.5596H20.2919C18.9765 16.5596 17.9069 17.6292 17.9069 18.9446V42.7946C17.9069 43.6734 18.3898 44.4343 19.0994 44.8481V51.7383C19.0994 52.7245 19.9019 53.5271 20.8881 53.5271H51.8931C52.8793 53.5271 53.6819 52.7245 53.6819 51.7383V44.8481C54.3914 44.4343 54.8744 43.6734 54.8744 42.7946V18.9446C54.8744 17.6292 53.8047 16.5596 52.4894 16.5596ZM52.4894 51.7383C52.4894 52.0675 52.2222 52.3346 51.8931 52.3346H20.8881C20.559 52.3346 20.2919 52.0675 20.2919 51.7383V45.1796H52.4894V51.7383ZM53.6819 42.7946C53.6819 43.4522 53.147 43.9871 52.4894 43.9871H20.2919C19.6342 43.9871 19.0994 43.4522 19.0994 42.7946V18.9446C19.0994 18.2869 19.6342 17.7521 20.2919 17.7521H52.4894C53.147 17.7521 53.6819 18.2869 53.6819 18.9446V42.7946Z" fill="white"/>
<path d="M25.0619 51.1421C26.3772 51.1421 27.4469 50.0724 27.4469 48.7571C27.4469 47.4417 26.3772 46.3721 25.0619 46.3721C23.7466 46.3721 22.6769 47.4417 22.6769 48.7571C22.6769 50.0724 23.7466 51.1421 25.0619 51.1421ZM25.0619 47.5646C25.7195 47.5646 26.2544 48.0994 26.2544 48.7571C26.2544 49.4147 25.7195 49.9496 25.0619 49.9496C24.4042 49.9496 23.8694 49.4147 23.8694 48.7571C23.8694 48.0994 24.4042 47.5646 25.0619 47.5646Z" fill="white"/>
<path d="M21.4844 41.6017H51.2969V20.1367H21.4844V41.6017ZM22.6769 21.3292H50.1044V40.4092H22.6769V21.3292Z" fill="white"/>
<path d="M35.7943 47.5645H29.8318V51.142H35.7943V47.5645ZM34.6018 49.9495H31.0243V48.757H34.6018V49.9495Z" fill="white"/>
<path d="M42.9494 47.5645H36.9869V51.142H42.9494V47.5645ZM41.7569 49.9495H38.1794V48.757H41.7569V49.9495Z" fill="white"/>
<path d="M50.1043 47.5645H44.1418V51.142H50.1043V47.5645ZM48.9118 49.9495H45.3343V48.757H48.9118V49.9495Z" fill="white"/>
<path d="M41.6251 26.6635L39.4178 34.9407L36.4813 22.0205L32.9711 33.2545H32.0505L29.1921 24.6786L26.4011 34.447H23.8694V35.6395H27.3002L29.2792 28.7128L31.1907 34.447H33.8476L36.3 26.6009L39.326 39.9158L41.8887 30.3054L43.1527 33.2545H48.9119V32.062H43.9386L41.6251 26.6635Z" fill="white"/>
<path d="M27.4468 36.832H28.6393V38.0245H27.4468V36.832Z" fill="white"/>
<path d="M29.8318 36.832H31.0243V38.0245H29.8318V36.832Z" fill="white"/>
<path d="M32.2169 36.832H33.4094V38.0245H32.2169V36.832Z" fill="white"/>
</g>
<defs>
<clipPath id="clip0">
<rect width="38.16" height="38.16" fill="white" transform="translate(16.5601 16.5596)"/>
</clipPath>
</defs>
</svg>
